<svg width="52" height="55" viewBox="0 0 52 55" fill="none" xmlns="http://www.w3.org/2000/svg">
<g clip-path="url(#clip0_450_2066)">
<path d="M11.2231 13.0629V23.8535C11.2231 24.3122 11.5949 24.6836 12.0532 24.6836C12.5114 24.6836 12.8831 24.3122 12.8831 23.8535V17.7933H13.1943V23.8535C13.1943 24.3122 13.5661 24.6836 14.0243 24.6836C14.4828 24.6836 14.8543 24.3122 14.8543 23.8535V13.0628C15.1215 12.9234 15.487 12.6751 15.8454 12.246C16.0264 12.0299 16.2022 11.7682 16.3624 11.458V10.9141C16.1558 10.789 15.912 10.6136 15.6583 10.376C15.4742 10.9157 15.2409 11.2925 15.021 11.5573C14.7889 11.835 14.5652 11.9939 14.4073 12.0835C14.3375 12.1232 14.2814 12.1483 14.2428 12.164H11.8349C11.6933 12.1066 11.3071 11.9169 10.9281 11.3918C10.5065 10.8043 10.0755 9.77582 10.0743 7.95541C10.0741 7.89592 10.0747 7.83653 10.0755 7.77742C10.0808 7.48083 9.84469 7.23614 9.54801 7.23092C9.25142 7.22561 9.00683 7.46195 9.00161 7.75854C9.00038 7.8259 9 7.89155 9 7.9555C8.99763 10.1434 9.58539 11.4743 10.232 12.246C10.5904 12.6752 10.9561 12.9235 11.2231 13.0629Z" fill="#2E384D"/>
<path d="M13.0388 11.7815C13.8731 11.7815 14.5494 11.1052 14.5494 10.2709C14.5494 9.43667 13.8731 8.76038 13.0388 8.76038C12.2046 8.76038 11.5283 9.43667 11.5283 10.2709C11.5283 11.1052 12.2046 11.7815 13.0388 11.7815Z" fill="#2E384D"/>
<path d="M16.7419 10.6926V23.6843C16.7419 24.2364 17.1894 24.6835 17.7411 24.6835C18.2931 24.6835 18.7406 24.2364 18.7406 23.6843V16.3878H19.1151V23.6843C19.1151 24.2364 19.5626 24.6835 20.1144 24.6835C20.6664 24.6835 21.1138 24.2364 21.1138 23.6843V10.6926C21.4355 10.5248 21.8753 10.2259 22.3069 9.70921C22.4324 9.55959 22.5559 9.39222 22.675 9.20607V8.67457C22.4267 8.51185 22.1457 8.29478 21.8578 8.01327C21.6853 8.37874 21.496 8.66138 21.3142 8.88007C21.0348 9.21442 20.7659 9.40579 20.5756 9.51367C20.4915 9.56139 20.424 9.59175 20.3775 9.61054H17.4784C17.3079 9.54137 16.843 9.3131 16.3866 8.68083C15.879 7.97362 15.3604 6.73527 15.3587 4.5437C15.3585 4.47207 15.3593 4.40053 15.3604 4.32937C15.3667 3.97225 15.0822 3.67775 14.7254 3.67149C14.3681 3.66513 14.0737 3.94958 14.0676 4.3067C14.0659 4.38763 14.0656 4.46666 14.0656 4.54379C14.0627 7.17778 14.7703 8.78026 15.5488 9.7093C15.9802 10.2259 16.4204 10.5249 16.7419 10.6926Z" fill="#2E384D"/>
<path d="M18.928 9.15004C19.9324 9.15004 20.7466 8.33582 20.7466 7.33143C20.7466 6.32704 19.9324 5.51282 18.928 5.51282C17.9236 5.51282 17.1094 6.32704 17.1094 7.33143C17.1094 8.33582 17.9236 9.15004 18.928 9.15004Z" fill="#2E384D"/>
<path d="M37.7571 12.1641C37.7185 12.1484 37.6624 12.1234 37.5927 12.0836C37.4347 11.994 37.2111 11.8352 36.9789 11.5575C36.7591 11.2927 36.5258 10.9159 36.3417 10.3763C36.088 10.6137 35.8442 10.7891 35.6377 10.9142V11.4585C35.7979 11.7686 35.9736 12.0301 36.1545 12.2461C36.5129 12.6752 36.8784 12.9235 37.1456 13.0629V23.8537C37.1456 24.3123 37.5171 24.6838 37.9756 24.6838C38.4338 24.6838 38.8056 24.3123 38.8056 23.8537V17.7934H39.1168V23.8537C39.1168 24.3123 39.4885 24.6838 39.9467 24.6838C40.405 24.6838 40.7768 24.3123 40.7768 23.8537V13.0629C41.0438 12.9235 41.4095 12.6751 41.7678 12.246C42.4144 11.4743 43.0023 10.1433 42.9998 7.95553C42.9998 7.89158 42.9994 7.82583 42.9981 7.75866C42.9929 7.46207 42.7483 7.22573 42.4517 7.23104C42.155 7.23626 41.919 7.48086 41.9242 7.77754C41.925 7.83665 41.9256 7.89604 41.9254 7.95553C41.9242 9.77594 41.4933 10.8044 41.0716 11.3919C40.6926 11.917 40.3065 12.1067 40.1648 12.1641H37.7571Z" fill="#2E384D"/>
<path d="M38.9611 11.7815C39.7953 11.7815 40.4716 11.1052 40.4716 10.2709C40.4716 9.43667 39.7953 8.76038 38.9611 8.76038C38.1268 8.76038 37.4505 9.43667 37.4505 10.2709C37.4505 11.1052 38.1268 11.7815 38.9611 11.7815Z" fill="#2E384D"/>
<path d="M31.6224 9.61048C31.5759 9.59169 31.5084 9.56133 31.4243 9.51361C31.234 9.40574 30.9651 9.21446 30.6857 8.88002C30.504 8.66123 30.3146 8.3785 30.1421 8.01303C29.8543 8.29425 29.5734 8.51152 29.3251 8.67451V9.20621C29.4442 9.39217 29.5677 9.55963 29.6931 9.70915C30.1247 10.2259 30.5645 10.5248 30.8862 10.6926V23.6843C30.8862 24.2364 31.3336 24.6836 31.8856 24.6836C32.4374 24.6836 32.8849 24.2364 32.8849 23.6843V16.3879H33.2594V23.6843C33.2594 24.2364 33.7069 24.6836 34.2589 24.6836C34.8106 24.6836 35.2581 24.2364 35.2581 23.6843V10.6926C35.5796 10.5247 36.0197 10.2259 36.4513 9.70906C37.2297 8.78002 37.9374 7.17754 37.9345 4.54355C37.9345 4.46642 37.9341 4.38738 37.9324 4.30645C37.9263 3.94933 37.6318 3.66489 37.2745 3.67125C36.9176 3.67751 36.6332 3.97201 36.6395 4.32913C36.6406 4.40029 36.6414 4.47182 36.6412 4.54346C36.6395 6.73503 36.1209 7.97337 35.6133 8.68059C35.1569 9.31285 34.692 9.54113 34.5215 9.61029H31.6224V9.61048Z" fill="#2E384D"/>
<path d="M33.072 9.15004C34.0764 9.15004 34.8906 8.33582 34.8906 7.33143C34.8906 6.32704 34.0764 5.51282 33.072 5.51282C32.0676 5.51282 31.2534 6.32704 31.2534 7.33143C31.2534 8.33582 32.0676 9.15004 33.072 9.15004Z" fill="#2E384D"/>
<path d="M23.434 8.24191V23.4918C23.434 24.1399 23.9593 24.6648 24.607 24.6648C25.2548 24.6648 25.7801 24.1399 25.7801 23.4918V14.9272H26.2199V23.4918C26.2199 24.1399 26.7452 24.6648 27.3928 24.6648C28.0407 24.6648 28.566 24.1399 28.566 23.4918V8.24181C28.9435 8.04484 29.4599 7.69399 29.9666 7.08753C30.8805 5.9971 31.7113 4.11597 31.7076 1.0241C31.7074 0.932071 31.7066 0.840419 31.7056 0.749811C31.7004 0.330453 31.3563 -0.00512884 30.9371 0.0001843C30.5181 0.00540256 30.1825 0.349523 30.1878 0.768597C30.1887 0.856359 30.1896 0.941843 30.1896 1.0241C30.1859 3.85752 29.452 5.33125 28.8015 6.11437C28.4735 6.50688 28.1578 6.73136 27.9342 6.85802C27.8356 6.91409 27.7565 6.94967 27.7019 6.97178H24.2987C24.0986 6.89066 23.5531 6.62263 23.0173 5.8804C22.4214 5.05023 21.8124 3.5967 21.8105 1.0241C21.8104 0.939946 21.8111 0.856074 21.8124 0.772487C21.8198 0.353318 21.4862 0.00767962 21.067 0.000279177C20.6478 -0.00731102 20.3022 0.326658 20.2948 0.745826C20.2929 0.840799 20.2924 0.933589 20.2924 1.0241C20.2889 4.11597 21.1196 5.99701 22.0336 7.08744C22.5401 7.69399 23.0565 8.04494 23.434 8.24191Z" fill="#2E384D"/>
<path d="M26.0001 6.43111C27.1791 6.43111 28.1349 5.47535 28.1349 4.29636C28.1349 3.11738 27.1791 2.16162 26.0001 2.16162C24.8212 2.16162 23.8654 3.11738 23.8654 4.29636C23.8654 5.47535 24.8212 6.43111 26.0001 6.43111Z" fill="#2E384D"/>
</g>
<path d="M12.84 41.1716V40.6676C13.128 40.5476 13.344 40.3556 13.488 40.0676L13.776 39.4676C13.968 39.0836 13.944 38.6276 13.728 38.2436C13.488 37.8596 13.104 37.6436 12.648 37.6436H12.048C11.616 37.6436 11.208 37.8596 10.968 38.2436C10.728 38.6276 10.704 39.0836 10.92 39.4676L11.208 40.0676C11.352 40.3556 11.568 40.5476 11.856 40.6676V41.1716C11.856 41.4356 12.072 41.6516 12.336 41.6516C12.6 41.6516 12.84 41.4356 12.84 41.1716ZM12.096 39.6116L11.808 39.0116C11.736 38.8676 11.808 38.7716 11.832 38.7236C11.856 38.6756 11.928 38.5796 12.096 38.5796H12.696C12.84 38.5796 12.936 38.6756 12.96 38.7236C12.984 38.7716 13.032 38.8916 12.984 39.0116L12.696 39.6116C12.624 39.7556 12.48 39.7796 12.432 39.7796C12.384 39.7796 12.168 39.7796 12.096 39.6116Z" fill="#2E384D"/>
<path d="M14.76 37.5716C15.0251 37.5716 15.24 37.3567 15.24 37.0916C15.24 36.8265 15.0251 36.6116 14.76 36.6116C14.4949 36.6116 14.28 36.8265 14.28 37.0916C14.28 37.3567 14.4949 37.5716 14.76 37.5716Z" fill="#2E384D"/>
<path d="M9.96 37.5716C10.2251 37.5716 10.44 37.3567 10.44 37.0916C10.44 36.8265 10.2251 36.6116 9.96 36.6116C9.69491 36.6116 9.48 36.8265 9.48 37.0916C9.48 37.3567 9.69491 37.5716 9.96 37.5716Z" fill="#2E384D"/>
<path d="M25.32 41.4116C23.472 41.4116 21.96 42.9236 21.96 44.7716V45.7316C21.96 48.2036 20.064 50.2676 17.64 50.5076V46.9316C17.64 45.4196 16.992 44.0756 15.984 43.0916C16.584 42.7316 17.136 42.2996 17.568 41.7956L19.896 42.5636C19.944 42.5876 19.992 42.5876 20.04 42.5876C20.232 42.5876 20.424 42.4676 20.496 42.2516C20.568 41.9876 20.448 41.7236 20.184 41.6516L18.144 40.9796C18.528 40.3556 18.744 39.6356 18.816 38.8916L20.088 38.7476C20.352 38.7236 20.544 38.4836 20.52 38.2196C20.496 37.9556 20.256 37.7636 19.992 37.7876L18.84 37.9316V33.3956C18.84 32.8676 18.552 32.3636 18.072 32.1236C17.592 31.8836 17.016 31.9076 16.584 32.2196L14.856 33.4196C14.064 33.1316 13.224 32.9876 12.36 32.9876C11.496 32.9876 10.656 33.1316 9.864 33.4196L8.136 32.2196C7.704 31.9076 7.128 31.8836 6.648 32.1236C6.168 32.3636 5.88 32.8676 5.88 33.3956V37.9316L4.728 37.8116C4.464 37.7876 4.224 37.9796 4.2 38.2436C4.176 38.5076 4.368 38.7476 4.632 38.7716L5.904 38.9156C5.952 39.6596 6.192 40.3556 6.576 41.0036L4.536 41.6756C4.296 41.7716 4.152 42.0356 4.224 42.2756C4.296 42.4676 4.488 42.6116 4.68 42.6116C4.728 42.6116 4.776 42.6116 4.824 42.5876L7.152 41.8196C7.584 42.3236 8.112 42.7556 8.736 43.1156C7.728 44.0756 7.08 45.4436 7.08 46.9556V51.9956C7.08 52.7876 7.728 53.4356 8.52 53.4356H16.2C16.992 53.4356 17.64 52.7876 17.64 51.9956V51.4916C20.592 51.2516 22.92 48.7796 22.92 45.7556V44.7956C22.92 43.4756 24 42.3956 25.32 42.3956C25.584 42.3956 25.8 42.1796 25.8 41.9156C25.8 41.6276 25.584 41.4116 25.32 41.4116ZM17.112 33.0116C17.256 32.9156 17.448 32.8916 17.616 32.9876C17.784 33.0836 17.88 33.2276 17.88 33.4196V35.6516C17.376 34.9556 16.704 34.3556 15.888 33.8996L17.112 33.0116ZM6.84 33.3956C6.84 33.2036 6.936 33.0596 7.104 32.9636C7.272 32.8916 7.44 32.8916 7.608 32.9876L8.856 33.8516C8.04 34.3076 7.344 34.9076 6.864 35.6036V33.3956H6.84ZM8.16 41.4596L9.168 41.1236C9.408 41.0516 9.552 40.7636 9.48 40.5236C9.384 40.2836 9.12 40.1396 8.88 40.2116L7.536 40.6676C7.19921 40.1642 6.98547 39.5888 6.912 38.9876L9 39.2276H9.048C9.288 39.2276 9.504 39.0356 9.528 38.7956C9.552 38.5316 9.36 38.2916 9.096 38.2676L6.912 38.0276C7.08 36.4916 8.256 35.0996 9.96 34.4036C10.704 34.1156 11.52 33.9476 12.36 33.9476C13.2 33.9476 13.992 34.0916 14.76 34.4036C16.488 35.0996 17.664 36.4916 17.856 38.0276L15.672 38.2676C15.408 38.2916 15.216 38.5316 15.24 38.7956C15.264 39.0356 15.48 39.2276 15.72 39.2276H15.768L17.856 38.9876C17.784 39.5876 17.568 40.1396 17.232 40.6676L15.888 40.2116C15.648 40.1396 15.36 40.2596 15.288 40.5236C15.216 40.7636 15.336 41.0516 15.6 41.1236L16.608 41.4596C15.552 42.4676 14.04 43.0916 12.36 43.0916C10.68 43.0916 9.168 42.4676 8.16 41.4596ZM16.68 51.9716C16.68 52.2356 16.464 52.4516 16.2 52.4516H15.24V49.0916C15.24 48.8276 15.024 48.6116 14.76 48.6116C14.496 48.6116 14.28 48.8276 14.28 49.0916V52.4516H12.84V48.1316C12.84 47.8676 12.624 47.6516 12.36 47.6516C12.096 47.6516 11.88 47.8676 11.88 48.1316V52.4516H10.44V49.0916C10.44 48.8276 10.224 48.6116 9.96 48.6116C9.696 48.6116 9.48 48.8276 9.48 49.0916V52.4516H8.52C8.256 52.4516 8.04 52.2356 8.04 51.9716V46.9316C8.04 45.5636 8.688 44.3396 9.672 43.5476C10.488 43.8596 11.4 44.0516 12.36 44.0516C13.32 44.0516 14.232 43.8596 15.048 43.5476C16.032 44.3396 16.68 45.5636 16.68 46.9316V51.9716Z" fill="#2E384D"/>
<g clip-path="url(#clip1_450_2066)">
<path d="M39.2294 36.7853C39.3226 36.7853 39.412 36.7482 39.478 36.6823C39.5439 36.6164 39.5809 36.527 39.5809 36.4337V35.5403C39.5809 35.447 39.5439 35.3576 39.478 35.2917C39.412 35.2258 39.3226 35.1887 39.2294 35.1887C39.1361 35.1887 39.0467 35.2258 38.9808 35.2917C38.9149 35.3576 38.8778 35.447 38.8778 35.5403V36.4337C38.8778 36.527 38.9149 36.6164 38.9808 36.6823C39.0467 36.7482 39.1361 36.7853 39.2294 36.7853ZM48.9095 47.3884C48.8903 47.2444 48.8239 47.1107 48.7206 47.0085C48.6173 46.9063 48.4829 46.8413 48.3387 46.8237C48.1945 46.806 48.0484 46.8368 47.9235 46.9111C47.7986 46.9854 47.7019 47.099 47.6486 47.2342C47.4092 47.8514 47.03 48.4047 46.5409 48.8509C46.4777 48.9081 45.0878 50.1493 43.8405 49.9815C43.9991 49.2095 44.0014 48.4135 43.8471 47.6406C43.6929 46.8677 43.3852 46.1335 42.9423 45.4815L41.3322 43.1125C42.1327 42.388 42.757 41.4901 43.1575 40.4875C43.3084 41.5403 43.4472 42.2898 44.1048 42.392C44.1474 42.3984 44.1903 42.4015 44.2333 42.4014C44.7156 42.4014 45.1848 41.9982 45.505 41.6425C46.0675 41.0186 46.5503 40.1195 46.8306 39.1759C47.1719 38.0279 47.2056 36.8659 46.9244 35.8154C46.0806 32.6279 42.7881 31.6661 42.6484 31.6267C41.7878 31.3843 40.7781 31.3178 40.0291 31.449C39.0983 30.9445 38.0563 30.6803 36.9977 30.6803C35.939 30.6803 34.897 30.9445 33.9662 31.449C33.2162 31.3178 32.2075 31.3843 31.3469 31.6267C31.2062 31.6661 27.9152 32.6265 27.0709 35.8154C26.7948 36.8711 26.8281 38.0312 27.1694 39.1792C27.4506 40.1228 27.933 41.0218 28.495 41.6457C28.8152 42.0015 29.2844 42.4051 29.7667 42.4046C29.8097 42.4048 29.8526 42.4017 29.8952 42.3953C30.5514 42.2931 30.692 41.5436 30.8425 40.4907C31.243 41.4934 31.8673 42.3912 32.6678 43.1157L31.0577 45.4848C30.5934 46.1678 30.2781 46.9408 30.132 47.7536C29.9859 48.5663 30.0125 49.4008 30.2098 50.2026C30.4072 51.0045 30.771 51.7559 31.2777 52.408C31.7843 53.0602 32.4224 53.5984 33.1506 53.9879C33.171 54.0011 33.1925 54.0124 33.2148 54.0217C34.0529 54.4581 34.9841 54.6852 35.9289 54.6836H38.0711C39.0161 54.6846 39.9473 54.4569 40.7852 54.0198C40.8076 54.0107 40.8291 53.9994 40.8494 53.9861C41.3976 53.6909 41.8959 53.3112 42.3259 52.8611C42.7052 53.0978 43.2095 53.222 43.7978 53.222C43.9287 53.222 44.0636 53.2159 44.2023 53.2037C45.737 53.0668 47.2736 52.2161 48.1164 51.0362C49.008 49.7893 49.0398 48.3643 48.9095 47.3884ZM42.46 32.3068C42.4905 32.3153 45.5045 33.1937 46.247 35.9987C46.8133 38.1371 45.8008 40.2643 44.9814 41.1756C44.6064 41.59 44.3167 41.7165 44.2117 41.7001C44.0341 41.6729 43.9103 40.7997 43.8283 40.2221C43.7697 39.8082 43.7031 39.3409 43.6028 38.8384C43.6565 38.4757 43.6835 38.1096 43.6834 37.7429C43.6834 35.4339 42.6283 33.3803 41.0003 32.0912C41.4938 32.1038 41.9839 32.1762 42.46 32.3068ZM30.3967 38.8431C30.3934 38.8553 30.3902 38.867 30.3878 38.8797C30.2941 39.3672 30.2275 39.8214 30.1708 40.2221C30.0887 40.7997 29.965 41.6729 29.7873 41.7001C29.6833 41.717 29.3908 41.5904 29.0177 41.1756C28.1992 40.2662 27.1867 38.1371 27.752 35.9987C28.4945 33.1937 31.5086 32.3153 31.5391 32.3068C32.0151 32.1757 32.5052 32.1028 32.9987 32.0898C31.3708 33.3789 30.3156 35.4325 30.3156 37.7415C30.3154 38.1102 30.3425 38.4784 30.3967 38.8431ZM31.0187 37.7429C31.0187 34.2381 33.7019 31.3867 37 31.3867C40.2981 31.3867 42.9812 34.2381 42.9812 37.7429C42.9812 41.2478 40.2981 44.0987 37 44.0987C33.7019 44.0987 31.0187 41.2478 31.0187 37.7429ZM40.3 53.4756C39.6041 53.8085 38.8425 53.981 38.0711 53.9804H35.9289C35.1571 53.9812 34.3949 53.8087 33.6986 53.4756V51.527C33.6986 50.6514 34.0464 49.8117 34.6656 49.1925C35.2847 48.5734 36.1244 48.2256 37 48.2256C37.8756 48.2256 38.7153 48.5734 39.3344 49.1925C39.9536 49.8117 40.3014 50.6514 40.3014 51.527L40.3 53.4756ZM41.0031 53.0687V51.527C41.0031 50.4649 40.5812 49.4464 39.8302 48.6954C39.0792 47.9444 38.0607 47.5225 36.9986 47.5225C35.9365 47.5225 34.918 47.9444 34.167 48.6954C33.416 49.4464 32.9941 50.4649 32.9941 51.527V53.0687C31.8628 52.2933 31.0849 51.1013 30.8307 49.7536C30.5764 48.4059 30.8665 47.0123 31.6375 45.8781L33.2144 43.5582C34.3107 44.3661 35.6368 44.8019 36.9986 44.8019C38.3604 44.8019 39.6865 44.3661 40.7828 43.5582L42.3597 45.8781C43.1307 47.0123 43.4208 48.4059 43.1665 49.7536C42.9123 51.1013 42.1344 52.2933 41.0031 53.0687ZM47.5469 50.6284C46.6609 51.8678 45.1591 52.4134 44.1423 52.5034C43.592 52.5503 43.1195 52.4842 42.7905 52.3159C43.1652 51.8149 43.4574 51.2572 43.6562 50.664C44.2909 50.7761 44.9987 50.6317 45.7656 50.2309C46.2134 49.9951 46.6315 49.7069 47.0111 49.3721C47.5354 48.8946 47.951 48.31 48.2298 47.6579C48.3194 48.4961 48.25 49.6389 47.5469 50.6284ZM35.2802 41.1498L36.662 42.5322C36.7808 42.6507 36.9417 42.7173 37.1095 42.7173C37.2772 42.7173 37.4381 42.6507 37.5569 42.5322L38.9392 41.1498C39.0272 41.0613 39.087 40.9487 39.1111 40.8263C39.1353 40.7039 39.1226 40.577 39.0748 40.4618C39.027 40.3465 38.9462 40.2479 38.8425 40.1785C38.7388 40.1091 38.6168 40.0719 38.492 40.0717H35.7264C35.6016 40.0719 35.4797 40.1091 35.376 40.1785C35.2723 40.2479 35.1914 40.3465 35.1436 40.4618C35.0958 40.577 35.0832 40.7039 35.1073 40.8263C35.1314 40.9487 35.1912 41.0613 35.2792 41.1498H35.2802ZM38.3219 40.7748L37.1097 41.9851L35.897 40.7729L38.3219 40.7748ZM34.7706 36.7871C34.8639 36.7871 34.9533 36.7501 35.0192 36.6842C35.0851 36.6182 35.1222 36.5288 35.1222 36.4356V35.5403C35.1222 35.447 35.0851 35.3576 35.0192 35.2917C34.9533 35.2258 34.8639 35.1887 34.7706 35.1887C34.6774 35.1887 34.588 35.2258 34.522 35.2917C34.4561 35.3576 34.4191 35.447 34.4191 35.5403V36.4337C34.4191 36.527 34.4561 36.6164 34.522 36.6823C34.588 36.7482 34.6774 36.7853 34.7706 36.7853V36.7871Z" fill="#2E384D"/>
</g>
<defs>
<clipPath id="clip0_450_2066">
<rect width="34" height="24.6836" fill="white" transform="translate(9)"/>
</clipPath>
<clipPath id="clip1_450_2066">
<rect width="24" height="24" fill="white" transform="translate(25 30.6836)"/>
</clipPath>
</defs>
</svg>
