<svg width="256" height="303" viewBox="0 0 256 303" fill="none" xmlns="http://www.w3.org/2000/svg">
<g clip-path="url(#clip0_1265_1952)">
<path d="M182.056 253.71L184.589 302.331C184.589 302.331 77.4748 200.382 64.1303 170.554C50.7858 140.725 75.9048 66.9376 75.9048 66.9376L131.638 97.5514L182.056 253.71Z" fill="#9F616A"/>
<path d="M17.817 46.5283L1.33265 48.0982C1.33265 48.0982 -7.30204 66.9375 19.387 68.5075L17.817 46.5283Z" fill="#9F616A"/>
<path d="M17.817 75.5722L1.33265 77.1421C1.33265 77.1421 -7.30204 95.9814 19.387 97.5514L17.817 75.5722Z" fill="#9F616A"/>
<path d="M17.817 106.971L1.33265 108.541C1.33265 108.541 -7.30204 127.38 19.387 128.95L17.817 106.971Z" fill="#9F616A"/>
<path d="M22.5268 138.37L6.04249 139.94C6.04249 139.94 -2.5922 158.779 24.0968 160.349L22.5268 138.37Z" fill="#9F616A"/>
<path d="M9.79175 54.0967H11.0425V19.8317C11.0425 17.2274 11.5555 14.6485 12.5521 12.2424C13.5488 9.83635 15.0095 7.65012 16.8511 5.80858C18.6926 3.96703 20.8788 2.50624 23.2849 1.50961C25.691 0.512969 28.2699 1.99533e-06 30.8742 0H103.469C106.074 -5.32074e-06 108.653 0.512953 111.059 1.50958C113.465 2.50621 115.651 3.967 117.492 5.80854C119.334 7.65007 120.795 9.83629 121.791 12.2424C122.788 14.6485 123.301 17.2273 123.301 19.8316V207.812C123.301 210.417 122.788 212.996 121.791 215.402C120.795 217.808 119.334 219.994 117.493 221.835C115.651 223.677 113.465 225.138 111.059 226.134C108.653 227.131 106.074 227.644 103.469 227.644H30.8743C25.6146 227.644 20.5703 225.555 16.8512 221.836C13.132 218.116 11.0426 213.072 11.0426 207.812V78.4872H9.79175V54.0967Z" fill="#3F3D56"/>
<path d="M30.074 5.15952H39.5501C39.1143 6.22791 38.9479 7.38707 39.0657 8.53489C39.1834 9.68271 39.5816 10.784 40.2252 11.7416C40.8688 12.6993 41.7381 13.484 42.7564 14.0266C43.7747 14.5692 44.9108 14.8531 46.0647 14.8531H87.6535C88.8073 14.8531 89.9435 14.5692 90.9618 14.0266C91.9801 13.484 92.8493 12.6993 93.4929 11.7416C94.1365 10.784 94.5347 9.68271 94.6525 8.53489C94.7702 7.38706 94.6039 6.22789 94.1681 5.1595H103.019C106.947 5.1595 110.714 6.71983 113.491 9.49726C116.268 12.2747 117.829 16.0417 117.829 19.9696V207.674C117.829 209.619 117.446 211.545 116.701 213.342C115.957 215.139 114.866 216.772 113.491 218.147C112.116 219.522 110.483 220.613 108.686 221.357C106.889 222.102 104.964 222.485 103.019 222.485H30.074C28.1291 222.485 26.2033 222.102 24.4064 221.357C22.6096 220.613 20.9769 219.522 19.6017 218.147C18.2265 216.772 17.1355 215.139 16.3913 213.342C15.647 211.545 15.2639 209.619 15.2639 207.674V19.9696C15.2639 18.0247 15.647 16.0988 16.3913 14.302C17.1355 12.5052 18.2265 10.8725 19.6017 9.49727C20.9769 8.12203 22.6096 7.03113 24.4064 6.28686C26.2033 5.54258 28.1291 5.15951 30.074 5.15952Z" fill="white"/>
<path d="M82.1746 57.7451H50.9181V65.2876H82.1746V57.7451Z" fill="#7B9D7C"/>
<path d="M83.6627 90.1549H49.4301V97.6973H83.6627V90.1549Z" fill="#E5E5E5"/>
<path d="M104.748 106.357H28.3444V113.9H104.748V106.357Z" fill="#E5E5E5"/>
<path d="M104.748 122.559H28.3444V130.102H104.748V122.559Z" fill="#E5E5E5"/>
<path d="M256 279.033L168.139 178.796L164.999 114.428L132.03 59.4803L122.611 35.9312C122.611 35.9312 100.631 38.2861 118.686 83.0294L126.143 106.971C119.421 121.449 115.938 137.22 115.938 153.183V208.045C115.938 220.963 177.499 291.329 184.665 302.078L256 279.033Z" fill="#9F616A"/>
<path opacity="0.2" d="M125.195 64.1365L131.749 60.9154L131.526 60.4606L125.47 63.437L116.329 39.4697L115.855 39.6505L125.195 64.1365Z" fill="black"/>
<path opacity="0.2" d="M1.42045 47.8598L1.24536 48.3351L10.9547 51.9117L11.1298 51.4364L1.42045 47.8598Z" fill="black"/>
<path opacity="0.2" d="M1.42045 77.2347L1.24536 77.71L10.9547 81.2866L11.1298 80.8113L1.42045 77.2347Z" fill="black"/>
<path opacity="0.2" d="M1.42045 108.635L1.24536 109.111L10.9547 112.687L11.1298 112.212L1.42045 108.635Z" fill="black"/>
<path opacity="0.2" d="M6.50719 140.045L6.28809 140.502L11.0152 142.771L11.2343 142.314L6.50719 140.045Z" fill="black"/>
<path d="M66.5851 195.194C78.677 195.194 88.4795 185.391 88.4795 173.299C88.4795 161.207 78.677 151.405 66.5851 151.405C54.4931 151.405 44.6907 161.207 44.6907 173.299C44.6907 185.391 54.4931 195.194 66.5851 195.194Z" fill="#7B9D7C"/>
<path d="M64.4985 182.541L57.9459 174.115L61.7565 171.152L64.8591 175.141L75.3414 164.076L78.8466 167.397L64.4985 182.541Z" fill="white"/>
</g>
<defs>
<clipPath id="clip0_1265_1952">
<rect width="256" height="302.331" fill="white"/>
</clipPath>
</defs>
</svg>
