<svg width="32" height="28" viewBox="0 0 32 28" fill="none" xmlns="http://www.w3.org/2000/svg">
<g clip-path="url(#clip0_450_2089)">
<path d="M16.5 10.5H15.5C15.2348 10.5 14.9804 10.3946 14.7929 10.2071C14.6054 10.0196 14.5 9.76522 14.5 9.5C14.5 9.36739 14.4473 9.24021 14.3536 9.14645C14.2598 9.05268 14.1326 9 14 9C13.8674 9 13.7402 9.05268 13.6464 9.14645C13.5527 9.24021 13.5 9.36739 13.5 9.5C13.5 10.0304 13.7107 10.5391 14.0858 10.9142C14.4609 11.2893 14.9696 11.5 15.5 11.5V12C15.5 12.1326 15.5527 12.2598 15.6464 12.3536C15.7402 12.4473 15.8674 12.5 16 12.5C16.1326 12.5 16.2598 12.4473 16.3536 12.3536C16.4473 12.2598 16.5 12.1326 16.5 12V11.5C17.0304 11.5 17.5391 11.2893 17.9142 10.9142C18.2893 10.5391 18.5 10.0304 18.5 9.5C18.5 8.96957 18.2893 8.46086 17.9142 8.08579C17.5391 7.71071 17.0304 7.5 16.5 7.5H15.5C15.2348 7.5 14.9804 7.39464 14.7929 7.20711C14.6054 7.01957 14.5 6.76522 14.5 6.5C14.5 6.23478 14.6054 5.98043 14.7929 5.79289C14.9804 5.60536 15.2348 5.5 15.5 5.5H16.5C16.7652 5.5 17.0196 5.60536 17.2071 5.79289C17.3946 5.98043 17.5 6.23478 17.5 6.5C17.5 6.63261 17.5527 6.75979 17.6464 6.85355C17.7402 6.94732 17.8674 7 18 7C18.1326 7 18.2598 6.94732 18.3536 6.85355C18.4473 6.75979 18.5 6.63261 18.5 6.5C18.5 5.96957 18.2893 5.46086 17.9142 5.08579C17.5391 4.71071 17.0304 4.5 16.5 4.5V4C16.5 3.86739 16.4473 3.74021 16.3536 3.64645C16.2598 3.55268 16.1326 3.5 16 3.5C15.8674 3.5 15.7402 3.55268 15.6464 3.64645C15.5527 3.74021 15.5 3.86739 15.5 4V4.5C14.9696 4.5 14.4609 4.71071 14.0858 5.08579C13.7107 5.46086 13.5 5.96957 13.5 6.5C13.5 7.03043 13.7107 7.53914 14.0858 7.91421C14.4609 8.28929 14.9696 8.5 15.5 8.5H16.5C16.7652 8.5 17.0196 8.60536 17.2071 8.79289C17.3946 8.98043 17.5 9.23478 17.5 9.5C17.5 9.76522 17.3946 10.0196 17.2071 10.2071C17.0196 10.3946 16.7652 10.5 16.5 10.5ZM5.5 13.5H4.5C4.23478 13.5 3.98043 13.3946 3.79289 13.2071C3.60536 13.0196 3.5 12.7652 3.5 12.5C3.5 12.3674 3.44732 12.2402 3.35355 12.1464C3.25979 12.0527 3.13261 12 3 12C2.86739 12 2.74022 12.0527 2.64645 12.1464C2.55268 12.2402 2.5 12.3674 2.5 12.5C2.5 13.0304 2.71071 13.5391 3.08579 13.9142C3.46086 14.2893 3.96957 14.5 4.5 14.5V15C4.5 15.1326 4.55268 15.2598 4.64645 15.3536C4.74022 15.4473 4.86739 15.5 5 15.5C5.13261 15.5 5.25979 15.4473 5.35355 15.3536C5.44732 15.2598 5.5 15.1326 5.5 15V14.5C6.03043 14.5 6.53914 14.2893 6.91421 13.9142C7.28929 13.5391 7.5 13.0304 7.5 12.5C7.5 11.9696 7.28929 11.4609 6.91421 11.0858C6.53914 10.7107 6.03043 10.5 5.5 10.5H4.5C4.23478 10.5 3.98043 10.3946 3.79289 10.2071C3.60536 10.0196 3.5 9.76522 3.5 9.5C3.5 9.23478 3.60536 8.98043 3.79289 8.79289C3.98043 8.60536 4.23478 8.5 4.5 8.5H5.5C5.76522 8.5 6.01957 8.60536 6.20711 8.79289C6.39464 8.98043 6.5 9.23478 6.5 9.5C6.5 9.63261 6.55268 9.75979 6.64645 9.85355C6.74022 9.94732 6.86739 10 7 10C7.13261 10 7.25979 9.94732 7.35355 9.85355C7.44732 9.75979 7.5 9.63261 7.5 9.5C7.5 8.96957 7.28929 8.46086 6.91421 8.08579C6.53914 7.71071 6.03043 7.5 5.5 7.5V7C5.5 6.86739 5.44732 6.74021 5.35355 6.64645C5.25979 6.55268 5.13261 6.5 5 6.5C4.86739 6.5 4.74022 6.55268 4.64645 6.64645C4.55268 6.74021 4.5 6.86739 4.5 7V7.5C3.96957 7.5 3.46086 7.71071 3.08579 8.08579C2.71071 8.46086 2.5 8.96957 2.5 9.5C2.5 10.0304 2.71071 10.5391 3.08579 10.9142C3.46086 11.2893 3.96957 11.5 4.5 11.5H5.5C5.76522 11.5 6.01957 11.6054 6.20711 11.7929C6.39464 11.9804 6.5 12.2348 6.5 12.5C6.5 12.7652 6.39464 13.0196 6.20711 13.2071C6.01957 13.3946 5.76522 13.5 5.5 13.5ZM19 14.5H13C12.5929 14.4985 12.1952 14.6217 11.8602 14.8531C11.5253 15.0845 11.2693 15.4129 11.1267 15.7942C10.9841 16.1755 10.9618 16.5913 11.0627 16.9857C11.1635 17.38 11.3828 17.734 11.691 18C11.4742 18.1852 11.3002 18.4152 11.1808 18.6742C11.0615 18.9331 10.9997 19.2149 10.9997 19.5C10.9997 19.7851 11.0615 20.0669 11.1808 20.3258C11.3002 20.5848 11.4742 20.8148 11.691 21C11.4742 21.1852 11.3002 21.4152 11.1808 21.6742C11.0615 21.9331 10.9997 22.2149 10.9997 22.5C10.9997 22.7851 11.0615 23.0669 11.1808 23.3258C11.3002 23.5848 11.4742 23.8148 11.691 24C11.3828 24.266 11.1635 24.62 11.0627 25.0143C10.9618 25.4087 10.9841 25.8245 11.1267 26.2058C11.2693 26.5871 11.5253 26.9155 11.8602 27.1469C12.1952 27.3783 12.5929 27.5015 13 27.5H19C19.4071 27.5015 19.8048 27.3783 20.1398 27.1469C20.4747 26.9155 20.7307 26.5871 20.8733 26.2058C21.0159 25.8245 21.0382 25.4087 20.9373 25.0143C20.8365 24.62 20.6172 24.266 20.309 24C20.5258 23.8148 20.6998 23.5848 20.8192 23.3258C20.9385 23.0669 21.0003 22.7851 21.0003 22.5C21.0003 22.2149 20.9385 21.9331 20.8192 21.6742C20.6998 21.4152 20.5258 21.1852 20.309 21C20.5258 20.8148 20.6998 20.5848 20.8192 20.3258C20.9385 20.0669 21.0003 19.7851 21.0003 19.5C21.0003 19.2149 20.9385 18.9331 20.8192 18.6742C20.6998 18.4152 20.5258 18.1852 20.309 18C20.6172 17.734 20.8365 17.38 20.9373 16.9857C21.0382 16.5913 21.0159 16.1755 20.8733 15.7942C20.7307 15.4129 20.4747 15.0845 20.1398 14.8531C19.8048 14.6217 19.4071 14.4985 19 14.5ZM19 26.5H13C12.7348 26.5 12.4804 26.3946 12.2929 26.2071C12.1054 26.0196 12 25.7652 12 25.5C12 25.2348 12.1054 24.9804 12.2929 24.7929C12.4804 24.6054 12.7348 24.5 13 24.5H19C19.2652 24.5 19.5196 24.6054 19.7071 24.7929C19.8946 24.9804 20 25.2348 20 25.5C20 25.7652 19.8946 26.0196 19.7071 26.2071C19.5196 26.3946 19.2652 26.5 19 26.5ZM19 23.5H13C12.7348 23.5 12.4804 23.3946 12.2929 23.2071C12.1054 23.0196 12 22.7652 12 22.5C12 22.2348 12.1054 21.9804 12.2929 21.7929C12.4804 21.6054 12.7348 21.5 13 21.5H19C19.2652 21.5 19.5196 21.6054 19.7071 21.7929C19.8946 21.9804 20 22.2348 20 22.5C20 22.7652 19.8946 23.0196 19.7071 23.2071C19.5196 23.3946 19.2652 23.5 19 23.5ZM19 20.5H13C12.7348 20.5 12.4804 20.3946 12.2929 20.2071C12.1054 20.0196 12 19.7652 12 19.5C12 19.2348 12.1054 18.9804 12.2929 18.7929C12.4804 18.6054 12.7348 18.5 13 18.5H19C19.2652 18.5 19.5196 18.6054 19.7071 18.7929C19.8946 18.9804 20 19.2348 20 19.5C20 19.7652 19.8946 20.0196 19.7071 20.2071C19.5196 20.3946 19.2652 20.5 19 20.5ZM19 17.5H13C12.7348 17.5 12.4804 17.3946 12.2929 17.2071C12.1054 17.0196 12 16.7652 12 16.5C12 16.2348 12.1054 15.9804 12.2929 15.7929C12.4804 15.6054 12.7348 15.5 13 15.5H19C19.2652 15.5 19.5196 15.6054 19.7071 15.7929C19.8946 15.9804 20 16.2348 20 16.5C20 16.7652 19.8946 17.0196 19.7071 17.2071C19.5196 17.3946 19.2652 17.5 19 17.5ZM27.5 7.5H26.5C26.2348 7.5 25.9804 7.39464 25.7929 7.20711C25.6054 7.01957 25.5 6.76522 25.5 6.5C25.5 6.36739 25.4473 6.24021 25.3536 6.14645C25.2598 6.05268 25.1326 6 25 6C24.8674 6 24.7402 6.05268 24.6464 6.14645C24.5527 6.24021 24.5 6.36739 24.5 6.5C24.5 7.03043 24.7107 7.53914 25.0858 7.91421C25.4609 8.28929 25.9696 8.5 26.5 8.5V9C26.5 9.13261 26.5527 9.25979 26.6464 9.35355C26.7402 9.44732 26.8674 9.5 27 9.5C27.1326 9.5 27.2598 9.44732 27.3536 9.35355C27.4473 9.25979 27.5 9.13261 27.5 9V8.5C28.0304 8.5 28.5391 8.28929 28.9142 7.91421C29.2893 7.53914 29.5 7.03043 29.5 6.5C29.5 5.96957 29.2893 5.46086 28.9142 5.08579C28.5391 4.71071 28.0304 4.5 27.5 4.5H26.5C26.2348 4.5 25.9804 4.39464 25.7929 4.20711C25.6054 4.01957 25.5 3.76522 25.5 3.5C25.5 3.23478 25.6054 2.98043 25.7929 2.79289C25.9804 2.60536 26.2348 2.5 26.5 2.5H27.5C27.7652 2.5 28.0196 2.60536 28.2071 2.79289C28.3946 2.98043 28.5 3.23478 28.5 3.5C28.5 3.63261 28.5527 3.75979 28.6464 3.85355C28.7402 3.94732 28.8674 4 29 4C29.1326 4 29.2598 3.94732 29.3536 3.85355C29.4473 3.75979 29.5 3.63261 29.5 3.5C29.5 2.96957 29.2893 2.46086 28.9142 2.08579C28.5391 1.71071 28.0304 1.5 27.5 1.5V1C27.5 0.867392 27.4473 0.740215 27.3536 0.646447C27.2598 0.552679 27.1326 0.5 27 0.5C26.8674 0.5 26.7402 0.552679 26.6464 0.646447C26.5527 0.740215 26.5 0.867392 26.5 1V1.5C25.9696 1.5 25.4609 1.71071 25.0858 2.08579C24.7107 2.46086 24.5 2.96957 24.5 3.5C24.5 4.03043 24.7107 4.53914 25.0858 4.91421C25.4609 5.28929 25.9696 5.5 26.5 5.5H27.5C27.7652 5.5 28.0196 5.60536 28.2071 5.79289C28.3946 5.98043 28.5 6.23478 28.5 6.5C28.5 6.76522 28.3946 7.01957 28.2071 7.20711C28.0196 7.39464 27.7652 7.5 27.5 7.5ZM31.309 15C31.6172 14.734 31.8365 14.38 31.9373 13.9857C32.0382 13.5913 32.0159 13.1755 31.8733 12.7942C31.7307 12.4129 31.4747 12.0845 31.1398 11.8531C30.8048 11.6217 30.4071 11.4985 30 11.5H24C23.5929 11.4985 23.1952 11.6217 22.8602 11.8531C22.5253 12.0845 22.2693 12.4129 22.1267 12.7942C21.9841 13.1755 21.9618 13.5913 22.0627 13.9857C22.1635 14.38 22.3828 14.734 22.691 15C22.4742 15.1852 22.3002 15.4152 22.1808 15.6742C22.0615 15.9331 21.9997 16.2149 21.9997 16.5C21.9997 16.7851 22.0615 17.0669 22.1808 17.3258C22.3002 17.5848 22.4742 17.8148 22.691 18C22.4742 18.1852 22.3002 18.4152 22.1808 18.6742C22.0615 18.9331 21.9997 19.2149 21.9997 19.5C21.9997 19.7851 22.0615 20.0669 22.1808 20.3258C22.3002 20.5848 22.4742 20.8148 22.691 21C22.4742 21.1852 22.3002 21.4152 22.1808 21.6742C22.0615 21.9331 21.9997 22.2149 21.9997 22.5C21.9997 22.7851 22.0615 23.0669 22.1808 23.3258C22.3002 23.5848 22.4742 23.8148 22.691 24C22.3828 24.266 22.1635 24.62 22.0627 25.0143C21.9618 25.4087 21.9841 25.8245 22.1267 26.2058C22.2693 26.5871 22.5253 26.9155 22.8602 27.1469C23.1952 27.3783 23.5929 27.5015 24 27.5H30C30.4071 27.5015 30.8048 27.3783 31.1398 27.1469C31.4747 26.9155 31.7307 26.5871 31.8733 26.2058C32.0159 25.8245 32.0382 25.4087 31.9373 25.0143C31.8365 24.62 31.6172 24.266 31.309 24C31.5258 23.8148 31.6998 23.5848 31.8192 23.3258C31.9385 23.0669 32.0003 22.7851 32.0003 22.5C32.0003 22.2149 31.9385 21.9331 31.8192 21.6742C31.6998 21.4152 31.5258 21.1852 31.309 21C31.5258 20.8148 31.6998 20.5848 31.8192 20.3258C31.9385 20.0669 32.0003 19.7851 32.0003 19.5C32.0003 19.2149 31.9385 18.9331 31.8192 18.6742C31.6998 18.4152 31.5258 18.1852 31.309 18C31.5258 17.8148 31.6998 17.5848 31.8192 17.3258C31.9385 17.0669 32.0003 16.7851 32.0003 16.5C32.0003 16.2149 31.9385 15.9331 31.8192 15.6742C31.6998 15.4152 31.5258 15.1852 31.309 15ZM30 26.5H24C23.7348 26.5 23.4804 26.3946 23.2929 26.2071C23.1054 26.0196 23 25.7652 23 25.5C23 25.2348 23.1054 24.9804 23.2929 24.7929C23.4804 24.6054 23.7348 24.5 24 24.5H30C30.2652 24.5 30.5196 24.6054 30.7071 24.7929C30.8946 24.9804 31 25.2348 31 25.5C31 25.7652 30.8946 26.0196 30.7071 26.2071C30.5196 26.3946 30.2652 26.5 30 26.5ZM30 23.5H24C23.7348 23.5 23.4804 23.3946 23.2929 23.2071C23.1054 23.0196 23 22.7652 23 22.5C23 22.2348 23.1054 21.9804 23.2929 21.7929C23.4804 21.6054 23.7348 21.5 24 21.5H30C30.2652 21.5 30.5196 21.6054 30.7071 21.7929C30.8946 21.9804 31 22.2348 31 22.5C31 22.7652 30.8946 23.0196 30.7071 23.2071C30.5196 23.3946 30.2652 23.5 30 23.5ZM30 20.5H24C23.7348 20.5 23.4804 20.3946 23.2929 20.2071C23.1054 20.0196 23 19.7652 23 19.5C23 19.2348 23.1054 18.9804 23.2929 18.7929C23.4804 18.6054 23.7348 18.5 24 18.5H30C30.2652 18.5 30.5196 18.6054 30.7071 18.7929C30.8946 18.9804 31 19.2348 31 19.5C31 19.7652 30.8946 20.0196 30.7071 20.2071C30.5196 20.3946 30.2652 20.5 30 20.5ZM30 17.5H24C23.7348 17.5 23.4804 17.3946 23.2929 17.2071C23.1054 17.0196 23 16.7652 23 16.5C23 16.2348 23.1054 15.9804 23.2929 15.7929C23.4804 15.6054 23.7348 15.5 24 15.5H30C30.2652 15.5 30.5196 15.6054 30.7071 15.7929C30.8946 15.9804 31 16.2348 31 16.5C31 16.7652 30.8946 17.0196 30.7071 17.2071C30.5196 17.3946 30.2652 17.5 30 17.5ZM30 14.5H24C23.7348 14.5 23.4804 14.3946 23.2929 14.2071C23.1054 14.0196 23 13.7652 23 13.5C23 13.2348 23.1054 12.9804 23.2929 12.7929C23.4804 12.6054 23.7348 12.5 24 12.5H30C30.2652 12.5 30.5196 12.6054 30.7071 12.7929C30.8946 12.9804 31 13.2348 31 13.5C31 13.7652 30.8946 14.0196 30.7071 14.2071C30.5196 14.3946 30.2652 14.5 30 14.5ZM8 17.5H2C1.59293 17.4985 1.19516 17.6217 0.860246 17.8531C0.525329 18.0845 0.269341 18.4129 0.126742 18.7942C-0.0158567 19.1755 -0.0382197 19.5913 0.0626633 19.9857C0.163546 20.38 0.382832 20.734 0.691001 21C0.474229 21.1852 0.300177 21.4152 0.180834 21.6742C0.0614907 21.9331 -0.00030899 22.2149 -0.00030899 22.5C-0.00030899 22.7851 0.0614907 23.0669 0.180834 23.3258C0.300177 23.5848 0.474229 23.8148 0.691001 24C0.382832 24.266 0.163546 24.62 0.0626633 25.0143C-0.0382197 25.4087 -0.0158567 25.8245 0.126742 26.2058C0.269341 26.5871 0.525329 26.9155 0.860246 27.1469C1.19516 27.3783 1.59293 27.5015 2 27.5H8C8.40707 27.5015 8.80484 27.3783 9.13976 27.1469C9.47467 26.9155 9.73066 26.5871 9.87326 26.2058C10.0159 25.8245 10.0382 25.4087 9.93734 25.0143C9.83646 24.62 9.61717 24.266 9.309 24C9.52577 23.8148 9.69982 23.5848 9.81917 23.3258C9.93851 23.0669 10.0003 22.7851 10.0003 22.5C10.0003 22.2149 9.93851 21.9331 9.81917 21.6742C9.69982 21.4152 9.52577 21.1852 9.309 21C9.61717 20.734 9.83646 20.38 9.93734 19.9857C10.0382 19.5913 10.0159 19.1755 9.87326 18.7942C9.73066 18.4129 9.47467 18.0845 9.13976 17.8531C8.80484 17.6217 8.40707 17.4985 8 17.5ZM8 26.5H2C1.73478 26.5 1.48043 26.3946 1.29289 26.2071C1.10536 26.0196 1 25.7652 1 25.5C1 25.2348 1.10536 24.9804 1.29289 24.7929C1.48043 24.6054 1.73478 24.5 2 24.5H8C8.26522 24.5 8.51957 24.6054 8.70711 24.7929C8.89464 24.9804 9 25.2348 9 25.5C9 25.7652 8.89464 26.0196 8.70711 26.2071C8.51957 26.3946 8.26522 26.5 8 26.5ZM8 23.5H2C1.73478 23.5 1.48043 23.3946 1.29289 23.2071C1.10536 23.0196 1 22.7652 1 22.5C1 22.2348 1.10536 21.9804 1.29289 21.7929C1.48043 21.6054 1.73478 21.5 2 21.5H8C8.26522 21.5 8.51957 21.6054 8.70711 21.7929C8.89464 21.9804 9 22.2348 9 22.5C9 22.7652 8.89464 23.0196 8.70711 23.2071C8.51957 23.3946 8.26522 23.5 8 23.5ZM8 20.5H2C1.73478 20.5 1.48043 20.3946 1.29289 20.2071C1.10536 20.0196 1 19.7652 1 19.5C1 19.2348 1.10536 18.9804 1.29289 18.7929C1.48043 18.6054 1.73478 18.5 2 18.5H8C8.26522 18.5 8.51957 18.6054 8.70711 18.7929C8.89464 18.9804 9 19.2348 9 19.5C9 19.7652 8.89464 20.0196 8.70711 20.2071C8.51957 20.3946 8.26522 20.5 8 20.5Z" fill="#2E384D"/>
</g>
<defs>
<clipPath id="clip0_450_2089">
<rect width="32.0006" height="27" fill="white" transform="translate(-0.00030899 0.5)"/>
</clipPath>
</defs>
</svg>
