<svg width="228" height="199" viewBox="0 0 228 199" fill="none" xmlns="http://www.w3.org/2000/svg">
<g clip-path="url(#clip0_593_1139)">
<path d="M115.548 49.5168H32.0557C26.6229 49.5168 22.2187 53.7564 22.2187 58.9862V138.335C22.2187 143.565 26.6229 147.804 32.0557 147.804H115.548C120.981 147.804 125.385 143.565 125.385 138.335V58.9862C125.385 53.7564 120.981 49.5168 115.548 49.5168Z" fill="#F2F2F2"/>
<path d="M49.5888 51.4641C42.8664 51.4641 36.4192 54.0348 31.6657 58.6106C26.9122 63.1865 24.2417 69.3927 24.2417 75.8639V138.335C24.2417 139.323 24.4438 140.301 24.8365 141.213C25.2292 142.126 25.8048 142.955 26.5304 143.654C27.256 144.352 28.1174 144.906 29.0655 145.284C30.0135 145.662 31.0296 145.857 32.0557 145.857H85.3427C95.4261 145.857 105.097 142.001 112.227 135.137C119.357 128.274 123.362 118.965 123.362 109.258V58.9861C123.362 56.9911 122.539 55.0779 121.074 53.6673C119.608 52.2566 117.621 51.4641 115.548 51.4641H49.5888Z" fill="white"/>
<path d="M216.165 17.077H7.7097C7.61215 17.077 7.51859 17.0397 7.44961 16.9733C7.38063 16.9069 7.34188 16.8169 7.34188 16.723C7.34188 16.6291 7.38063 16.539 7.44961 16.4726C7.51859 16.4062 7.61215 16.3689 7.7097 16.3689H216.165C216.262 16.3689 216.356 16.4062 216.425 16.4726C216.494 16.539 216.532 16.6291 216.532 16.723C216.532 16.8169 216.494 16.9069 216.425 16.9733C216.356 17.0397 216.262 17.077 216.165 17.077Z" fill="#E6E6E6"/>
<path d="M18.1392 6.44766C19.8571 6.44766 21.2497 5.07721 21.2497 3.38667C21.2497 1.69613 19.8571 0.325684 18.1392 0.325684C16.4213 0.325684 15.0287 1.69613 15.0287 3.38667C15.0287 5.07721 16.4213 6.44766 18.1392 6.44766Z" fill="#E6E6E6"/>
<path d="M28.8846 6.44766C30.6025 6.44766 31.9951 5.07721 31.9951 3.38667C31.9951 1.69613 30.6025 0.325684 28.8846 0.325684C27.1667 0.325684 25.7741 1.69613 25.7741 3.38667C25.7741 5.07721 27.1667 6.44766 28.8846 6.44766Z" fill="#E6E6E6"/>
<path d="M39.63 6.44766C41.3479 6.44766 42.7405 5.07721 42.7405 3.38667C42.7405 1.69613 41.3479 0.325684 39.63 0.325684C37.9121 0.325684 36.5195 1.69613 36.5195 3.38667C36.5195 5.07721 37.9121 6.44766 39.63 6.44766Z" fill="#E6E6E6"/>
<path d="M51.8826 5.8059C51.8336 5.80597 51.7851 5.79657 51.7399 5.77828C51.6948 5.75999 51.6539 5.73317 51.6196 5.69941L49.5208 3.63409C49.4536 3.56796 49.4159 3.47908 49.4159 3.38653C49.4159 3.29397 49.4536 3.20509 49.5208 3.13895L51.6196 1.07381C51.6533 1.04005 51.6936 1.01303 51.7381 0.994339C51.7827 0.975643 51.8306 0.965634 51.8792 0.964889C51.9278 0.964144 51.9761 0.97268 52.0213 0.990001C52.0664 1.00732 52.1075 1.03308 52.1423 1.0658C52.177 1.09852 52.2047 1.13754 52.2237 1.18061C52.2427 1.22368 52.2526 1.26994 52.2529 1.31673C52.2532 1.36352 52.2439 1.4099 52.2254 1.45319C52.207 1.49649 52.1798 1.53583 52.1455 1.56896L50.2983 3.38652L52.1455 5.20426C52.1961 5.25408 52.2304 5.31718 52.2439 5.38564C52.2574 5.45411 52.2497 5.5249 52.2216 5.58914C52.1935 5.65338 52.1464 5.70821 52.0861 5.74677C52.0258 5.78533 51.955 5.8059 51.8826 5.8059Z" fill="#E6E6E6"/>
<path d="M55.4094 5.8059C55.337 5.8059 55.2662 5.78533 55.2059 5.74677C55.1456 5.70821 55.0984 5.65337 55.0704 5.58913C55.0423 5.52489 55.0345 5.4541 55.0481 5.38564C55.0616 5.31717 55.0958 5.25408 55.1464 5.20426L56.9934 3.38652L55.1464 1.56896C55.1121 1.53583 55.085 1.49648 55.0665 1.45319C55.0481 1.40989 55.0388 1.36351 55.0391 1.31673C55.0394 1.26994 55.0493 1.22367 55.0683 1.1806C55.0873 1.13753 55.1149 1.09851 55.1497 1.0658C55.1844 1.03308 55.2256 1.00732 55.2707 0.989995C55.3159 0.972675 55.3641 0.964144 55.4127 0.964889C55.4613 0.965634 55.5093 0.975643 55.5539 0.994339C55.5984 1.01303 55.6387 1.04004 55.6723 1.07381L57.7709 3.13895C57.8382 3.20509 57.8759 3.29396 57.8759 3.38652C57.8759 3.47908 57.8382 3.56795 57.7709 3.63409L55.6723 5.6994C55.6381 5.73317 55.5972 5.75999 55.552 5.77828C55.5069 5.79657 55.4584 5.80597 55.4094 5.8059Z" fill="#E6E6E6"/>
<path d="M197.575 0.679932H193.673C193.567 0.679901 193.462 0.69994 193.365 0.738897C193.267 0.777855 193.178 0.834971 193.103 0.906982C193.028 0.978992 192.969 1.06448 192.929 1.15858C192.888 1.25267 192.867 1.35351 192.867 1.45535V5.21561C192.867 5.31745 192.888 5.41829 192.929 5.51238C192.969 5.60648 193.028 5.69197 193.103 5.76398C193.178 5.83599 193.267 5.89311 193.365 5.93207C193.462 5.97103 193.567 5.99106 193.673 5.99103H197.575C197.789 5.99123 197.995 5.90971 198.147 5.76435C198.298 5.61899 198.384 5.42165 198.385 5.21561V1.45535C198.384 1.24931 198.298 1.05198 198.147 0.906614C197.995 0.761253 197.789 0.679734 197.575 0.679932Z" fill="#E6E6E6"/>
<path d="M188.012 0.679932H184.11C184.004 0.679901 183.899 0.69994 183.801 0.738897C183.704 0.777855 183.615 0.834971 183.54 0.906982C183.465 0.978992 183.406 1.06448 183.365 1.15858C183.325 1.25267 183.304 1.35351 183.304 1.45535V5.21561C183.304 5.31745 183.325 5.41829 183.365 5.51238C183.406 5.60648 183.465 5.69197 183.54 5.76398C183.615 5.83599 183.704 5.89311 183.801 5.93207C183.899 5.97103 184.004 5.99106 184.11 5.99103H188.012C188.226 5.99123 188.432 5.90971 188.583 5.76435C188.735 5.61899 188.821 5.42165 188.821 5.21561V1.45535C188.821 1.24931 188.735 1.05198 188.583 0.906614C188.432 0.761253 188.226 0.679734 188.012 0.679932Z" fill="#E6E6E6"/>
<path d="M206.587 0.856934H202.684C202.579 0.856903 202.474 0.876942 202.376 0.915899C202.278 0.954857 202.19 1.01197 202.115 1.08398C202.04 1.15599 201.981 1.24149 201.94 1.33558C201.9 1.42967 201.879 1.53052 201.879 1.63235V5.39261C201.879 5.49445 201.9 5.59529 201.94 5.68939C201.981 5.78348 202.04 5.86898 202.115 5.94099C202.19 6.013 202.278 6.07011 202.376 6.10907C202.474 6.14803 202.579 6.16806 202.684 6.16803H206.587C206.801 6.16823 207.006 6.08671 207.158 5.94135C207.31 5.79599 207.395 5.59865 207.396 5.39261V1.63235C207.395 1.42632 207.31 1.22898 207.158 1.08362C207.006 0.938255 206.801 0.856736 206.587 0.856934Z" fill="#E6E6E6"/>
<path d="M128.324 6.37332H102.944C102.066 6.37332 101.224 6.03758 100.604 5.43997C99.9827 4.84235 99.6339 4.03181 99.6339 3.18666C99.6339 2.3415 99.9827 1.53097 100.604 0.933353C101.224 0.335739 102.066 0 102.944 0H128.324C129.202 0 130.044 0.335739 130.665 0.933353C131.286 1.53097 131.634 2.3415 131.634 3.18666C131.634 4.03181 131.286 4.84235 130.665 5.43997C130.044 6.03758 129.202 6.37332 128.324 6.37332Z" fill="#E6E6E6"/>
<path d="M86.5363 112.383H29.8947C29.5707 112.383 29.26 112.259 29.0309 112.038C28.8019 111.818 28.6732 111.519 28.6732 111.207C28.6732 110.895 28.8019 110.596 29.0309 110.375C29.26 110.155 29.5707 110.031 29.8947 110.031H86.5363C86.8602 110.031 87.1709 110.155 87.4 110.375C87.6291 110.596 87.7578 110.895 87.7578 111.207C87.7578 111.519 87.6291 111.818 87.4 112.038C87.1709 112.259 86.8602 112.383 86.5363 112.383Z" fill="#F2F2F2"/>
<path d="M86.536 78.8438H1.22143C1.06085 78.8441 0.901783 78.8139 0.753342 78.7549C0.6049 78.696 0.469997 78.6094 0.356348 78.5002C0.242698 78.391 0.152541 78.2613 0.091023 78.1185C0.0295053 77.9757 -0.00216675 77.8226 -0.00216675 77.668C-0.00216675 77.5134 0.0295053 77.3604 0.091023 77.2176C0.152541 77.0748 0.242698 76.9451 0.356348 76.8359C0.469997 76.7267 0.6049 76.6401 0.753342 76.5811C0.901783 76.5221 1.06085 76.4919 1.22143 76.4922H86.536C86.8596 76.4927 87.1698 76.6169 87.3984 76.8373C87.627 77.0578 87.7554 77.3565 87.7554 77.668C87.7554 77.9795 87.627 78.2783 87.3984 78.4987C87.1698 78.7192 86.8596 78.8433 86.536 78.8438Z" fill="#F2F2F2"/>
<path d="M86.5379 87.2402H1.21968C0.895843 87.2408 0.585464 87.365 0.356673 87.5856C0.127882 87.8062 -0.000617981 88.1052 -0.000617981 88.417C-0.000617981 88.7287 0.127882 89.0277 0.356673 89.2483C0.585464 89.469 0.895843 89.5932 1.21968 89.5937H86.5379C86.8617 89.5932 87.1721 89.469 87.4009 89.2483C87.6297 89.0277 87.7582 88.7287 87.7582 88.417C87.7582 88.1052 87.6297 87.8062 87.4009 87.5856C87.1721 87.365 86.8617 87.2408 86.5379 87.2402Z" fill="#F2F2F2"/>
<path d="M86.5364 100.344H1.2218C0.897844 100.344 0.587155 100.22 0.358083 99.9992C0.129011 99.7787 0.000320435 99.4796 0.000320435 99.1678C0.000320435 98.8559 0.129011 98.5568 0.358083 98.3363C0.587155 98.1158 0.897844 97.9919 1.2218 97.9919H86.5364C86.8604 97.9919 87.1711 98.1158 87.4001 98.3363C87.6292 98.5568 87.7579 98.8559 87.7579 99.1678C87.7579 99.4796 87.6292 99.7787 87.4001 99.9992C87.1711 100.22 86.8604 100.344 86.5364 100.344Z" fill="#F2F2F2"/>
<path d="M158.377 194.285L154.46 194.285L152.597 179.742L158.377 179.742L158.377 194.285Z" fill="#A0616A"/>
<path d="M158.514 198.218L146.47 198.218V198.071C146.47 196.874 146.964 195.726 147.843 194.88C148.722 194.034 149.915 193.558 151.158 193.558L153.358 191.952L157.463 193.559L158.515 193.559L158.514 198.218Z" fill="#2F2E41"/>
<path d="M197.786 194.285L193.869 194.285L192.006 179.742L197.787 179.742L197.786 194.285Z" fill="#A0616A"/>
<path d="M197.924 198.218L185.88 198.218V198.071C185.88 196.874 186.374 195.726 187.253 194.88C188.132 194.034 189.324 193.558 190.568 193.558L192.768 191.952L196.873 193.559L197.924 193.559L197.924 198.218Z" fill="#2F2E41"/>
<path d="M161.572 110.736C161.572 110.736 159 113.364 158.891 115.069C158.783 116.773 160.123 113.677 158.783 116.773C157.442 119.87 157.442 117.806 157.442 119.87C157.442 121.935 154.602 123.951 154.602 123.951L149.918 142.502L152.617 185.937H158.515C163.996 169.853 166.546 157.433 163.608 151.871L171.799 134.346C171.799 134.346 187.276 180.967 187.909 181.517C188.541 182.066 188.541 181.292 188.541 182.066C188.541 182.84 187.737 182.066 188.541 182.84L192.294 186.453L197.924 185.937C197.924 185.937 198.678 152.183 192.403 146.35C192.403 146.35 193.852 128.285 192.403 128.336C190.954 128.387 190.954 130.709 190.954 128.387C190.954 126.064 192.671 125.444 192.671 125.444L187.845 109.13L161.572 110.736Z" fill="#2F2E41"/>
<path d="M191.962 74.7749L186.511 96.7452L187.799 104.917L189.344 114.707L184.003 114.374L175.738 113.858L160.392 112.902L159.05 69.5453L166.09 62.4638L167.348 59.0258L177.525 58.9656L179.96 63.0941L186.221 64.8078C187.025 65.2993 187.781 65.8611 188.479 66.4861C190.024 67.8634 191.392 69.6126 192.032 71.4042C192.225 71.9263 192.348 72.4701 192.396 73.0223L191.962 74.7749Z" fill="#E6E6E6"/>
<path d="M144.588 130.519C144.998 130.301 145.354 130 145.631 129.636C145.909 129.272 146.1 128.855 146.194 128.413C146.287 127.971 146.279 127.515 146.171 127.076C146.063 126.637 145.858 126.226 145.568 125.871L153.332 112.265L149.95 109.273L140.852 125.497C140.268 126.011 139.9 126.712 139.817 127.469C139.734 128.227 139.943 128.987 140.403 129.606C140.864 130.225 141.544 130.66 142.315 130.828C143.087 130.996 143.895 130.886 144.588 130.519Z" fill="#E6E6E6"/>
<path d="M163.523 66.8945L161.714 98.1007L152.995 117.712L147.321 124.956L147.966 121.673L144.054 119.789L143.687 119.614L151.196 91.5611L151.888 80.6601C152.007 78.7842 152.53 76.9525 153.422 75.2809C154.315 73.6093 155.558 72.1342 157.073 70.9489L161.416 67.5526L163.523 66.8945Z" fill="#E6E6E6"/>
<path d="M144.588 130.519C144.998 130.301 145.354 130 145.631 129.636C145.909 129.272 146.1 128.855 146.194 128.413C146.287 127.971 146.279 127.515 146.171 127.076C146.063 126.637 145.858 126.226 145.568 125.871L153.332 112.265L149.95 109.273L140.852 125.497C140.268 126.011 139.9 126.712 139.817 127.469C139.734 128.227 139.943 128.987 140.403 129.606C140.864 130.225 141.544 130.66 142.315 130.828C143.087 130.996 143.895 130.886 144.588 130.519Z" fill="#A0616A"/>
<path d="M163.523 66.8945L161.714 98.1007L152.995 117.712L147.321 124.956L147.966 121.673L144.054 119.789L143.687 119.614L151.196 91.5611L151.888 80.6601C152.007 78.7842 152.53 76.9525 153.422 75.2809C154.315 73.6093 155.558 72.1342 157.073 70.9489L161.416 67.5526L163.523 66.8945Z" fill="#E6E6E6"/>
<path d="M171.926 67.9705H88.4335C83.0007 67.9705 78.5965 72.21 78.5965 77.4398V118.903C78.5965 124.132 83.0007 128.372 88.4335 128.372H171.926C177.359 128.372 181.763 124.132 181.763 118.903V77.4398C181.763 72.21 177.359 67.9705 171.926 67.9705Z" fill="white"/>
<path d="M171.926 128.726H88.4336C85.7281 128.723 83.1342 127.687 81.2211 125.845C79.308 124.004 78.2318 121.507 78.2288 118.903V77.4397C78.2318 74.8352 79.308 72.3383 81.2211 70.4967C83.1342 68.6551 85.7281 67.6192 88.4336 67.6162H171.926C174.632 67.6192 177.226 68.6551 179.139 70.4968C181.052 72.3384 182.128 74.8353 182.131 77.4397V118.903C182.128 121.507 181.052 124.004 179.139 125.845C177.226 127.687 174.632 128.723 171.926 128.726ZM88.4336 68.3244C85.9222 68.3244 83.5137 69.2847 81.7379 70.9942C79.962 72.7036 78.9644 75.0221 78.9644 77.4397V92.9373C78.9644 102.241 82.8039 111.164 89.6382 117.743C96.4725 124.322 105.742 128.018 115.407 128.018H171.926C174.438 128.018 176.846 127.057 178.622 125.348C180.398 123.639 181.395 121.32 181.395 118.903V77.4397C181.395 76.2426 181.15 75.0573 180.674 73.9514C180.199 72.8455 179.501 71.8406 178.622 70.9942C177.743 70.1477 176.699 69.4763 175.55 69.0182C174.401 68.5601 173.17 68.3244 171.926 68.3244L88.4336 68.3244Z" fill="#3F3D56"/>
<path d="M110.501 111.98H91.007C90.296 111.98 89.7196 112.535 89.7196 113.219C89.7196 113.904 90.296 114.458 91.007 114.458H110.501C111.212 114.458 111.789 113.904 111.789 113.219C111.789 112.535 111.212 111.98 110.501 111.98Z" fill="#7B9D7C"/>
<path d="M169.353 108.616H155.743C155.032 108.616 154.456 109.171 154.456 109.856V116.583C154.456 117.268 155.032 117.822 155.743 117.822H169.353C170.064 117.822 170.64 117.268 170.64 116.583V109.856C170.64 109.171 170.064 108.616 169.353 108.616Z" fill="#7B9D7C"/>
<path d="M96.3404 91.2669C99.9969 91.2669 102.961 88.4135 102.961 84.8936C102.961 81.3737 99.9969 78.5203 96.3404 78.5203C92.6838 78.5203 89.7196 81.3737 89.7196 84.8936C89.7196 88.4135 92.6838 91.2669 96.3404 91.2669Z" fill="#7B9D7C"/>
<path d="M172.065 57.1408C176.656 57.1408 180.378 53.5579 180.378 49.1381C180.378 44.7184 176.656 41.1355 172.065 41.1355C167.474 41.1355 163.752 44.7184 163.752 49.1381C163.752 53.5579 167.474 57.1408 172.065 57.1408Z" fill="#A0616A"/>
<path d="M178.885 53.2745C178.95 53.7526 178.051 53.8031 177.849 53.3621C177.646 52.9212 177.909 52.4214 178.165 52.0067L178.758 51.0441C178.869 50.8628 178.934 50.6585 178.947 50.4481C178.96 50.2377 178.921 50.0273 178.832 49.8346C178.744 49.6418 178.609 49.4722 178.438 49.3399C178.268 49.2076 178.067 49.1165 177.853 49.074C178.395 47.8992 177.806 46.4328 176.725 45.678C175.644 44.9231 174.035 46.3355 172.724 46.5777C171.412 46.8199 170.362 45.8535 169.166 46.4265L169.884 44.8324L165.908 46.4815L166.832 44.6882C165.828 44.7408 165.401 45.9174 165.201 46.8655C164.988 47.8756 164.429 49.1384 163.288 48.9291C163.018 48.8711 162.77 48.7406 162.573 48.5528C162.376 48.365 162.238 48.1275 162.175 47.8676C161.294 44.5956 163.853 41.0186 167.246 40.4447C167.609 39.4804 168.283 38.6533 169.169 38.0845C170.056 37.5158 171.108 37.2352 172.173 37.284C173.237 37.3328 174.257 37.7083 175.083 38.3556C175.91 39.0029 176.499 39.8879 176.765 40.881L177.878 39.57L178.094 41.4275C178.894 41.3457 179.649 41.889 180.037 42.5665C180.426 43.244 180.242 44.1187 180.615 44.8042C182.287 47.8764 181.734 51.3352 179.153 53.6916" fill="#2F2E41"/>
<path d="M208.043 192.863C208.213 192.87 208.383 192.827 208.527 192.739C208.672 192.651 208.785 192.522 208.851 192.37C208.917 192.218 208.933 192.05 208.896 191.889C208.86 191.728 208.773 191.582 208.647 191.47L208.59 191.251C208.598 191.234 208.605 191.216 208.613 191.199C208.785 190.807 209.074 190.473 209.443 190.239C209.811 190.005 210.244 189.881 210.686 189.882C211.127 189.884 211.559 190.011 211.926 190.248C212.293 190.485 212.579 190.821 212.748 191.214C213.424 192.781 214.285 194.352 214.497 196.01C214.59 196.743 214.551 197.485 214.381 198.205C215.969 194.87 216.794 191.245 216.799 187.576C216.799 186.655 216.746 185.735 216.64 184.82C216.552 184.07 216.43 183.325 216.274 182.586C215.423 178.574 213.595 174.813 210.941 171.613C209.656 170.938 208.617 169.901 207.964 168.64C207.727 168.187 207.56 167.703 207.467 167.204C207.612 167.222 208.014 165.098 207.905 164.967C208.106 164.672 208.468 164.526 208.688 164.238C209.785 162.806 211.297 163.056 212.086 165.002C213.771 165.82 213.788 167.178 212.753 168.485C212.095 169.316 212.005 170.44 211.428 171.329C211.487 171.403 211.549 171.474 211.608 171.547C212.694 172.891 213.64 174.334 214.433 175.855C214.241 174.151 214.471 172.426 215.105 170.824C215.748 169.331 216.954 168.073 218.015 166.782C218.296 166.436 218.677 166.177 219.11 166.038C219.544 165.9 220.01 165.889 220.451 166.006C220.891 166.122 221.285 166.362 221.584 166.695C221.883 167.027 222.072 167.438 222.129 167.874C222.131 167.893 222.133 167.912 222.135 167.931C221.977 168.017 221.823 168.108 221.672 168.204C221.482 168.326 221.335 168.5 221.25 168.704C221.165 168.908 221.146 169.131 221.196 169.346C221.245 169.56 221.36 169.755 221.527 169.905C221.693 170.055 221.903 170.154 222.128 170.187L222.152 170.191C222.095 170.738 221.996 171.28 221.855 171.812C223.216 176.881 220.277 178.727 216.079 178.81C215.987 178.856 215.896 178.901 215.804 178.945C216.601 181.119 217.101 183.384 217.291 185.682C217.399 187.038 217.392 188.4 217.272 189.755L217.279 189.707C217.583 188.2 218.418 186.841 219.643 185.858C221.462 184.42 224.032 183.89 225.994 182.734C226.203 182.605 226.446 182.536 226.693 182.535C226.941 182.535 227.184 182.603 227.393 182.73C227.603 182.858 227.769 183.041 227.874 183.257C227.979 183.474 228.017 183.714 227.985 183.951L227.977 184.001C227.684 184.116 227.399 184.248 227.124 184.397C226.966 184.483 226.812 184.573 226.661 184.669C226.471 184.791 226.324 184.966 226.239 185.17C226.154 185.373 226.135 185.597 226.185 185.811C226.234 186.026 226.349 186.221 226.516 186.371C226.682 186.521 226.892 186.619 227.117 186.653L227.141 186.656C227.157 186.659 227.171 186.661 227.188 186.663C226.688 187.812 225.987 188.87 225.114 189.789C224.263 194.214 220.606 194.634 216.695 193.346H216.692C216.263 195.141 215.641 196.888 214.837 198.56H208.209C208.185 198.489 208.163 198.416 208.142 198.345C208.756 198.382 209.372 198.347 209.976 198.24C209.484 197.659 208.993 197.073 208.501 196.492C208.49 196.482 208.48 196.47 208.47 196.458C208.22 196.161 207.969 195.866 207.719 195.568L207.719 195.568C207.706 194.657 207.815 193.747 208.043 192.863Z" fill="#F2F2F2"/>
<path d="M105.586 198.579C105.586 198.634 105.597 198.689 105.619 198.74C105.641 198.791 105.673 198.838 105.714 198.877C105.754 198.916 105.803 198.947 105.856 198.968C105.909 198.989 105.966 199 106.023 199H227.511C227.627 199 227.738 198.956 227.82 198.877C227.902 198.797 227.948 198.69 227.948 198.579C227.948 198.467 227.902 198.36 227.82 198.281C227.738 198.202 227.627 198.157 227.511 198.157H106.023C105.966 198.157 105.909 198.168 105.856 198.189C105.803 198.21 105.754 198.241 105.714 198.28C105.673 198.319 105.641 198.366 105.619 198.417C105.597 198.468 105.586 198.523 105.586 198.579Z" fill="#CCCCCC"/>
<path d="M175.606 128.626C176.007 128.393 176.352 128.08 176.616 127.707C176.879 127.334 177.056 126.911 177.133 126.466C177.209 126.021 177.185 125.565 177.061 125.13C176.937 124.695 176.716 124.291 176.414 123.947L183.67 110.084L180.18 107.209L171.687 123.735C171.122 124.267 170.78 124.981 170.725 125.741C170.67 126.5 170.907 127.253 171.39 127.856C171.873 128.458 172.569 128.87 173.346 129.012C174.123 129.154 174.927 129.016 175.606 128.626Z" fill="#A0616A"/>
<path d="M192.032 71.4042L192.396 73.0223L191.525 95.6405L187.799 104.917L184.003 114.374L183.536 115.539L178.132 122.971L178.655 119.668L174.675 117.919L174.303 117.759L175.738 113.858L179.037 104.892L180.464 101.012L180.773 89.4654L181.06 78.5493C181.11 76.6707 181.564 74.8224 182.394 73.1214C183.225 71.4204 184.412 69.9037 185.882 68.6672L188.479 66.4861C190.024 67.8634 191.392 69.6125 192.032 71.4042Z" fill="#E6E6E6"/>
<path d="M105.223 127.908L87.9804 127.554C85.8355 127.551 83.7794 126.729 82.263 125.269C80.7466 123.809 79.8937 121.829 79.8913 119.764L79.1557 102.41C81.2729 116.559 89.409 125.533 105.223 127.908Z" fill="#7B9D7C"/>
</g>
<defs>
<clipPath id="clip0_593_1139">
<rect width="228" height="199" fill="white"/>
</clipPath>
</defs>
</svg>
