<svg width="256" height="200" viewBox="0 0 256 200" fill="none" xmlns="http://www.w3.org/2000/svg">
<g clip-path="url(#clip0_23_689)">
<path d="M184.678 36.8509H165.929V6.93091L184.678 12.9149V36.8509Z" fill="#2F2E41"/>
<path d="M188.007 188.764L184.138 188.855L181.981 171.472L187.691 171.337L188.007 188.764Z" fill="#A0616A"/>
<path d="M174.732 196.837C174.732 197.49 175.196 198.02 175.768 198.02H183.448C183.448 198.02 184.204 194.982 187.286 193.675L187.498 198.02H191.46L190.98 191.033C190.98 191.033 192.04 187.294 189.839 185.383C187.638 183.472 189.421 183.738 189.421 183.738L188.555 179.414L182.568 180.118L182.524 186.907L179.618 193.645L175.357 195.75C174.977 195.938 174.732 196.365 174.732 196.837Z" fill="#2F2E41"/>
<path d="M168.176 188.764L164.307 188.855L162.15 171.472L167.86 171.337L168.176 188.764Z" fill="#A0616A"/>
<path d="M154.901 196.837C154.901 197.49 155.365 198.02 155.937 198.02H163.618C163.618 198.02 164.373 194.982 167.455 193.675L167.668 198.02H171.63L171.15 191.033C171.15 191.033 172.209 187.294 170.008 185.383C167.807 183.472 169.59 183.738 169.59 183.738L168.724 179.414L162.737 180.118L162.693 186.907L159.788 193.645L155.526 195.75C155.147 195.938 154.901 196.365 154.901 196.837Z" fill="#2F2E41"/>
<path d="M185.875 69.5635L161.141 84.324L155.556 107.063L158.349 177.276H170.596L173.309 109.656L178.738 177.276H191.178L194.324 101.342C195.19 95.8233 194.506 90.1727 192.349 85.0203L185.875 69.5635Z" fill="#2F2E41"/>
<path d="M180.29 24.4839L169.918 23.686L167.125 29.2711L159.147 31.2658L157.152 55.9997C161.098 66.2516 163.575 76.0485 161.141 84.324L191.46 82.7282L186.398 69.0404C186.398 69.0404 186.274 63.9784 189.067 57.1965C191.859 50.4146 187.471 32.8615 187.471 32.8615L181.088 31.2658L180.29 24.4839Z" fill="#7B9D7C"/>
<path d="M110.451 34.1054C111.461 34.1367 112.394 33.9373 113.128 33.5801L122.731 34.4859L123.028 29.9041L113.255 29.4785C112.545 29.0765 111.626 28.8197 110.616 28.7884C108.308 28.7169 106.401 29.8492 106.356 31.3174C106.31 32.7857 108.144 34.0339 110.451 34.1054Z" fill="#A0616A"/>
<path d="M167.253 48.0929C167.253 48.0929 166.914 33.4965 163.713 31.3057C162.392 30.4022 142.092 30.1969 141.352 30.1203C136.791 29.6476 133.546 27.8369 129.706 27.6384C120.347 27.1547 115.616 29.4257 115.616 29.4257L115.451 34.112L167.253 48.0929Z" fill="#7B9D7C"/>
<path d="M174.22 23.308C178.795 23.308 182.503 19.5999 182.503 15.0258C182.503 10.4517 178.795 6.74365 174.22 6.74365C169.646 6.74365 165.938 10.4517 165.938 15.0258C165.938 19.5999 169.646 23.308 174.22 23.308Z" fill="#A0616A"/>
<path d="M171.708 2.69321C169.927 3.81616 168.622 3.01219 167.35 3.57854C164.864 4.68507 160.667 12.4569 161.045 15.7107C161.581 20.3189 163.275 20.5087 163.224 23.8148C163.143 29.1238 162.721 29.1018 163.809 30.9555C165.018 33.0173 171.867 32.4575 173.139 29.6616C173.389 29.11 170.603 29.3269 167.524 22.0904C165.979 18.4592 166.994 15.1502 167.524 13.7128C167.649 13.3763 167.705 10.9871 167.97 11.2523C170.295 13.5772 171.599 11.8777 173.002 11.6827C175.884 11.2824 178.053 13.6068 178.927 12.7723C179.578 12.1514 178.748 10.5096 179.063 10.3887C179.4 10.2599 180.514 12.061 181.243 13.9981C181.713 15.2474 181.948 15.872 181.924 16.586C181.849 18.7911 181.286 25.0432 180.29 26.8777C178.139 30.8392 180.848 32.3339 182.537 32.0452C183.901 31.8118 189.933 32.7305 190.264 32.0638C190.558 31.4699 189.886 25.3608 189.18 19.6813C188.331 12.8549 184.93 6.58185 179.598 2.23629C179.285 1.98145 179.052 1.8066 178.927 1.73979C178.632 1.58155 175.587 0.00031364 173.343 1.26308C172.517 1.72796 172.651 2.09882 171.708 2.69321Z" fill="#2F2E41"/>
<path d="M68.2504 195.23L63.6552 195.229L61.4692 177.504L68.2513 177.505L68.2504 195.23Z" fill="#FFB6B6"/>
<path d="M52.5065 195.125C52.3635 195.366 52.288 196.144 52.288 196.424C52.288 197.286 52.9862 197.984 53.8476 197.984H68.0785C68.6661 197.984 69.1425 197.507 69.1425 196.92V196.327C69.1425 196.327 69.8465 194.547 68.3971 192.352C68.3971 192.352 66.5957 194.07 63.904 191.379L63.1102 189.941L57.3644 194.143L54.1795 194.535C53.4828 194.621 52.865 194.522 52.5065 195.125Z" fill="#2F2E41"/>
<path d="M87.6247 195.23L83.0294 195.229L80.8434 177.504L87.6256 177.505L87.6247 195.23Z" fill="#FFB6B6"/>
<path d="M71.8808 195.125C71.7377 195.366 71.6622 196.144 71.6622 196.424C71.6622 197.286 72.3605 197.984 73.2219 197.984H87.4528C88.0404 197.984 88.5168 197.507 88.5168 196.92V196.327C88.5168 196.327 89.2208 194.547 87.7714 192.352C87.7714 192.352 85.97 194.07 83.2782 191.379L82.4845 189.941L76.7386 194.143L73.5538 194.535C72.857 194.621 72.2392 194.522 71.8808 195.125Z" fill="#2F2E41"/>
<path d="M88.5359 83.3245L54.8247 82.937L51.3373 105.024L59.862 181.358H71.0381L73.6178 110.255L78.2676 182.715H89.7106L94.9295 100.18L88.5359 83.3245Z" fill="#2F2E41"/>
<path d="M231.453 192.185C232.254 192.235 232.696 191.241 232.09 190.661L232.03 190.422C232.038 190.402 232.046 190.383 232.054 190.364C232.864 188.434 235.607 188.447 236.41 190.38C237.122 192.096 238.029 193.815 238.253 195.629C238.353 196.43 238.308 197.246 238.13 198.032C239.799 194.385 240.678 190.403 240.678 186.399C240.678 185.393 240.623 184.387 240.51 183.383C240.418 182.562 240.29 181.747 240.125 180.938C239.231 176.568 237.297 172.406 234.506 168.93C233.165 168.197 232.046 167.051 231.37 165.677C231.127 165.181 230.937 164.648 230.847 164.105C231 164.125 231.423 161.8 231.308 161.657C231.52 161.334 231.901 161.174 232.134 160.859C233.289 159.292 234.881 159.566 235.712 161.695C237.488 162.591 237.505 164.077 236.416 165.506C235.723 166.416 235.627 167.646 235.019 168.62C235.082 168.7 235.147 168.777 235.209 168.858C236.357 170.329 237.349 171.911 238.186 173.573C237.949 171.726 238.298 169.501 238.893 168.067C239.571 166.433 240.841 165.056 241.959 163.644C243.302 161.947 246.056 162.687 246.292 164.838C246.295 164.859 246.297 164.88 246.299 164.901C246.133 164.994 245.97 165.094 245.811 165.199C244.905 165.799 245.218 167.204 246.292 167.37L246.316 167.373C246.256 167.972 246.154 168.565 246.004 169.148C247.438 174.695 244.341 176.715 239.92 176.806C239.822 176.856 239.727 176.906 239.629 176.954C240.077 178.215 240.435 179.509 240.7 180.82C240.938 181.979 241.103 183.151 241.196 184.327C241.311 185.811 241.301 187.303 241.176 188.784L241.183 188.732C241.501 187.1 242.387 185.576 243.674 184.52C245.59 182.945 248.297 182.366 250.365 181.1C251.36 180.491 252.635 181.278 252.462 182.432L252.453 182.487C252.145 182.612 251.845 182.758 251.555 182.92C251.389 183.014 251.226 183.114 251.067 183.219C250.16 183.818 250.474 185.223 251.548 185.389L251.572 185.393C251.59 185.395 251.605 185.398 251.622 185.401C251.094 186.654 250.358 187.818 249.437 188.822C248.54 193.664 244.688 194.124 240.568 192.713H240.565C240.115 194.676 239.457 196.593 238.611 198.42H231.628C231.603 198.342 231.58 198.262 231.558 198.184C232.204 198.224 232.854 198.187 233.49 198.069C232.972 197.434 232.454 196.793 231.936 196.157C231.923 196.145 231.913 196.132 231.903 196.12C231.641 195.794 231.375 195.471 231.112 195.146L231.112 195.146C231.096 194.147 231.216 193.151 231.453 192.185Z" fill="#F2F2F2"/>
<path d="M77.1051 25.3955H65.1068L62.7682 30.0453L51.3373 35.2947L55.4059 65.3065L52.3061 85.0683H91.0287L87.5672 62.2066L92.2171 34.6952L79.43 29.6578L77.1051 25.3955Z" fill="#E6E6E6"/>
<path d="M117.267 98.1197C116.744 97.0521 116.505 95.9548 116.532 94.9946L110.905 85.139L115.673 82.5984L120.868 92.8694C121.643 93.4363 122.364 94.2972 122.888 95.3648C124.083 97.8038 123.794 100.398 122.242 101.158C120.69 101.919 118.463 100.559 117.267 98.1197Z" fill="#FFB6B6"/>
<path d="M80.174 33.3724C80.174 33.3724 83.9703 29.4664 88.2289 32.1846C92.4876 34.9027 108.023 62.7179 108.023 62.7179L120.007 86.6305L111.548 90.5713L101.343 67.673L79.9108 44.6093L80.174 33.3724Z" fill="#E6E6E6"/>
<path d="M70.5979 23.1288C76.5815 23.1288 81.4322 18.2781 81.4322 12.2945C81.4322 6.31089 76.5815 1.46021 70.5979 1.46021C64.6142 1.46021 59.7635 6.31089 59.7635 12.2945C59.7635 18.2781 64.6142 23.1288 70.5979 23.1288Z" fill="#FFB6B6"/>
<path d="M67.1977 21.0142C67.2479 22.0756 67.273 22.6063 67.1099 22.6705C66.619 22.8635 60.2981 19.1305 59.5538 16.6456C59.2067 15.4865 59.4998 15.4634 59.2464 12.1661C59.0041 9.01248 58.7324 8.98735 59.0536 8.20712C59.4106 7.33993 60.5009 6.27149 62.6815 4.13459C63.506 3.32662 63.9183 2.92263 64.1785 2.71376C64.9672 2.0807 67.9056 -0.27766 70.5999 0.0270316C71.7293 0.154751 71.5363 0.60566 75.7553 2.89362C76.1187 3.09069 76.606 3.35083 77.2791 3.64951C78.9159 4.37594 79.9313 4.56426 80.4659 4.76684C83.7056 5.99457 82.7549 12.8336 82.4765 12.8728C82.375 12.8871 82.3474 12.0003 81.8158 11.9269C81.3373 11.8609 81.0325 12.5344 80.5976 12.5589C79.4098 12.6258 80.7289 11.4888 77.8218 10.2259C76.6917 9.73499 79.8363 11.9485 76.8428 11.9126C72.1616 11.8564 75.1555 12.1543 73.3777 13.0882C72.0812 13.7692 66.8656 10.0213 67.0775 11.2189C67.227 12.0636 67.8399 12.3068 67.7515 13.2531C67.6659 14.1699 66.9768 15.1581 66.3691 15.1944C65.8089 15.2279 65.5019 14.4418 65.3151 14.517C65.1118 14.5988 65.3351 15.5853 65.7733 16.5987C66.3297 17.8853 66.6618 17.8954 66.9553 18.8849C67.124 19.4541 67.1486 19.9741 67.1977 21.0142Z" fill="#2F2E41"/>
<path d="M152.59 94.9382L82.7811 77.1771C78.3187 76.0417 75.6118 71.4875 76.7472 67.0251L85.4318 32.8911C86.5671 28.4287 91.1214 25.7218 95.5838 26.8572L165.392 44.6183C169.855 45.7537 172.562 50.3079 171.426 54.7704L162.742 88.9043C161.606 93.3668 157.052 96.0736 152.59 94.9382Z" fill="white"/>
<path d="M152.59 94.9384L82.7811 77.1773C80.5499 76.6096 78.7575 75.1872 77.4772 73.3012C75.6144 70.5571 75.1283 67.1022 75.9461 63.888L83.2287 35.2642C84.0465 32.05 86.1246 29.2475 89.0724 27.7274C91.0984 26.6826 93.3526 26.2897 95.5838 26.8574L165.392 44.6185C169.862 45.7557 172.563 50.3009 171.426 54.7706L162.742 88.9045C161.606 93.367 157.052 96.0738 152.59 94.9384ZM95.3927 27.6084C91.3379 26.5768 92.3977 30.2491 91.366 34.3039C86.3327 54.0868 96.7432 74.5394 115.703 82.1033C125.938 86.1864 134.451 89.5239 134.451 89.5239C148.629 93.1311 163.047 84.5619 166.654 70.3839L170.675 54.5795C171.707 50.5246 169.256 46.4012 165.201 45.3696L95.3927 27.6084Z" fill="#3F3D56"/>
<path d="M128.056 54.5069C127.569 50.5079 123.933 47.6604 119.934 48.1469C115.973 48.6287 113.144 52.2011 113.563 56.155L113.447 56.1692L115.209 70.6508L128.535 69.0298C128.956 69.0526 129.384 69.0413 129.817 68.9886C133.816 68.5021 136.664 64.8659 136.177 60.8669C135.691 56.8679 132.055 54.0205 128.056 54.5069Z" fill="#7B9D7C"/>
<path d="M102.513 191.31C101.949 189.856 100.312 189.135 98.8578 189.699C97.4173 190.258 96.6966 191.869 97.2315 193.313L97.1893 193.329L99.2332 198.595L104.079 196.715C104.24 196.683 104.399 196.638 104.557 196.577C106.011 196.012 106.733 194.376 106.168 192.922C105.604 191.467 103.967 190.746 102.513 191.31Z" fill="#E6E6E6"/>
<path d="M211.009 191.31C210.445 189.856 208.808 189.135 207.354 189.699C205.913 190.258 205.193 191.869 205.728 193.313L205.685 193.329L207.729 198.595L212.575 196.715C212.736 196.683 212.895 196.638 213.053 196.577C214.507 196.012 215.229 194.376 214.664 192.922C214.1 191.467 212.463 190.746 211.009 191.31Z" fill="#E6E6E6"/>
<path d="M122.334 96.246C127.47 96.246 131.633 92.0824 131.633 86.9464C131.633 81.8103 127.47 77.6467 122.334 77.6467C117.198 77.6467 113.034 81.8103 113.034 86.9464C113.034 92.0824 117.198 96.246 122.334 96.246Z" fill="#7B9D7C"/>
<path d="M80.0588 49.2312C79.061 49.8776 77.9998 50.2451 77.0432 50.3324L67.9263 57.0914L64.837 52.6591L74.4178 46.28C74.8885 45.4426 75.6576 44.6244 76.6554 43.9779C78.935 42.501 81.5449 42.4798 82.4847 43.9304C83.4245 45.3811 82.3384 47.7543 80.0588 49.2312Z" fill="#FFB6B6"/>
<path d="M58.7055 33.4587C58.7055 33.4587 51.7308 32.6837 50.5683 35.3961C49.4058 38.1085 47.0809 65.2325 47.0809 65.2325L50.9558 71.8197L76.3666 52.588L71.2207 47.442L60.3302 52.588L58.7055 33.4587Z" fill="#E6E6E6"/>
<path d="M159.728 42.2233C160.557 43.0758 161.51 43.6704 162.423 43.9685L169.806 52.5881L173.804 48.9551L165.885 40.6026C165.613 39.6814 165.045 38.7124 164.216 37.8599C162.323 35.9125 159.783 35.3105 158.544 36.5155C157.305 37.7204 157.835 40.2759 159.728 42.2233Z" fill="#A0616A"/>
<path d="M184.058 31.6025C184.058 31.6025 191.03 32.4003 191.559 35.3035C192.089 38.2067 188.314 65.1672 188.314 65.1672L183.07 70.7261L162.58 46.3183L168.743 42.4476L178.214 49.8896L184.058 31.6025Z" fill="#7B9D7C"/>
<path d="M90.0485 62.9053C93.2595 62.9053 95.8625 60.3023 95.8625 57.0913C95.8625 53.8804 93.2595 51.2773 90.0485 51.2773C86.8375 51.2773 84.2345 53.8804 84.2345 57.0913C84.2345 60.3023 86.8375 62.9053 90.0485 62.9053Z" fill="#E6E6E6"/>
</g>
<defs>
<clipPath id="clip0_23_689">
<rect width="256" height="199.039" fill="white"/>
</clipPath>
</defs>
</svg>
