<svg width="256" height="199" viewBox="0 0 256 199" fill="none" xmlns="http://www.w3.org/2000/svg">
<g clip-path="url(#clip0_446_1877)">
<path d="M204.371 36.2483C203.041 50.2917 199.253 65.0996 193.311 79.3873C185.963 97.0559 175.924 112.618 164.279 124.392L163.633 123.852C175.222 112.135 185.215 96.6412 192.532 79.0457C199.145 63.1449 203.078 46.5978 203.912 31.2004L204.738 31.3329C204.65 32.9591 204.528 34.5976 204.371 36.2483Z" fill="#F2F2F2"/>
<path d="M209.668 117.809C193.312 142.749 173.468 160.569 153.792 167.985L153.394 167.286C172.934 159.921 192.661 142.192 208.943 117.366L209.668 117.809Z" fill="#F2F2F2"/>
<path d="M203.974 53.733C202.644 67.7763 198.856 82.5842 192.914 96.8719C185.566 114.541 175.527 130.103 163.882 141.877L163.236 141.337C174.825 129.62 184.818 114.126 192.135 96.5303C198.748 80.6295 202.681 64.0824 203.515 48.6851L204.341 48.8176C204.253 50.4437 204.131 52.0822 203.974 53.733Z" fill="#F2F2F2"/>
<path d="M20.3559 89.7863H9.62426C9.39498 89.7868 9.16857 89.7375 8.962 89.6421C8.75544 89.5467 8.57408 89.4078 8.43155 89.2357C8.29073 89.0679 8.19139 88.8718 8.14097 88.662C8.09055 88.4522 8.09036 88.2342 8.14041 88.0243C9.16249 83.7019 9.09828 79.2086 7.95308 74.9147C7.88064 74.632 7.89816 74.3349 8.00337 74.0618C8.10858 73.7887 8.29666 73.5521 8.54342 73.3823C14.0616 69.5785 18.4074 69.6889 21.4601 73.7109C21.5977 73.8943 21.6891 74.1056 21.7272 74.3285C22.5428 79.0282 22.588 83.8212 21.861 88.5342C21.8104 88.882 21.6301 89.2006 21.3534 89.4308C21.0767 89.661 20.7223 89.7873 20.3559 89.7863Z" fill="#E6E6E6"/>
<path d="M17.0288 79.4862H13.3371C13.133 79.4862 12.9372 79.4085 12.7928 79.2701C12.6485 79.1318 12.5674 78.9441 12.5674 78.7485C12.5674 78.5528 12.6485 78.3652 12.7928 78.2268C12.9372 78.0885 13.133 78.0107 13.3371 78.0107H17.0288C17.2327 78.0112 17.428 78.0891 17.572 78.2274C17.7161 78.3657 17.7969 78.5531 17.7969 78.7485C17.7969 78.9439 17.7161 79.1313 17.572 79.2696C17.428 79.4079 17.2327 79.4858 17.0288 79.4862Z" fill="white"/>
<path d="M17.0288 82.0736H13.3371C13.133 82.0736 12.9372 81.9959 12.7928 81.8575C12.6485 81.7192 12.5674 81.5315 12.5674 81.3359C12.5674 81.1402 12.6485 80.9526 12.7928 80.8142C12.9372 80.6759 13.133 80.5981 13.3371 80.5981H17.0288C17.2327 80.5986 17.428 80.6765 17.572 80.8148C17.7161 80.9531 17.7969 81.1405 17.7969 81.3359C17.7969 81.5313 17.7161 81.7187 17.572 81.857C17.428 81.9953 17.2327 82.0732 17.0288 82.0736Z" fill="white"/>
<path d="M17.0288 84.6607H13.3371C13.133 84.6607 12.9372 84.583 12.7928 84.4447C12.6485 84.3063 12.5674 84.1187 12.5674 83.923C12.5674 83.7274 12.6485 83.5397 12.7928 83.4014C12.9372 83.263 13.133 83.1853 13.3371 83.1853H17.0288C17.2327 83.1857 17.428 83.2636 17.572 83.4019C17.7161 83.5402 17.7969 83.7276 17.7969 83.923C17.7969 84.1184 17.7161 84.3058 17.572 84.4441C17.428 84.5824 17.2327 84.6603 17.0288 84.6607Z" fill="white"/>
<path d="M215.392 135.71H204.66C204.431 135.71 204.205 135.661 203.998 135.566C203.792 135.47 203.61 135.331 203.468 135.159C203.327 134.992 203.227 134.795 203.177 134.586C203.127 134.376 203.126 134.158 203.176 133.948C204.199 129.626 204.134 125.132 202.989 120.838C202.917 120.556 202.934 120.259 203.039 119.985C203.145 119.712 203.333 119.476 203.579 119.306C209.098 115.502 213.443 115.612 216.496 119.635C216.634 119.818 216.725 120.029 216.763 120.252C217.579 124.952 217.624 129.745 216.897 134.458C216.847 134.806 216.666 135.124 216.389 135.354C216.113 135.585 215.758 135.711 215.392 135.71Z" fill="#E6E6E6"/>
<path d="M212.065 125.41H208.373C208.169 125.41 207.974 125.332 207.83 125.193C207.686 125.055 207.605 124.868 207.605 124.672C207.605 124.477 207.686 124.289 207.83 124.151C207.974 124.013 208.169 123.935 208.373 123.935H212.065C212.269 123.935 212.465 124.012 212.609 124.151C212.753 124.289 212.835 124.477 212.835 124.672C212.835 124.868 212.753 125.056 212.609 125.194C212.465 125.332 212.269 125.41 212.065 125.41Z" fill="white"/>
<path d="M212.065 127.997H208.373C208.169 127.997 207.974 127.919 207.83 127.781C207.686 127.642 207.605 127.455 207.605 127.259C207.605 127.064 207.686 126.877 207.83 126.738C207.974 126.6 208.169 126.522 208.373 126.522H212.065C212.269 126.522 212.465 126.599 212.609 126.738C212.753 126.876 212.835 127.064 212.835 127.259C212.835 127.455 212.753 127.643 212.609 127.781C212.465 127.919 212.269 127.997 212.065 127.997Z" fill="white"/>
<path d="M212.065 130.584H208.373C208.169 130.584 207.974 130.506 207.83 130.368C207.686 130.229 207.605 130.042 207.605 129.847C207.605 129.651 207.686 129.464 207.83 129.326C207.974 129.187 208.169 129.109 208.373 129.109H212.065C212.269 129.109 212.465 129.187 212.609 129.325C212.753 129.463 212.835 129.651 212.835 129.847C212.835 130.042 212.753 130.23 212.609 130.368C212.465 130.507 212.269 130.584 212.065 130.584Z" fill="white"/>
<path d="M256 198.615C256 198.666 255.99 198.716 255.97 198.763C255.95 198.809 255.92 198.852 255.883 198.888C255.845 198.923 255.801 198.952 255.752 198.971C255.703 198.99 255.651 199 255.598 199H0.401546C0.295049 199 0.192919 198.959 0.117614 198.887C0.0423101 198.815 0 198.717 0 198.615C0 198.513 0.0423101 198.415 0.117614 198.343C0.192919 198.271 0.295049 198.23 0.401546 198.23H255.598C255.651 198.23 255.704 198.24 255.752 198.259C255.801 198.278 255.845 198.307 255.883 198.343C255.92 198.378 255.95 198.421 255.97 198.468C255.99 198.514 256 198.564 256 198.615Z" fill="#CCCCCC"/>
<path d="M67.319 175.052L66.6497 166.129C62.2653 164.029 57.4121 162.986 52.5117 163.091C59.406 168.198 58.8537 178.406 63.6284 185.393C65.135 187.561 67.1313 189.376 69.4694 190.704C71.8075 192.032 74.4274 192.839 77.1351 193.064L82.8728 196.228C83.5291 192.07 83.2372 187.826 82.0172 183.786C80.7971 179.747 78.6779 176.01 75.8055 172.831C74.1757 171.063 72.3201 169.499 70.2824 168.175C69.0283 171.627 67.319 175.052 67.319 175.052Z" fill="#F2F2F2"/>
<path d="M188.681 176.345L189.35 167.423C193.735 165.322 198.588 164.279 203.488 164.384C196.594 169.492 197.146 179.7 192.372 186.686C190.865 188.854 188.869 190.67 186.531 191.998C184.193 193.326 181.573 194.132 178.865 194.358L173.127 197.522C172.471 193.364 172.763 189.119 173.983 185.08C175.203 181.041 177.322 177.303 180.194 174.125C181.824 172.357 183.68 170.793 185.718 169.469C186.972 172.92 188.681 176.345 188.681 176.345Z" fill="#F2F2F2"/>
<path d="M124.963 75.6583C128.504 75.6583 131.374 72.9072 131.374 69.5136C131.374 66.12 128.504 63.3689 124.963 63.3689C121.422 63.3689 118.552 66.12 118.552 69.5136C118.552 72.9072 121.422 75.6583 124.963 75.6583Z" fill="white"/>
<path d="M128.254 66.9526C128.158 66.8644 128.03 66.8152 127.896 66.8152C127.763 66.8152 127.635 66.8644 127.538 66.9526C126.178 67.9924 124.956 69.1886 123.9 70.5142C123.641 70.0335 123.382 69.5527 123.123 69.072C122.823 68.5172 121.95 69.0073 122.249 69.5617C122.628 70.2648 123.007 70.968 123.386 71.6711C123.432 71.7429 123.496 71.8022 123.573 71.8433C123.649 71.8845 123.735 71.9061 123.823 71.9061C123.911 71.9061 123.997 71.8845 124.074 71.8433C124.15 71.8022 124.214 71.7429 124.26 71.6711C125.385 70.1522 126.73 68.7945 128.254 67.6386C128.348 67.5473 128.401 67.424 128.401 67.2956C128.401 67.1672 128.348 67.0439 128.254 66.9526Z" fill="white"/>
<path d="M96.2762 86.9376L86.6082 72.3858L97.8035 66.6394L100.742 77.7418L121.445 88.4643C122.263 88.1823 123.148 88.1344 123.993 88.3264C124.838 88.5184 125.607 88.9419 126.206 89.5454C126.804 90.1489 127.206 90.9062 127.364 91.725C127.521 92.5439 127.426 93.3888 127.091 94.1569C126.755 94.925 126.194 95.583 125.476 96.0507C124.757 96.5184 123.912 96.7756 123.043 96.7909C122.175 96.8062 121.32 96.5789 120.584 96.1368C119.848 95.6948 119.262 95.057 118.898 94.3012L96.2762 86.9376Z" fill="#A0616A"/>
<path d="M79.5447 54.9323C76.507 59.207 87.3023 74.745 87.3023 74.745C87.8282 73.6585 92.8554 85.8592 93.6974 85.1385C96.0905 83.0901 99.8367 77.3844 101.919 77.13C103.11 76.9846 99.1572 68.8902 99.1572 68.8902C99.1572 68.8902 97.3507 64.1104 94.8994 58.0047C94.2398 56.2663 93.1319 54.716 91.679 53.4982C90.2261 52.2805 88.4754 51.4349 86.5898 51.0401C86.5898 51.0401 82.5825 50.6577 79.5447 54.9323Z" fill="#3F3D56"/>
<path d="M79.6932 194.202L84.2846 194.202L86.4688 177.228L79.6921 177.228L79.6932 194.202Z" fill="#A0616A"/>
<path d="M78.5217 192.765L79.8141 192.765L84.8598 190.799L87.5641 192.765H87.5644C89.0927 192.765 90.5584 193.347 91.639 194.383C92.7197 195.418 93.3268 196.823 93.3269 198.288V198.467L78.522 198.468L78.5217 192.765Z" fill="#2F2E41"/>
<path d="M101.024 194.202L105.616 194.202L107.8 177.228L101.024 177.228L101.024 194.202Z" fill="#A0616A"/>
<path d="M99.8531 192.765L101.145 192.765L106.191 190.799L108.895 192.765H108.896C110.424 192.765 111.89 193.347 112.97 194.383C114.051 195.418 114.658 196.823 114.658 198.288V198.467L99.8534 198.468L99.8531 192.765Z" fill="#2F2E41"/>
<path d="M103.012 101.404L73.1465 102.12C67.4745 105.073 67.3884 111.463 69.2468 119.051C69.2468 119.051 68.6194 123.561 69.8742 124.763C71.129 125.966 71.7564 125.966 71.129 128.071C70.5016 130.175 73.8164 133.613 73.4138 133.998C73.0112 134.384 72.0701 136.489 72.0701 136.489L75.2071 153.626C75.2071 153.626 77.4029 183.391 78.0303 183.993C78.6577 184.594 79.2851 183.993 78.6577 185.496C78.0303 186.999 77.4029 186.398 78.0303 186.999C78.5861 187.573 79.1096 188.176 79.5988 188.803H87.1831C87.1831 188.803 87.7549 185.797 87.7549 185.496C87.7549 185.195 88.3823 183.391 88.3823 183.091C88.3823 182.79 87.8278 182.259 87.8278 182.259C87.6362 181.647 87.5067 181.02 87.4412 180.385C87.4412 179.783 85.559 156.633 85.559 156.633L89.3234 126.567L98.4206 156.032C98.4206 156.032 98.4206 181.888 99.048 182.489C99.6753 183.091 99.6753 182.79 99.3616 183.993C99.0479 185.195 97.7932 184.895 98.7342 185.797C99.6753 186.699 99.989 185.195 99.6753 186.699L99.3617 188.202L108.773 188.331C108.773 188.331 110.027 185.797 109.4 184.895C108.773 183.993 108.81 184.239 109.576 182.763C110.341 181.287 110.655 180.986 110.341 180.685C110.027 180.385 110.027 178.786 110.027 178.786L108.459 150.019C108.459 150.019 108.145 119.652 108.145 118.75C108.121 118.286 108.211 117.823 108.406 117.398V116.173L107.204 111.835L103.012 101.404Z" fill="#2F2E41"/>
<path d="M85.0713 41.8857C90.1961 41.8857 94.3506 37.904 94.3506 32.9922C94.3506 28.0804 90.1961 24.0986 85.0713 24.0986C79.9465 24.0986 75.792 28.0804 75.792 32.9922C75.792 37.904 79.9465 41.8857 85.0713 41.8857Z" fill="#A0616A"/>
<path d="M89.711 47.7639C91.7101 48.903 92.9059 50.9959 93.5924 53.1256C94.8633 57.0685 95.6283 61.145 95.8705 65.2652L96.5956 77.6004L105.576 103.865C97.7929 110.177 68.5392 105.3 68.5392 105.3C68.5392 105.3 67.6412 105.013 68.5392 104.152C69.4372 103.292 70.3114 104.054 69.4134 103.193C68.5154 102.333 69.1344 103.292 69.4338 102.431C69.7331 101.57 69.4338 102.144 69.1344 101.857C68.8351 101.57 71.4517 98.9883 71.4517 98.9883L69.0571 83.9119L66.0638 53.5017C69.6557 49.1984 76.8797 46.6616 76.8797 46.6616L78.7463 43.4414L88.0792 44.157L89.711 47.7639Z" fill="#3F3D56"/>
<path d="M92.7206 28.2673C93.4418 28.7828 93.9761 29.5022 94.2483 30.3241C94.3529 28.9809 94.3596 27.6324 94.2682 26.2884C94.1589 25.3439 93.4651 25.1315 92.6618 24.8853C91.9363 24.6629 91.1158 24.4117 90.8951 23.4948C87.9782 20.7752 82.9005 20.9123 79.4255 21.861C77.5133 22.383 76.4131 23.0537 76.3146 23.4466L76.2942 23.5275L76.2166 23.5647C74.7426 24.2711 74.4557 26.5015 74.4747 28.2482C74.5106 31.5391 75.6961 35.2768 76.364 35.5804C76.3994 35.5965 76.4083 35.5902 76.4236 35.578C77.4293 34.8077 78.6562 35.6365 79.1954 36.0871C79.5135 34.0417 80.5375 32.1575 82.1039 30.7353C83.6703 29.3132 85.6887 28.4351 87.8369 28.2414C88.5384 28.1764 89.2344 28.0646 89.9197 27.9067C90.2673 27.8205 90.6246 27.7756 90.9837 27.7729C91.6017 27.7639 92.2079 27.9364 92.7206 28.2673Z" fill="#2F2E41"/>
<path d="M150.325 108.491L168.175 91.1182L172.878 77.2236L165.31 74.2898C161.561 77.9142 157.702 89.0096 157.702 89.0096L145.519 104.681C145.421 104.716 145.324 104.753 145.229 104.796C144.668 105.05 144.185 105.438 143.826 105.923C143.468 106.408 143.246 106.974 143.182 107.565C143.118 108.156 143.214 108.753 143.461 109.299C143.708 109.844 144.098 110.319 144.593 110.678C145.088 111.036 145.671 111.267 146.285 111.346C146.9 111.426 147.526 111.352 148.102 111.132C148.678 110.913 149.186 110.554 149.575 110.091C149.965 109.629 150.223 109.077 150.325 108.491Z" fill="#FFB8B8"/>
<path d="M163.246 75.8794L172.816 78.5329L172.852 78.5263C176.37 77.8716 179.153 72.2683 180.868 67.683C181.432 66.1706 181.376 64.5093 180.711 63.0349C180.046 61.5606 178.822 60.3833 177.286 59.7409C176.15 59.2743 174.9 59.1218 173.678 59.3004C172.455 59.479 171.31 59.9817 170.37 60.7516L165.598 64.6898L163.246 75.8794Z" fill="white"/>
<path d="M155.057 193.686L149.91 193.686L147.462 174.658L155.058 174.659L155.057 193.686Z" fill="#FFB8B8"/>
<path d="M156.37 192.075L154.922 192.075L149.265 189.871L146.234 192.075H146.233C144.52 192.075 142.877 192.727 141.666 193.888C140.454 195.049 139.774 196.624 139.774 198.266V198.467L156.37 198.468L156.37 192.075Z" fill="#2F2E41"/>
<path d="M177.896 193.686L172.749 193.686L170.3 174.658L177.897 174.659L177.896 193.686Z" fill="#FFB8B8"/>
<path d="M179.209 192.075L177.76 192.075L172.104 189.871L169.072 192.075H169.072C167.359 192.075 165.716 192.727 164.504 193.888C163.293 195.049 162.612 196.624 162.612 198.266V198.467L179.209 198.468L179.209 192.075Z" fill="#2F2E41"/>
<path d="M185.744 111.727C185.744 111.727 186.345 118.639 184.843 125.263C183.34 131.888 183.34 150.544 183.34 150.544L180.035 186.899L170.118 186.035L167.413 125.263L157.797 145.713L158.699 148.593L157.498 149.313C157.498 149.313 158.398 154.929 157.797 154.929C157.196 154.929 155.693 155.793 155.693 155.793L156.896 185.459L146.678 185.171L143.072 143.408L146.979 119.503L147.279 114.895L148.632 114.948L149.32 113.023L150.585 109.711L185.744 111.727Z" fill="#2F2E41"/>
<path d="M186.264 113.179L186.317 113.107C189.178 109.269 184.875 100.046 184.227 98.7087L186.96 97.8587L186.344 92.845L186.053 90.6098L188.141 88.6079L188.147 88.558L189.349 78.4775L191.097 71.7821C191.755 69.251 191.699 66.5976 190.934 64.0941C190.169 61.5907 188.723 59.3275 186.744 57.5368L182.704 53.8861L177.794 46.9236H169.877L167.162 51.8381C164.53 52.4211 162.195 53.8706 160.564 55.934C158.932 57.9975 158.108 60.5441 158.234 63.1303L158.849 76.0197L156.44 92.068L156.439 94.9724L153.728 97.8595L154.32 100.696L152.257 101.543L151.346 105.617C150.969 106.094 148.481 109.274 148.481 110.143C148.481 110.273 148.582 110.399 148.798 110.539C150.493 111.64 159.865 113.883 164.013 112.293C168.432 110.599 185.995 113.139 186.172 113.165L186.264 113.179Z" fill="white"/>
<path d="M172.813 44.676C178.604 44.676 183.298 40.1766 183.298 34.6263C183.298 29.076 178.604 24.5767 172.813 24.5767C167.022 24.5767 162.327 29.076 162.327 34.6263C162.327 40.1766 167.022 44.676 172.813 44.676Z" fill="#FFB8B8"/>
<path d="M171.808 44.8386C173.432 44.8227 175.052 44.6739 176.649 44.3938C178.231 44.0446 181.72 41.4587 182.671 39.931C183.377 38.7959 183.802 37.0403 184.033 35.7674C184.345 34.0829 184.285 32.3542 183.856 30.6934C183.427 29.0326 182.639 27.4766 181.543 26.1263C181.12 25.5606 180.546 25.1148 179.881 24.8362C179.822 24.8159 179.762 24.798 179.701 24.7829C178.736 24.5651 177.862 24.0761 177.19 23.3786C177.059 23.2374 176.919 23.1053 176.768 22.9835C176.014 22.405 175.128 22.0056 174.182 21.8181C172.654 21.4664 170.468 21.9072 167.686 23.1292C166.287 23.7432 164.736 23.572 163.54 23.3541C163.473 23.3434 163.404 23.3497 163.34 23.3724C163.277 23.3951 163.22 23.4334 163.177 23.4835C162.683 23.9513 162.023 24.2227 161.329 24.243C160.904 24.2715 160.473 24.8466 159.954 25.5956C159.836 25.7657 159.699 25.9641 159.599 26.0852L159.579 25.8578L159.345 26.1178C158.978 26.5265 158.725 27.0176 158.609 27.5454C158.493 28.0731 158.518 28.6204 158.683 29.1363C158.847 29.6522 159.145 30.1198 159.548 30.4957C159.952 30.8716 160.448 31.1435 160.991 31.286C161.421 31.3845 161.861 31.4406 162.304 31.4534C162.572 31.4698 162.849 31.4869 163.116 31.5244C163.972 31.6704 164.773 32.0267 165.443 32.5584C166.112 33.0901 166.626 33.779 166.935 34.558C167.008 34.738 167.123 34.8996 167.271 35.0302C167.42 35.1608 167.597 35.257 167.791 35.3114C167.984 35.3658 168.188 35.3768 168.386 35.3437C168.585 35.3106 168.772 35.2343 168.935 35.1205C169.206 34.9074 169.527 34.7603 169.87 34.6916C170.213 34.623 170.568 34.6348 170.905 34.7262C171.198 34.8731 171.43 35.1121 171.561 35.4032C171.719 35.7272 171.975 35.9986 172.295 36.1827C173.387 36.6884 173.525 39.045 173.191 41.0206C172.869 42.9249 172.168 44.3141 171.488 44.3987C170.963 44.4638 170.904 44.5011 170.869 44.5911L170.837 44.6717L170.898 44.7448C171.191 44.8385 171.501 44.8705 171.808 44.8386Z" fill="#2F2E41"/>
<path d="M163.109 76.9541L158.069 70.7991C152.935 72.154 143.826 79.9361 143.826 79.9361L125.118 87.7171C124.493 87.6165 123.852 87.6754 123.259 87.8878C122.666 88.1001 122.142 88.4585 121.739 88.9268C121.336 89.3951 121.07 89.9568 120.965 90.5553C120.861 91.1539 120.923 91.7682 121.146 92.3364C121.368 92.9046 121.743 93.4067 122.232 93.7921C122.721 94.1774 123.307 94.4325 123.932 94.5317C124.556 94.6308 125.197 94.5704 125.79 94.3567C126.382 94.143 126.906 93.7834 127.307 93.3142L151.814 86.7615L163.109 76.9541Z" fill="#FFB8B8"/>
<path d="M161.901 78.3611L169.854 69.8644L170.295 63.8439C170.377 62.6617 170.113 61.481 169.532 60.4352C168.951 59.3895 168.076 58.5204 167.006 57.9262C165.551 57.13 163.834 56.8932 162.203 57.2637C160.573 57.6342 159.15 58.5843 158.222 59.9219C155.412 63.9809 152.389 69.4687 153.945 72.5628L153.96 72.5942L161.901 78.3611Z" fill="white"/>
<path d="M88.6028 110.297L67.9336 100.152C66.4634 99.4301 65.9764 97.5159 66.848 95.8848L80.3248 70.6644C81.1964 69.0333 83.1016 68.2934 84.5718 69.015L105.241 79.1607C106.711 79.8823 107.198 81.7965 106.327 83.4276L92.8499 108.648C91.9782 110.279 90.073 111.019 88.6028 110.297Z" fill="#E6E6E6"/>
<path d="M85.0713 105.633L71.0283 98.7403C69.6514 98.0644 69.1952 96.2717 70.0115 94.7441L81.2078 73.7914C82.0241 72.2638 83.8085 71.5709 85.1854 72.2468L102.146 80.5722C103.523 81.2481 103.979 83.0407 103.163 84.5684L97.0807 95.951C93.4446 102.756 91.2046 108.644 85.0713 105.633Z" fill="white"/>
<path d="M92.0144 94.1911L79.5762 88.0857C79.4241 87.9819 79.3161 87.829 79.2718 87.6551C79.2276 87.4813 79.2501 87.2979 79.3352 87.1386C79.4203 86.9793 79.5624 86.8547 79.7355 86.7875C79.9085 86.7203 80.1011 86.715 80.2779 86.7726L92.7161 92.878C92.8682 92.9818 92.9762 93.1346 93.0205 93.3085C93.0647 93.4824 93.0422 93.6658 92.9571 93.8251C92.872 93.9844 92.7299 94.109 92.5568 94.1762C92.3837 94.2434 92.1912 94.2487 92.0144 94.1911Z" fill="white"/>
<path d="M81.0283 92.0736L78.1898 90.6803C78.0377 90.5764 77.9297 90.4236 77.8854 90.2497C77.8412 90.0758 77.8637 89.8924 77.9488 89.7331C78.0339 89.5738 78.176 89.4492 78.3491 89.382C78.5222 89.3148 78.7147 89.3095 78.8915 89.367L81.7301 90.7603C81.8821 90.8642 81.9902 91.017 82.0344 91.1909C82.0786 91.3648 82.0561 91.5482 81.971 91.7075C81.8859 91.8668 81.7438 91.9914 81.5707 92.0586C81.3977 92.1258 81.2051 92.1312 81.0283 92.0736Z" fill="white"/>
<path d="M84.6693 97.1358L76.8034 93.2747C76.6513 93.1709 76.5433 93.018 76.499 92.8442C76.4548 92.6703 76.4773 92.4869 76.5624 92.3276C76.6475 92.1683 76.7896 92.0437 76.9627 91.9765C77.1358 91.9092 77.3283 91.9039 77.5051 91.9615L85.371 95.8226C85.5231 95.9264 85.6311 96.0793 85.6754 96.2531C85.7196 96.427 85.6971 96.6104 85.612 96.7697C85.5269 96.929 85.3848 97.0536 85.2117 97.1208C85.0386 97.1881 84.8461 97.1934 84.6693 97.1358Z" fill="white"/>
<path d="M96.9365 84.9799L84.4983 78.8745C84.3462 78.7707 84.2381 78.6179 84.1939 78.444C84.1497 78.2701 84.1722 78.0867 84.2573 77.9274C84.3424 77.7681 84.4845 77.6435 84.6576 77.5763C84.8306 77.5091 85.0232 77.5038 85.2 77.5614L97.6382 83.6668C97.7903 83.7706 97.8983 83.9235 97.9426 84.0973C97.9868 84.2712 97.9643 84.4546 97.8792 84.6139C97.7941 84.7732 97.652 84.8978 97.4789 84.965C97.3058 85.0322 97.1133 85.0375 96.9365 84.9799Z" fill="white"/>
<path d="M85.9504 82.8624L83.1119 81.4691C82.9598 81.3652 82.8518 81.2124 82.8075 81.0385C82.7633 80.8646 82.7858 80.6813 82.8709 80.5219C82.9561 80.3626 83.0981 80.238 83.2712 80.1708C83.4443 80.1036 83.6368 80.0983 83.8136 80.1558L86.6522 81.5492C86.8043 81.653 86.9123 81.8059 86.9565 81.9797C87.0008 82.1536 86.9783 82.337 86.8931 82.4963C86.808 82.6556 86.6659 82.7802 86.4929 82.8474C86.3198 82.9147 86.1273 82.92 85.9504 82.8624Z" fill="white"/>
<path d="M89.5914 87.9246L81.7255 84.0636C81.5734 83.9597 81.4654 83.8068 81.4212 83.633C81.3769 83.4591 81.3994 83.2757 81.4845 83.1164C81.5697 82.9571 81.7117 82.8325 81.8848 82.7653C82.0579 82.6981 82.2504 82.6928 82.4273 82.7503L90.2932 86.6114C90.4453 86.7152 90.5533 86.8681 90.5975 87.042C90.6418 87.2159 90.6193 87.3992 90.5341 87.5585C90.449 87.7178 90.3069 87.8425 90.1339 87.9097C89.9608 87.9769 89.7682 87.9822 89.5914 87.9246Z" fill="white"/>
<path d="M71.4751 88.3406L66.8057 71.6797L79.2837 69.4158L78.6127 80.8517L95.0078 97.0316C95.8758 96.9976 96.7353 97.2063 97.4816 97.6324C98.2279 98.0585 98.8287 98.6835 99.2108 99.4312C99.5929 100.179 99.7398 101.017 99.6335 101.843C99.5272 102.67 99.1723 103.449 98.6121 104.085C98.052 104.721 97.3107 105.188 96.4788 105.427C95.6468 105.667 94.7601 105.669 93.9268 105.434C93.0934 105.199 92.3495 104.737 91.7855 104.103C91.2216 103.47 90.8622 102.693 90.751 101.868L71.4751 88.3406Z" fill="#A0616A"/>
<path d="M65.5288 52.9993C61.2933 56.204 66.7296 74.1298 66.7296 74.1298C67.5712 73.2446 68.5493 86.3286 69.5781 85.8831C72.502 84.6169 77.8611 80.2506 79.9272 80.6065C81.1087 80.81 79.8708 71.9521 79.8708 71.9521C79.8708 71.9521 79.6431 66.8731 79.2152 60.3439C79.13 58.4958 78.5582 56.6985 77.5533 55.1191C76.5483 53.5398 75.1427 52.2299 73.4675 51.3112C73.4675 51.3112 69.7643 49.7946 65.5288 52.9993Z" fill="#3F3D56"/>
<path d="M136.004 125.321L124.724 120.216C124.483 120.108 124.271 119.948 124.103 119.75C123.935 119.551 123.817 119.319 123.756 119.07C123.695 118.827 123.692 118.574 123.748 118.329C123.803 118.085 123.916 117.855 124.077 117.659C127.345 113.657 129.588 108.977 130.628 103.994C130.706 103.612 130.921 103.268 131.234 103.021C131.547 102.774 131.94 102.639 132.346 102.638C138.099 102.657 142.398 104.67 145.124 108.621C145.268 108.827 145.363 109.06 145.403 109.304C145.443 109.549 145.427 109.798 145.356 110.036C143.778 115.251 141.376 120.203 138.234 124.721C138.001 125.063 137.646 125.312 137.236 125.422C136.826 125.532 136.388 125.496 136.004 125.321Z" fill="#E6E6E6"/>
<path d="M139.322 118.161L130.697 114.258C130.483 114.161 130.317 113.986 130.237 113.772C130.157 113.558 130.169 113.322 130.27 113.117C130.372 112.911 130.554 112.753 130.777 112.676C131.001 112.599 131.247 112.61 131.461 112.708L140.086 116.611C140.192 116.659 140.287 116.726 140.366 116.81C140.445 116.893 140.506 116.991 140.546 117.097C140.585 117.203 140.603 117.315 140.597 117.428C140.591 117.54 140.563 117.65 140.513 117.752C140.462 117.854 140.392 117.945 140.305 118.021C140.218 118.097 140.116 118.155 140.005 118.193C139.895 118.231 139.778 118.248 139.66 118.242C139.543 118.237 139.428 118.209 139.322 118.161Z" fill="white"/>
<path d="M140.661 115.442L132.037 111.539C131.823 111.442 131.657 111.267 131.577 111.053C131.497 110.839 131.509 110.603 131.61 110.398C131.711 110.192 131.894 110.033 132.117 109.957C132.341 109.88 132.587 109.891 132.801 109.988L141.425 113.891C141.64 113.989 141.805 114.163 141.885 114.377C141.966 114.592 141.954 114.827 141.852 115.033C141.751 115.239 141.569 115.397 141.345 115.474C141.122 115.551 140.876 115.539 140.661 115.442Z" fill="white"/>
<path d="M129.138 30.0816L128.335 30.1659C124.755 16.6849 117.818 7.34546 108.27 3.15699C96.1338 -2.16731 81.1263 1.40806 66.0124 13.2246C50.8217 25.1015 37.374 43.8618 28.1467 66.0506L27.3677 65.7089C36.6356 43.4232 50.1523 24.5723 65.4281 12.6294C80.7805 0.626101 96.0944 -2.97548 108.549 2.48822C118.369 6.79672 125.489 16.3384 129.138 30.0816Z" fill="#F2F2F2"/>
<path d="M40.5702 47.6388C38.4708 51.8775 36.474 56.2689 34.6351 60.6908C24.053 86.137 18.6905 112.124 19.1287 135.845L18.3016 135.76C17.863 111.952 23.2409 85.8747 33.8561 60.3491C35.7003 55.9147 37.7029 51.511 39.8083 47.2603L40.5702 47.6388Z" fill="#F2F2F2"/>
<path d="M40.1732 65.1234C38.0739 69.3621 36.077 73.7535 34.2381 78.1754C23.656 103.622 18.2935 129.609 18.7317 153.329L17.9047 153.245C17.466 129.436 22.844 103.359 33.4592 77.8337C35.3034 73.3994 37.3059 68.9956 39.4113 64.7449L40.1732 65.1234Z" fill="#F2F2F2"/>
<path d="M17.9444 71.4821C18.8587 70.1651 18.3175 68.2797 16.7358 67.2711C15.154 66.2625 13.1306 66.5125 12.2163 67.8296C11.3021 69.1467 11.8432 71.032 13.425 72.0406C15.0067 73.0492 17.0302 72.7992 17.9444 71.4821Z" fill="#CCCCCC"/>
<path d="M212.623 119.045C213.538 117.728 212.997 115.843 211.415 114.834C209.833 113.826 207.81 114.076 206.895 115.393C205.981 116.71 206.522 118.595 208.104 119.604C209.686 120.612 211.709 120.362 212.623 119.045Z" fill="#CCCCCC"/>
</g>
<defs>
<clipPath id="clip0_446_1877">
<rect width="256" height="199" fill="white"/>
</clipPath>
</defs>
</svg>
