<svg width="256" height="171" viewBox="0 0 256 171" fill="none" xmlns="http://www.w3.org/2000/svg">
<g clip-path="url(#clip0_1227_1726)">
<path d="M91.8273 97.9112C100.601 82.4783 117.335 70.6283 135.051 71.7699C121.983 85.9801 114.364 104.354 113.539 123.642C113.249 131.081 113.7 139.386 108.76 144.957C105.687 148.423 100.989 150.102 96.3696 150.454C91.7503 150.806 87.1321 149.971 82.5745 149.14L81.4689 149.48C81.0481 131.733 83.0542 113.344 91.8273 97.9112Z" fill="#F0F0F0"/>
<path d="M135.077 72.1414C121.977 78.4479 110.807 88.9805 103.949 101.826C102.467 104.603 101.205 107.549 100.654 110.664C100.103 113.78 100.488 116.747 101.552 119.707C102.526 122.413 103.834 125.068 104.133 127.964C104.447 131.016 103.324 133.869 101.303 136.134C98.8298 138.905 95.5084 140.622 92.2021 142.188C88.531 143.928 84.6903 145.676 82.0902 148.922C81.7751 149.315 81.1833 148.803 81.4979 148.41C86.0217 142.763 93.7654 141.702 99.1352 137.153C101.641 135.03 103.522 132.139 103.403 128.752C103.299 125.791 101.952 123.051 100.943 120.32C99.8838 117.452 99.3555 114.568 99.7354 111.511C100.124 108.383 101.274 105.381 102.679 102.578C105.847 96.2571 110.184 90.4538 115.151 85.4373C120.86 79.671 127.514 74.9238 134.824 71.4011C135.276 71.1832 135.527 71.925 135.077 72.1414Z" fill="white"/>
<path d="M105.958 97.5328C103.95 96.0643 102.529 93.9298 101.949 91.5104C101.369 89.0909 101.668 86.5442 102.793 84.325C103.022 83.8767 103.729 84.2116 103.5 84.6605C102.449 86.7251 102.17 89.0974 102.715 91.3493C103.259 93.6012 104.591 95.5842 106.469 96.9405C106.877 97.2358 106.363 97.8263 105.958 97.5328Z" fill="white"/>
<path d="M100.878 118.4C105.911 117.665 110.481 115.06 113.678 111.104C113.994 110.712 114.586 111.224 114.27 111.615C110.936 115.725 106.174 118.427 100.936 119.18C100.436 119.252 100.382 118.471 100.878 118.4Z" fill="white"/>
<path d="M121.247 80.6337C121.906 81.3638 122.735 81.9189 123.661 82.2491C124.588 82.5793 125.581 82.6743 126.553 82.5256C127.052 82.4478 127.106 83.2286 126.611 83.3059C125.536 83.4652 124.439 83.359 123.415 82.9964C122.39 82.6339 121.471 82.026 120.736 81.226C120.66 81.1564 120.614 81.0606 120.606 80.9581C120.599 80.8557 120.631 80.7541 120.695 80.6742C120.763 80.5962 120.859 80.5481 120.963 80.5405C121.066 80.5329 121.168 80.5664 121.247 80.6337Z" fill="white"/>
<path d="M170.299 120.455C169.989 120.513 169.68 120.57 169.367 120.633C165.207 121.427 161.119 122.557 157.142 124.013C156.833 124.12 156.521 124.234 156.216 124.35C146.672 127.959 137.882 133.309 130.291 140.127C127.273 142.843 124.466 145.784 121.895 148.926C118.343 153.265 114.838 158.252 110.197 161.081C109.716 161.382 109.217 161.652 108.703 161.891L81.9687 150.802C81.9206 150.747 81.8697 150.697 81.8213 150.641L80.7336 150.247C80.855 150.076 80.9845 149.901 81.1058 149.729C81.1758 149.63 81.2516 149.533 81.3216 149.433C81.3701 149.367 81.419 149.302 81.459 149.24C81.4751 149.218 81.4915 149.196 81.505 149.18C81.5451 149.118 81.5888 149.065 81.6263 149.009C82.3475 148.028 83.0769 147.051 83.8144 146.077C83.8169 146.071 83.8169 146.071 83.8254 146.068C89.4637 138.662 95.7698 131.663 102.938 125.843C103.153 125.668 103.371 125.487 103.599 125.317C106.845 122.711 110.298 120.375 113.924 118.332C115.913 117.22 117.957 116.209 120.049 115.304C125.457 112.975 131.198 111.51 137.061 110.965C148.75 109.88 160.655 112.545 169.62 119.887C169.849 120.075 170.072 120.261 170.299 120.455Z" fill="#F0F0F0"/>
<path d="M170.098 120.77C155.841 117.918 140.581 119.602 127.372 125.73C124.517 127.054 121.735 128.647 119.42 130.803C117.104 132.959 115.625 135.56 114.693 138.564C113.841 141.31 113.287 144.218 111.782 146.71C110.196 149.336 107.581 150.938 104.603 151.53C100.96 152.253 97.2746 151.624 93.6917 150.884C89.7135 150.063 85.5944 149.146 81.5641 150.172C81.0758 150.297 80.9114 149.532 81.399 149.408C88.411 147.622 95.233 151.437 102.259 151.038C105.538 150.852 108.78 149.676 110.725 146.9C112.425 144.473 112.999 141.475 113.837 138.686C114.718 135.759 116.033 133.138 118.177 130.925C120.37 128.662 123.096 126.957 125.905 125.565C132.241 122.426 139.197 120.403 146.183 119.389C154.214 118.222 162.384 118.438 170.342 120.026C170.834 120.124 170.587 120.867 170.098 120.77Z" fill="white"/>
<path d="M131.561 123.511C130.841 121.13 130.992 118.57 131.986 116.289C132.979 114.008 134.752 112.155 136.986 111.06C137.438 110.84 137.802 111.533 137.348 111.754C135.266 112.769 133.615 114.496 132.694 116.622C131.773 118.747 131.642 121.133 132.326 123.346C132.473 123.828 131.708 123.99 131.561 123.511Z" fill="white"/>
<path d="M114.941 137.114C119.402 139.557 124.62 140.229 129.554 138.995C130.043 138.873 130.207 139.638 129.719 139.76C124.582 141.034 119.154 140.324 114.517 137.772C114.076 137.528 114.502 136.872 114.941 137.114Z" fill="white"/>
<path d="M153.943 119.223C154.029 120.203 154.357 121.146 154.898 121.967C155.439 122.788 156.175 123.462 157.04 123.929C157.485 124.167 157.058 124.823 156.616 124.586C155.662 124.067 154.85 123.321 154.251 122.415C153.651 121.509 153.283 120.47 153.178 119.389C153.159 119.287 153.18 119.183 153.236 119.097C153.291 119.01 153.378 118.948 153.478 118.924C153.579 118.902 153.685 118.922 153.772 118.978C153.859 119.034 153.92 119.122 153.943 119.223Z" fill="white"/>
<path d="M119.372 138.75C115.628 120.647 110.948 114.611 110.948 114.611L109.16 113.225L107.01 111.554L107.021 111.34L106.511 111.166L106.391 111.073L106.194 110.923L106.163 110.957L106.096 111.026L96.3668 107.718L84.0233 103.526L78.3075 96.0962C77.3766 94.8862 76.1781 93.9083 74.806 93.239C73.4339 92.5697 71.9254 92.2273 70.3989 92.2386L52.1444 92.3737C49.6762 92.392 47.3041 93.3329 45.4944 95.0114L33.4961 106.141L14.8003 115.07L14.7688 115.038L14.5725 115.178L11.6838 116.56L11.803 117.18L10.0151 118.47C10.0151 118.47 5.33504 124.086 1.59097 140.931C0.638527 145.217 0.169698 154.411 0.00047555 165.741C-0.00802447 166.314 0.0974994 166.883 0.310909 167.415C0.524318 167.947 0.841356 168.432 1.24359 168.84C1.64582 169.248 2.12522 169.573 2.65392 169.794C3.18262 170.016 3.75006 170.13 4.32326 170.13H104.181L116.644 170.13C117.217 170.13 117.784 170.015 118.313 169.794C118.841 169.573 119.32 169.249 119.722 168.841C120.124 168.433 120.442 167.95 120.655 167.418C120.869 166.887 120.975 166.318 120.967 165.746C120.802 153.417 120.333 143.398 119.372 138.75Z" fill="#3F3D56"/>
<path d="M132.184 15.7874C128.299 15.7874 124.574 17.3307 121.826 20.0779C119.079 22.825 117.536 26.5509 117.536 30.436C117.536 34.321 119.079 38.047 121.826 40.7941C124.574 43.5413 128.299 45.0846 132.184 45.0846H241.351C245.236 45.0846 248.962 43.5413 251.71 40.7941C254.457 38.047 256 34.321 256 30.436C256 26.5509 254.457 22.825 251.71 20.0779C248.962 17.3307 245.236 15.7874 241.351 15.7874H132.184Z" fill="#E5E5E5"/>
<path d="M132.184 18.752C129.086 18.752 126.114 19.983 123.923 22.1742C121.731 24.3653 120.5 27.3372 120.5 30.436C120.5 33.5348 121.731 36.5067 123.923 38.6978C126.114 40.889 129.086 42.12 132.184 42.12H241.351C244.45 42.12 247.422 40.889 249.613 38.6978C251.804 36.5067 253.035 33.5348 253.035 30.436C253.035 27.3372 251.804 24.3653 249.613 22.1742C247.422 19.983 244.45 18.752 241.351 18.752H132.184Z" fill="white"/>
<path d="M64.1384 85.3808C77.3463 85.3808 88.0534 74.6737 88.0534 61.4657C88.0534 48.2578 77.3463 37.5506 64.1384 37.5506C50.9304 37.5506 40.2233 48.2578 40.2233 61.4657C40.2233 74.6737 50.9304 85.3808 64.1384 85.3808Z" fill="#9E616A"/>
<path d="M58.0204 84.2098C57.9182 83.9849 57.8163 83.7591 57.7147 83.5326C57.7539 83.5339 57.7926 83.5395 57.8318 83.5406L58.0204 84.2098Z" fill="#2F2E41"/>
<path d="M39.5582 38.6382C40.7678 37.6733 42.1815 36.7855 43.728 36.8354C45.2744 36.8852 46.8426 38.2819 46.5222 39.7957C49.3627 34.7663 53.884 30.8981 59.2923 28.8701C64.7007 26.8421 70.6506 26.7839 76.0976 28.7057C79.9412 30.0617 83.7104 32.7746 84.5933 36.7536C84.82 37.775 84.8686 38.895 85.5064 39.7244C86.3105 40.7701 87.849 41.0067 89.1158 40.6388C89.1285 40.6351 89.1412 40.6314 89.1538 40.6276C89.3678 40.5546 89.5988 40.5474 89.8169 40.607C90.0351 40.6667 90.2303 40.7904 90.3774 40.9622C90.5244 41.134 90.6165 41.346 90.6418 41.5707C90.6671 41.7954 90.6243 42.0226 90.5191 42.2227L89.4316 44.251C90.8025 44.5566 92.2269 44.5263 93.5836 44.1627C93.809 44.1036 94.0471 44.1156 94.2654 44.1972C94.4836 44.2788 94.6713 44.4259 94.8026 44.6184C94.9339 44.8108 95.0025 45.0392 94.9989 45.2722C94.9953 45.5051 94.9197 45.7313 94.7825 45.9196C91.1965 50.843 85.2054 54.0222 79.0917 53.9849C74.7464 53.9584 70.3564 52.4608 66.1275 53.46C64.4915 53.8466 62.9628 54.5945 61.6536 55.649C60.3443 56.7034 59.2878 58.0376 58.5614 59.5536C57.835 61.0696 57.4573 62.729 57.4559 64.4101C57.4545 66.0912 57.8295 67.7512 58.5534 69.2684C57.2542 67.8474 54.7428 68.1838 53.4139 69.5771C52.085 70.9704 51.741 73.0498 51.8749 74.9706C52.0796 77.9083 53.2306 80.6764 54.444 83.3705C44.2708 83.0503 34.6486 75.9139 31.4098 66.2618C28.1574 56.5693 31.566 45.0138 39.5582 38.6382Z" fill="#2F2E41"/>
<path opacity="0.2" d="M23.5386 133.284L30.2462 169.779L34.271 170.13L23.5386 133.284Z" fill="black"/>
<path opacity="0.2" d="M97.4246 130.532L90.717 169.753L86.6923 170.13L97.4246 130.532Z" fill="black"/>
<path d="M45.2793 26.3558C43.9932 26.8929 42.6512 26.3043 42.0884 24.9565C41.517 23.5881 42.0507 22.1989 43.3574 21.6533C44.6642 21.1076 45.9823 21.6976 46.5629 23.0881C47.1349 24.4577 46.607 25.8014 45.2793 26.3558ZM42.8157 18.9598L41.7931 19.3868C41.5376 19.4922 41.2519 19.4979 40.9925 19.4027C40.733 19.3075 40.5187 19.1185 40.392 18.8729L40.3414 18.774C39.2411 16.7896 39.1152 14.3779 39.969 11.6096C40.7599 9.12635 41.0885 7.37987 40.4278 5.79764C39.6639 3.9683 38.0328 3.39525 35.9527 4.22537C35.1459 4.56224 34.8892 4.55687 34.2543 5.18668C34.1162 5.32534 33.9516 5.43478 33.7703 5.50845C33.589 5.58213 33.3947 5.61854 33.199 5.61551C33.0099 5.61329 32.8231 5.57299 32.6498 5.49702C32.4766 5.42105 32.3204 5.31097 32.1906 5.17334C31.9405 4.90811 31.8004 4.55787 31.7986 4.19335C31.7968 3.82884 31.9333 3.4772 32.1807 3.20946C33.2478 2.09239 34.5349 1.20865 35.9607 0.613996C40.4299 -1.25219 42.6797 1.50296 43.7093 3.96856C44.7163 6.3802 44.1498 8.6178 43.2397 11.5157C42.4769 13.9237 42.5214 15.708 43.3878 17.4821C43.4503 17.6162 43.4851 17.7616 43.4901 17.9095C43.4951 18.0575 43.4701 18.2048 43.4166 18.3429C43.3632 18.4809 43.2824 18.6067 43.1792 18.7127C43.0759 18.8187 42.9523 18.9027 42.8157 18.9598Z" fill="#7B9D7C"/>
<path d="M156.298 37.4224H134.578C134.509 37.4229 134.44 37.4097 134.377 37.3836C134.313 37.3575 134.255 37.3191 134.206 37.2704C134.157 37.2218 134.118 37.164 134.091 37.1003C134.065 37.0366 134.051 36.9682 134.051 36.8992C134.051 36.8302 134.065 36.7619 134.091 36.6982C134.118 36.6345 134.157 36.5767 134.206 36.528C134.255 36.4794 134.313 36.4409 134.377 36.4149C134.44 36.3888 134.509 36.3756 134.578 36.3761H156.298C156.436 36.377 156.568 36.4325 156.666 36.5305C156.763 36.6286 156.818 36.7611 156.818 36.8992C156.818 37.0374 156.763 37.1699 156.666 37.2679C156.568 37.3659 156.436 37.4215 156.298 37.4224Z" fill="#7B9D7C"/>
<path d="M183.851 37.5968H162.131C162.062 37.5972 161.994 37.584 161.93 37.558C161.866 37.5319 161.808 37.4934 161.759 37.4448C161.71 37.3962 161.671 37.3383 161.645 37.2746C161.618 37.2109 161.604 37.1426 161.604 37.0736C161.604 37.0046 161.618 36.9363 161.645 36.8726C161.671 36.8089 161.71 36.751 161.759 36.7024C161.808 36.6538 161.866 36.6153 161.93 36.5892C161.994 36.5631 162.062 36.55 162.131 36.5504H183.851C183.92 36.55 183.989 36.5631 184.053 36.5892C184.117 36.6153 184.175 36.6538 184.224 36.7024C184.273 36.751 184.311 36.8089 184.338 36.8726C184.364 36.9363 184.378 37.0046 184.378 37.0736C184.378 37.1426 184.364 37.2109 184.338 37.2746C184.311 37.3383 184.273 37.3962 184.224 37.4448C184.175 37.4934 184.117 37.5319 184.053 37.558C183.989 37.584 183.92 37.5972 183.851 37.5968Z" fill="#7B9D7C"/>
<path d="M211.405 37.7712H189.685C189.546 37.7702 189.414 37.7147 189.317 37.6167C189.22 37.5187 189.165 37.3861 189.165 37.248C189.165 37.1099 189.22 36.9773 189.317 36.8793C189.414 36.7813 189.546 36.7258 189.685 36.7248H211.405C211.474 36.7244 211.542 36.7376 211.606 36.7636C211.67 36.7897 211.728 36.8282 211.777 36.8768C211.826 36.9254 211.865 36.9833 211.891 37.047C211.918 37.1107 211.931 37.179 211.931 37.248C211.931 37.317 211.918 37.3853 211.891 37.449C211.865 37.5127 211.826 37.5706 211.777 37.6192C211.728 37.6678 211.67 37.7063 211.606 37.7324C211.542 37.7584 211.474 37.7716 211.405 37.7712Z" fill="#7B9D7C"/>
<path d="M238.958 37.9455H217.238C217.1 37.9446 216.968 37.8891 216.87 37.791C216.773 37.693 216.718 37.5605 216.718 37.4224C216.718 37.2842 216.773 37.1517 216.87 37.0537C216.968 36.9557 217.1 36.9001 217.238 36.8992H238.958C239.096 36.9001 239.228 36.9557 239.326 37.0537C239.423 37.1517 239.478 37.2842 239.478 37.4224C239.478 37.5605 239.423 37.693 239.326 37.791C239.228 37.8891 239.096 37.9446 238.958 37.9455Z" fill="#7B9D7C"/>
<path d="M145.39 32.6076C147.62 32.6076 149.427 30.8003 149.427 28.5708C149.427 26.3413 147.62 24.5339 145.39 24.5339C143.161 24.5339 141.353 26.3413 141.353 28.5708C141.353 30.8003 143.161 32.6076 145.39 32.6076Z" fill="#7B9D7C"/>
<path d="M173.11 32.6076C175.339 32.6076 177.147 30.8003 177.147 28.5708C177.147 26.3413 175.339 24.5339 173.11 24.5339C170.88 24.5339 169.073 26.3413 169.073 28.5708C169.073 30.8003 170.88 32.6076 173.11 32.6076Z" fill="#7B9D7C"/>
<path d="M200.83 32.6076C203.059 32.6076 204.866 30.8003 204.866 28.5708C204.866 26.3413 203.059 24.5339 200.83 24.5339C198.6 24.5339 196.793 26.3413 196.793 28.5708C196.793 30.8003 198.6 32.6076 200.83 32.6076Z" fill="#7B9D7C"/>
<path d="M228.549 32.6076C230.779 32.6076 232.586 30.8003 232.586 28.5708C232.586 26.3413 230.779 24.5339 228.549 24.5339C226.32 24.5339 224.513 26.3413 224.513 28.5708C224.513 30.8003 226.32 32.6076 228.549 32.6076Z" fill="#7B9D7C"/>
</g>
<defs>
<clipPath id="clip0_1227_1726">
<rect width="256" height="170.13" fill="white"/>
</clipPath>
</defs>
</svg>
