<svg width="256" height="172" viewBox="0 0 256 172" fill="none" xmlns="http://www.w3.org/2000/svg">
<g clip-path="url(#clip0_1265_1972)">
<path d="M256 91.1959C256 125.903 234.002 155.475 203.19 166.727C198.503 168.442 193.665 169.712 188.739 170.52C175.189 172.742 161.297 171.481 148.368 166.854C117.362 155.694 95.2031 126.022 95.2177 91.1789C95.2177 46.7981 131.211 10.8048 175.609 10.8048C192.388 10.7804 208.751 16.0298 222.384 25.8111C242.738 40.3936 256 64.2454 256 91.1959Z" fill="#E5E5E5"/>
<path d="M203.19 166.727C198.503 168.442 193.665 169.712 188.739 170.52C175.189 172.742 161.297 171.481 148.368 166.854L152.081 151.957L152.305 151.063L159.881 151.092L197.943 151.229L198.43 152.668L203.19 166.727Z" fill="#2F2E41"/>
<path d="M69.8309 0H0V79.016H69.8309V0Z" fill="#E6E6E6"/>
<path d="M68.4638 1.67165H1.24512V77.3446H68.4638V1.67165Z" fill="white"/>
<path d="M34.9156 74.6539C36.9965 74.6539 38.6835 72.967 38.6835 70.886C38.6835 68.805 36.9965 67.1181 34.9156 67.1181C32.8346 67.1181 31.1476 68.805 31.1476 70.886C31.1476 72.967 32.8346 74.6539 34.9156 74.6539Z" fill="#E6E6E6"/>
<path d="M34.2791 28.4582H12.6375V30.6721H34.2791V28.4582Z" fill="#E6E6E6"/>
<path d="M45.3004 35.0924H12.6375V37.3064H45.3004V35.0924Z" fill="#7B9D7C"/>
<path d="M42.0943 41.7683H12.6375V43.9822H42.0943V41.7683Z" fill="#E6E6E6"/>
<path d="M58.125 48.2678H12.6375V50.4817H58.125V48.2678Z" fill="#7B9D7C"/>
<path d="M50.1816 54.4577H13.1104V56.6716H50.1816V54.4577Z" fill="#E6E6E6"/>
<path d="M99.2974 128.575C99.563 128.848 99.8066 129.141 100.026 129.452L134.158 128.617L138.14 121.341L149.906 125.915L144.108 139.481C143.64 140.576 142.829 141.491 141.796 142.087C140.764 142.682 139.567 142.927 138.383 142.784L99.82 138.126C98.9103 139.277 97.6716 140.125 96.2687 140.555C94.8657 140.985 93.3649 140.978 91.9659 140.535C90.567 140.092 89.3362 139.233 88.4372 138.073C87.5382 136.913 87.0136 135.507 86.9333 134.042C86.8529 132.576 87.2206 131.121 87.9874 129.87C88.7542 128.619 89.8837 127.631 91.2258 127.037C92.5679 126.443 94.0589 126.272 95.5006 126.547C96.9422 126.821 98.2661 127.528 99.2962 128.573L99.2974 128.575Z" fill="#9F616A"/>
<path d="M145.237 87.0273L161.211 81.7924L165.902 75.3584L188.732 76.7095L192.084 84.2175L204.258 89.9699L202.387 124.714L199.186 157.231C182.728 148.709 152.014 155.206 151.745 155.312L145.237 87.0273Z" fill="#7B9D7C"/>
<path d="M148.652 134.056L132.405 127.556L132.474 127.266C132.544 126.974 139.459 98.0778 140.377 93.4341C141.333 88.5963 144.828 87.2586 144.976 87.2043L145.085 87.1643L151.514 89.1215L154.338 111.31L148.652 134.056Z" fill="#7B9D7C"/>
<path d="M183.733 155.801C184.114 155.792 184.495 155.813 184.872 155.864L207.466 130.268L204.838 122.402L216.193 116.884L222.199 130.359C222.684 131.448 222.803 132.664 222.538 133.826C222.273 134.988 221.638 136.033 220.729 136.803L191.094 161.913C191.319 163.363 191.098 164.847 190.46 166.169C189.822 167.49 188.796 168.586 187.52 169.31C186.244 170.034 184.777 170.353 183.315 170.223C181.853 170.094 180.466 169.522 179.337 168.585C178.208 167.647 177.391 166.388 176.995 164.975C176.599 163.562 176.642 162.062 177.119 160.674C177.597 159.287 178.485 158.077 179.666 157.207C180.848 156.336 182.266 155.846 183.733 155.801Z" fill="#9F616A"/>
<path d="M205.663 132.759L196.238 110.589L199.914 95.1467L203.875 90.1427C204.165 90.0187 204.478 89.9562 204.793 89.9591C205.109 89.962 205.42 90.0304 205.708 90.1598C207.169 90.7476 208.412 92.5496 209.405 95.5153L218.238 120.675L205.663 132.759Z" fill="#7B9D7C"/>
<path d="M156.763 67.1433V50.4293C156.754 47.4881 157.323 44.5738 158.44 41.8527C159.557 39.1317 161.198 36.6572 163.271 34.5706C165.344 32.4839 167.807 30.826 170.521 29.6915C173.234 28.5569 176.145 27.968 179.086 27.9582C182.027 27.9485 184.942 28.5181 187.663 29.6347C190.384 30.7512 192.858 32.3928 194.945 34.4656C197.031 36.5385 198.689 39.002 199.824 41.7156C200.958 44.4292 201.547 47.3397 201.557 50.2809C201.557 50.3303 201.557 50.3798 201.557 50.4293V67.1433C201.556 67.941 201.239 68.7057 200.675 69.2697C200.111 69.8337 199.346 70.151 198.549 70.1519H159.772C158.974 70.151 158.21 69.8337 157.646 69.2697C157.082 68.7057 156.764 67.941 156.763 67.1433Z" fill="#2F2E41"/>
<path d="M174.558 69.7625C183.627 69.7625 190.978 62.4108 190.978 53.342C190.978 44.2732 183.627 36.9215 174.558 36.9215C165.489 36.9215 158.137 44.2732 158.137 53.342C158.137 62.4108 165.489 69.7625 174.558 69.7625Z" fill="#9F616A"/>
<path d="M151.465 51.7664C151.47 47.0692 153.339 42.5659 156.66 39.2445C159.981 35.923 164.485 34.0547 169.182 34.0494H172.525C177.222 34.0547 181.725 35.923 185.047 39.2445C188.368 42.5659 190.237 47.0692 190.242 51.7664V52.1007H183.177L180.768 45.3527L180.286 52.1007H176.635L175.419 48.6965L175.176 52.1007H151.465V51.7664Z" fill="#2F2E41"/>
<path d="M172.942 72.0315C172.61 71.5824 172.412 71.0488 172.371 70.492C172.329 69.9353 172.445 69.3781 172.707 68.8846C176.249 62.1468 181.208 49.6967 174.625 42.0186L174.153 41.4676H193.266V70.1623L175.904 73.2257C175.728 73.2568 175.55 73.2726 175.371 73.2727C174.897 73.2727 174.43 73.1603 174.008 72.9447C173.586 72.729 173.221 72.4163 172.943 72.0323L172.942 72.0315Z" fill="#2F2E41"/>
<path d="M34.8549 6.15408C33.2701 6.154 31.721 6.62385 30.4033 7.50421C29.0856 8.38457 28.0585 9.63591 27.452 11.1C26.8455 12.564 26.6867 14.1751 26.9958 15.7294C27.3049 17.2837 28.0679 18.7114 29.1884 19.832C30.309 20.9527 31.7366 21.7159 33.2909 22.0251C34.8452 22.3344 36.4562 22.1758 37.9203 21.5694C39.3845 20.963 40.6359 19.9361 41.5164 18.6185C42.3969 17.3009 42.8669 15.7518 42.867 14.167V14.1666C42.867 13.1144 42.6598 12.0725 42.2571 11.1004C41.8544 10.1282 41.2642 9.24493 40.5202 8.5009C39.7762 7.75687 38.8929 7.16667 37.9207 6.764C36.9486 6.36133 35.9067 6.15408 34.8545 6.15408H34.8549ZM34.8549 8.55763C35.3302 8.55763 35.795 8.69859 36.1902 8.96269C36.5855 9.2268 36.8935 9.60218 37.0755 10.0414C37.2574 10.4806 37.305 10.9638 37.2122 11.4301C37.1195 11.8963 36.8906 12.3246 36.5545 12.6607C36.2183 12.9969 35.79 13.2258 35.3238 13.3185C34.8576 13.4113 34.3743 13.3637 33.9351 13.1818C33.4959 12.9999 33.1205 12.6918 32.8564 12.2965C32.5923 11.9013 32.4513 11.4366 32.4513 10.9612C32.4513 10.3237 32.7046 9.71237 33.1553 9.26162C33.6061 8.81087 34.2174 8.55763 34.8549 8.55763ZM34.8549 20.1294C33.9053 20.125 32.9711 19.8891 32.1333 19.442C31.2956 18.9949 30.5795 18.3502 30.0473 17.5638C30.086 15.9612 33.2524 15.0792 34.8549 15.0792C36.4574 15.0792 39.6238 15.9612 39.6624 17.5638C39.1296 18.3496 38.4134 18.9939 37.5758 19.4409C36.7382 19.8879 35.8043 20.1242 34.8549 20.1294Z" fill="#7B9D7C"/>
<path d="M34.948 72.3304C38.2489 66.2813 46.1564 62.4505 52.625 65.9034C55.5366 67.4574 57.8511 70.2063 58.5859 73.4553C59.4385 77.2296 57.6419 80.8284 55.7873 83.9993C54.7807 85.7204 53.6776 87.4064 52.8445 89.2218C51.9819 91.1017 51.3653 93.2744 52.0148 95.3195C52.5994 97.162 54.0655 98.5021 55.6708 99.487C57.4427 100.533 59.3274 101.375 61.2887 101.996C65.3261 103.339 69.5848 103.89 73.831 103.619C75.9413 103.475 78.0339 103.137 80.082 102.608C82.2606 102.053 84.3985 101.349 86.5808 100.806C90.2242 99.9006 94.3785 99.4507 97.8333 101.268C101.19 103.035 102.692 106.73 103.156 110.324C104.014 116.962 101.383 123.85 96.6311 128.498C94.3514 130.728 91.4827 132.57 88.3581 133.324C85.6319 133.982 82.1312 133.939 79.9616 131.901C77.5406 129.627 78.1102 125.98 80.033 123.58C82.4874 120.518 86.6453 119.782 90.3557 119.708C94.5765 119.623 98.7934 120.252 103.012 119.861C105.071 119.701 107.091 119.213 108.997 118.417C110.672 117.68 112.2 116.646 113.507 115.365C116.111 112.835 117.868 109.464 118.741 105.96C119.793 101.745 119.564 97.3159 118.747 93.0827C118.312 90.8999 117.752 88.7439 117.069 86.6254C116.787 85.7313 115.376 86.1138 115.66 87.0139C118.174 94.9858 119.575 104.204 114.718 111.605C112.708 114.744 109.577 116.998 105.962 117.908C101.758 118.953 97.3468 118.437 93.073 118.281C89.0091 118.133 84.5466 118.293 81.063 120.66C78.2052 122.601 76.2064 126.294 77.0702 129.78C77.9031 133.142 81.1339 134.847 84.3651 135.11C87.7554 135.386 91.0917 134.248 93.939 132.469C99.8619 128.767 103.8 122.258 104.624 115.357C105.054 111.761 104.617 107.888 102.986 104.624C102.127 102.857 100.789 101.366 99.1254 100.321C97.4664 99.3043 95.5502 98.8036 93.6257 98.6265C89.2534 98.2239 85.0526 99.725 80.9049 100.873C78.7861 101.488 76.6143 101.903 74.4181 102.112C72.2865 102.288 70.1426 102.253 68.0179 102.007C65.9097 101.759 63.8319 101.297 61.8164 100.631C59.8413 100.02 57.9502 99.1654 56.1871 98.086C54.6316 97.0913 53.2864 95.6667 53.2099 93.7254C53.1268 91.6203 54.1882 89.6512 55.1978 87.8765C57.1922 84.3708 59.6558 80.9417 60.1759 76.8376C60.6315 73.2475 59.1869 69.7091 56.6923 67.1485C55.4421 65.8489 53.937 64.8213 52.2713 64.1303C50.6055 63.4392 48.8151 63.0996 47.012 63.1326C43.3108 63.2386 39.767 64.8481 37.0447 67.32C35.6945 68.5468 34.5583 69.99 33.6829 71.5905C33.232 72.4166 34.4936 73.155 34.945 72.3282L34.948 72.3304Z" fill="#3F3D56"/>
</g>
<defs>
<clipPath id="clip0_1265_1972">
<rect width="256" height="171.587" fill="white"/>
</clipPath>
</defs>
</svg>
