<svg width="256" height="275" viewBox="0 0 256 275" fill="none" xmlns="http://www.w3.org/2000/svg">
<g clip-path="url(#clip0_21_554)">
<path d="M55.4137 111.358C43.3456 99.4775 38.2485 87.0834 41.0612 76.4589C44.6707 62.8246 60.706 53.3977 85.0555 50.5952L85.1454 51.3773C61.1349 54.1406 45.3442 63.3559 41.8221 76.6603C39.0848 87 44.1079 99.1233 55.966 110.797L55.4137 111.358Z" fill="#F0F0F0"/>
<path d="M171.851 153.529C156.789 153.529 140.422 151.291 124.165 146.987C104.06 141.664 85.6266 133.631 70.8566 123.754L71.294 123.1C85.9928 132.929 104.345 140.926 124.366 146.226C142.459 151.016 160.688 153.235 177.075 152.65L177.103 153.436C175.372 153.498 173.622 153.529 171.851 153.529Z" fill="#F0F0F0"/>
<path d="M206.405 148.579L206.153 147.834C219.624 143.279 228.049 135.942 230.518 126.616C233.657 114.759 226.838 101.001 211.317 87.8743C195.718 74.6812 173.222 63.7343 147.974 57.0504L148.176 56.2895C173.534 63.0028 196.139 74.0064 211.825 87.2735C227.591 100.607 234.5 114.651 231.279 126.817C228.739 136.411 220.138 143.936 206.405 148.579Z" fill="#F0F0F0"/>
<path d="M82.7121 153.858C53.1165 140.732 30.3108 123.703 18.4965 105.907L19.1521 105.471C30.8848 123.144 53.5707 140.072 83.0311 153.138L82.7121 153.858Z" fill="#F0F0F0"/>
<path d="M186.768 176.598C183.715 176.598 180.61 176.53 177.453 176.393L177.487 175.607C201.046 176.627 221.833 173.808 237.604 167.452L237.898 168.182C224.141 173.726 206.606 176.598 186.768 176.598Z" fill="#F0F0F0"/>
<path d="M169.596 51.301C164.705 49.7084 159.673 48.2255 154.642 46.8935C125.687 39.2282 97.2247 36.5067 72.3301 39.0245L72.2509 38.2413C97.2383 35.7152 125.798 38.4433 154.843 46.1325C159.889 47.4684 164.934 48.9555 169.84 50.5528L169.596 51.301Z" fill="#F0F0F0"/>
<path d="M36.9173 112.538C24.8491 100.658 19.752 88.264 22.5647 77.6395C26.1742 64.0053 42.2095 54.5783 66.559 51.7758L66.6489 52.5579C42.6384 55.3212 26.8477 64.5366 23.3256 77.8409C20.5883 88.1806 25.6114 100.304 37.4695 111.978L36.9173 112.538Z" fill="#F0F0F0"/>
<path d="M153.355 154.71C138.293 154.71 121.926 152.471 105.668 148.167C85.5637 142.845 67.1301 134.811 52.3601 124.935L52.7975 124.281C67.4963 134.109 85.8483 142.106 105.87 147.406C123.962 152.197 142.191 154.416 158.578 153.83L158.607 154.617C156.876 154.679 155.125 154.71 153.355 154.71Z" fill="#F0F0F0"/>
<path d="M187.909 149.76L187.656 149.014C201.127 144.46 209.553 137.123 212.022 127.796C215.161 115.94 208.342 102.181 192.821 89.0549C177.221 75.8619 154.726 64.9149 129.478 58.2311L129.679 57.4701C155.037 64.1834 177.642 75.187 193.329 88.4541C209.095 101.788 216.004 115.831 212.783 127.998C210.243 137.592 201.641 145.117 187.909 149.76Z" fill="#F0F0F0"/>
<path d="M64.2156 155.039C34.62 141.913 11.8143 124.883 0 107.087L0.655647 106.652C12.3883 124.325 35.0743 141.253 64.5346 154.319L64.2156 155.039Z" fill="#F0F0F0"/>
<path d="M168.271 177.778C165.219 177.778 162.114 177.71 158.957 177.574L158.991 176.788C182.55 177.808 203.337 174.988 219.107 168.633L219.402 169.363C205.644 174.906 188.11 177.778 168.271 177.778Z" fill="#F0F0F0"/>
<path d="M151.1 52.4817C146.208 50.889 141.177 49.4062 136.145 48.0741C107.191 40.4089 78.7282 37.6873 53.8336 40.2052L53.7545 39.4219C78.7419 36.8958 107.302 39.6239 136.346 47.3132C141.392 48.649 146.438 50.1362 151.343 51.7334L151.1 52.4817Z" fill="#F0F0F0"/>
<path d="M155.994 123.329L162.684 122.542L165.046 143.006L171.074 171.266C171.913 171.674 172.597 172.342 173.025 173.171C173.453 174 173.602 174.945 173.449 175.865C173.297 176.785 172.851 177.631 172.179 178.278C171.507 178.924 170.644 179.336 169.718 179.452C168.793 179.569 167.855 179.383 167.043 178.923C166.232 178.463 165.591 177.753 165.216 176.9C164.84 176.046 164.751 175.094 164.96 174.185C165.17 173.276 165.667 172.459 166.378 171.856L160.323 155.206L155.994 123.329Z" fill="#FFB6B6"/>
<path d="M146.275 269.221H151.787L154.41 247.959H146.275L146.275 269.221Z" fill="#FFB6B6"/>
<path d="M144.87 274.563H162.643V274.338C162.643 272.503 161.914 270.744 160.617 269.447C159.319 268.149 157.56 267.42 155.725 267.42H144.87V274.563Z" fill="#2F2E41"/>
<path d="M103.973 266.214L109.385 267.259L115.992 246.882L108.003 245.339L103.973 266.214Z" fill="#FFB6B6"/>
<path d="M101.582 271.194L119.032 274.564L119.075 274.343C119.423 272.542 119.041 270.676 118.013 269.156C116.985 267.636 115.396 266.587 113.594 266.239L102.936 264.18L101.582 271.194Z" fill="#2F2E41"/>
<path d="M154.918 89.7941L151.716 95.9389L127.729 90.6485L130.357 78.7348C132.436 69.3047 140.774 62.4945 150.204 64.5743C159.635 66.6542 164.034 75.871 161.954 85.301L158.089 97.3434L154.178 96.4808L154.918 89.7941Z" fill="#2F2E41"/>
<path d="M163.472 157.568C163.472 157.568 165.833 169.374 162.684 186.69C159.536 204.006 158.749 211.483 158.749 211.483C158.749 211.483 161.11 214.238 159.536 215.812C157.962 217.386 159.536 220.534 159.536 220.534L155.994 258.708L143.794 256.74L145.369 220.928C145.369 220.928 143.794 217.78 144.581 216.992C145.369 216.205 143.794 211.483 143.794 211.483L141.827 174.096L129.627 215.025C129.627 215.025 130.808 216.599 129.627 217.78C128.446 218.96 126.085 224.863 126.085 224.863L118.214 252.411L105.621 250.05L112.705 218.567C112.705 218.567 111.917 216.599 113.098 215.418C113.442 215.057 113.694 214.618 113.831 214.138C113.968 213.658 113.987 213.152 113.885 212.663C113.885 212.663 112.705 211.483 114.279 209.909C115.853 208.335 116.64 202.038 116.64 202.038C116.64 202.038 117.821 159.929 121.756 157.568C125.691 155.206 163.472 157.568 163.472 157.568Z" fill="#2F2E41"/>
<path d="M145.677 92.4513C151.762 92.4513 156.696 87.5178 156.696 81.4321C156.696 75.3464 151.762 70.4129 145.677 70.4129C139.591 70.4129 134.658 75.3464 134.658 81.4321C134.658 87.5178 139.591 92.4513 145.677 92.4513Z" fill="#FFB6B6"/>
<path d="M130.148 95.5374C130.148 95.5374 122.149 94.6004 119.788 96.9617L122.149 144.58C122.149 144.58 120.575 145.761 121.362 148.516C121.819 150.324 121.819 152.217 121.362 154.025C121.362 154.025 119.001 156.78 120.182 157.961C121.362 159.141 163.865 158.354 163.865 158.354C163.865 158.354 165.439 155.599 163.078 154.025C160.716 152.451 161.897 148.122 161.897 148.122C161.897 148.122 162.684 146.942 160.716 144.974C158.749 143.006 157.174 126.871 157.174 126.871L162.291 107.194C162.291 107.194 157.141 101.381 151.254 100.942L130.148 95.5374Z" fill="#E6E6E6"/>
<path d="M156.193 107.464L162.29 107.193C162.29 107.193 165.832 114.277 166.226 120.574L168.393 144.064L154.419 146.154L156.193 107.464Z" fill="#E6E6E6"/>
<path d="M155.117 81.9787L159.21 76.7124C159.452 75.6036 159.244 74.4444 158.634 73.488C158.023 72.5317 157.058 71.856 155.951 71.6085L140.488 68.1977C139.379 67.9563 138.22 68.1637 137.263 68.7744C136.307 69.3851 135.631 70.3496 135.384 71.457L135.375 71.4964L136.482 77.8556L136.677 77.821C146.273 76.1098 149.007 76.712 154.96 81.8453L155.117 81.9787Z" fill="#2F2E41"/>
<path d="M113.934 166.123L114.672 135.136L115.459 113.097L124.904 114.278L119.832 166.952C120.365 167.621 120.688 168.434 120.759 169.287C120.831 170.141 120.648 170.996 120.233 171.745C119.819 172.494 119.191 173.103 118.43 173.496C117.669 173.888 116.809 174.047 115.958 173.95C115.108 173.854 114.305 173.507 113.651 172.955C112.997 172.402 112.522 171.668 112.285 170.845C112.049 170.022 112.061 169.147 112.322 168.332C112.582 167.516 113.079 166.796 113.748 166.263C113.809 166.214 113.871 166.168 113.934 166.123Z" fill="#FFB6B6"/>
<path d="M126.678 97.6256L119.788 96.9613C119.788 96.9613 118.607 96.9613 117.427 100.897C116.246 104.832 109.756 146.425 109.756 146.425L124.117 147.728L126.678 97.6256Z" fill="#E6E6E6"/>
<path d="M61.4579 43.4994C71.3468 43.4994 79.3633 35.4828 79.3633 25.594C79.3633 15.7051 71.3468 7.6886 61.4579 7.6886C51.5691 7.6886 43.5526 15.7051 43.5526 25.594C43.5526 35.4828 51.5691 43.4994 61.4579 43.4994Z" fill="#7B9D7C"/>
<path d="M65.6578 36.5979C62.0386 36.5979 58.5007 35.5247 55.4915 33.514C52.4822 31.5033 50.1368 28.6454 48.7518 25.3017C47.3668 21.958 47.0044 18.2787 47.7104 14.729C48.4165 11.1794 50.1593 7.9188 52.7185 5.35964C55.2776 2.80049 58.5382 1.05768 62.0878 0.351616C65.6375 -0.354452 69.3168 0.00793014 72.6605 1.39294C76.0042 2.77794 78.8621 5.12337 80.8728 8.13262C82.8835 11.1419 83.9567 14.6798 83.9567 18.299C83.9512 23.1505 82.0216 27.8017 78.591 31.2322C75.1605 34.6627 70.5093 36.5924 65.6578 36.5979ZM65.6578 0.787091C62.1943 0.787087 58.8085 1.81414 55.9287 3.73836C53.0489 5.66259 50.8044 8.39756 49.4789 11.5974C48.1535 14.7973 47.8067 18.3184 48.4824 21.7153C49.1581 25.1123 50.8259 28.2326 53.275 30.6817C55.7241 33.1308 58.8444 34.7986 62.2414 35.4743C65.6383 36.15 69.1594 35.8032 72.3593 34.4778C75.5591 33.1524 78.2941 30.9078 80.2184 28.028C82.1426 25.1482 83.1696 21.7625 83.1696 18.2989C83.1644 13.6561 81.3177 9.20499 78.0347 5.92202C74.7518 2.63905 70.3006 0.792361 65.6578 0.787091Z" fill="#3F3D56"/>
<path d="M226.22 101.795C233.011 101.795 238.516 96.2901 238.516 89.4993C238.516 82.7085 233.011 77.2035 226.22 77.2035C219.429 77.2035 213.924 82.7085 213.924 89.4993C213.924 96.2901 219.429 101.795 226.22 101.795Z" fill="#7B9D7C"/>
<path d="M229.104 97.1794C226.594 97.1794 224.141 96.4351 222.054 95.0408C219.968 93.6465 218.341 91.6647 217.381 89.346C216.42 87.0273 216.169 84.4759 216.659 82.0144C217.148 79.5528 218.357 77.2918 220.131 75.5172C221.906 73.7425 224.167 72.534 226.629 72.0443C229.09 71.5547 231.642 71.806 233.96 72.7664C236.279 73.7269 238.261 75.3533 239.655 77.4401C241.049 79.5268 241.794 81.9802 241.794 84.4899C241.79 87.8542 240.452 91.0796 238.073 93.4585C235.694 95.8374 232.468 97.1756 229.104 97.1794ZM229.104 72.5876C226.75 72.5876 224.449 73.2857 222.492 74.5935C220.534 75.9013 219.009 77.7602 218.108 79.9351C217.207 82.11 216.971 84.5031 217.431 86.812C217.89 89.1208 219.023 91.2416 220.688 92.9062C222.353 94.5707 224.473 95.7043 226.782 96.1636C229.091 96.6228 231.484 96.3871 233.659 95.4863C235.834 94.5854 237.693 93.0599 239.001 91.1025C240.308 89.1452 241.007 86.844 241.007 84.4899C241.003 81.3343 239.748 78.309 237.516 76.0776C235.285 73.8463 232.26 72.5911 229.104 72.5876Z" fill="#3F3D56"/>
<path d="M239.155 258.955C237.913 259.392 236.58 259.501 235.284 259.273C233.987 259.045 232.772 258.486 231.754 257.652C229.162 255.476 228.349 251.891 227.688 248.573L225.732 238.756L229.827 241.575C232.772 243.603 235.783 245.696 237.822 248.633C239.861 251.57 240.751 255.579 239.113 258.757" fill="#FD6584"/>
<path d="M238.522 271.524C239.038 267.768 239.568 263.965 239.206 260.17C238.885 256.799 237.857 253.507 235.763 250.808C234.652 249.378 233.3 248.153 231.768 247.187C231.368 246.935 231 247.568 231.398 247.819C234.049 249.495 236.1 251.97 237.254 254.886C238.529 258.129 238.734 261.664 238.514 265.109C238.381 267.193 238.099 269.262 237.816 271.33C237.793 271.423 237.807 271.522 237.855 271.605C237.902 271.689 237.98 271.751 238.071 271.78C238.165 271.805 238.265 271.792 238.349 271.744C238.433 271.696 238.495 271.617 238.522 271.524L238.522 271.524Z" fill="#F2F2F2"/>
<path d="M234.812 265.499C234.28 266.308 233.548 266.967 232.687 267.411C231.826 267.856 230.865 268.071 229.897 268.036C227.408 267.918 225.334 266.181 223.466 264.534L217.943 259.655L221.599 259.48C224.227 259.355 226.924 259.237 229.43 260.048C231.936 260.859 234.243 262.81 234.701 265.4" fill="#E6E6E6"/>
<path d="M239.979 273.683C237.5 269.292 234.62 264.413 229.478 262.853C228.048 262.421 226.548 262.266 225.06 262.397C224.591 262.436 224.709 263.16 225.179 263.12C227.673 262.913 230.162 263.571 232.228 264.985C234.215 266.338 235.763 268.219 237.073 270.213C237.875 271.433 238.594 272.709 239.312 273.981C239.54 274.387 240.211 274.094 239.979 273.683Z" fill="#F2F2F2"/>
<path d="M44.4699 264.067C45.364 264.44 46.3392 264.576 47.3015 264.463C48.2638 264.35 49.1807 263.991 49.964 263.421C51.9609 261.932 52.7095 259.332 53.3365 256.922L55.1888 249.79L52.0604 251.69C49.8106 253.055 47.5091 254.466 45.8851 256.539C44.2612 258.613 43.4396 261.518 44.5098 263.924" fill="#E6E6E6"/>
<path d="M44.7627 273.74C44.3631 268.714 44.022 263.059 47.4132 258.89C48.357 257.732 49.5135 256.765 50.8204 256.042C51.2313 255.812 51.539 256.478 51.1268 256.707C48.9432 257.93 47.2477 259.868 46.3257 262.195C45.4343 264.428 45.2032 266.853 45.2329 269.239C45.2498 270.699 45.3673 272.158 45.4828 273.615C45.5207 274.079 44.7999 274.211 44.7627 273.74Z" fill="#F2F2F2"/>
<path d="M37.3334 149.299C47.0951 149.299 55.0086 141.386 55.0086 131.624C55.0086 121.862 47.0951 113.949 37.3334 113.949C27.5717 113.949 19.6583 121.862 19.6583 131.624C19.6583 141.386 27.5717 149.299 37.3334 149.299Z" fill="#E4E4E4"/>
<path d="M41.4793 142.492C37.9057 142.492 34.4123 141.432 31.4409 139.447C28.4696 137.461 26.1537 134.64 24.7861 131.338C23.4186 128.036 23.0608 124.403 23.758 120.898C24.4552 117.393 26.1761 114.174 28.703 111.647C31.23 109.12 34.4495 107.399 37.9545 106.702C41.4595 106.005 45.0925 106.363 48.3941 107.73C51.6957 109.098 54.5176 111.414 56.503 114.385C58.4884 117.356 59.5481 120.85 59.5481 124.424C59.5426 129.214 57.6372 133.807 54.2498 137.194C50.8625 140.581 46.2698 142.487 41.4793 142.492ZM41.4793 107.142C38.0614 107.142 34.7202 108.155 31.8782 110.054C29.0363 111.953 26.8213 114.652 25.5133 117.81C24.2053 120.968 23.8631 124.443 24.5299 127.795C25.1967 131.147 26.8426 134.226 29.2595 136.643C31.6764 139.06 34.7556 140.706 38.1079 141.373C41.4602 142.04 44.9349 141.697 48.0927 140.389C51.2505 139.082 53.9495 136.867 55.8485 134.025C57.7474 131.183 58.761 127.841 58.761 124.424C58.7558 119.842 56.9334 115.449 53.6936 112.209C50.4538 108.969 46.0611 107.147 41.4793 107.142Z" fill="#2F2E41"/>
<path d="M26.6629 70.1853C28.4017 70.1853 29.8112 68.7757 29.8112 67.0369C29.8112 65.2982 28.4017 63.8886 26.6629 63.8886C24.9241 63.8886 23.5146 65.2982 23.5146 67.0369C23.5146 68.7757 24.9241 70.1853 26.6629 70.1853Z" fill="#F2F2F2"/>
<path d="M188.409 54.4436C190.147 54.4436 191.557 53.034 191.557 51.2953C191.557 49.5565 190.147 48.1469 188.409 48.1469C186.67 48.1469 185.26 49.5565 185.26 51.2953C185.26 53.034 186.67 54.4436 188.409 54.4436Z" fill="#FD6584"/>
<path d="M209.266 166.21C211.005 166.21 212.415 164.8 212.415 163.061C212.415 161.322 211.005 159.913 209.266 159.913C207.528 159.913 206.118 161.322 206.118 163.061C206.118 164.8 207.528 166.21 209.266 166.21Z" fill="#F2F2F2"/>
<path d="M68.2714 79.3552L68.3908 78.5771L83.7675 80.936C82.2005 79.4233 77.0112 74.745 72.3048 74.2707C66.6824 73.704 64.2086 76.1109 63.8817 79.3547C63.5547 82.5985 65.4982 85.4507 71.1208 86.0174C75.8868 86.4979 81.9994 82.8522 83.7517 81.73L68.2714 79.3552Z" fill="#F2F2F2"/>
<path d="M215.412 37.673L214.938 37.0447L227.352 27.6693C225.175 27.7374 218.203 28.1941 214.581 31.2364C210.254 34.8708 210.254 38.3223 212.351 40.8188C214.447 43.3152 217.847 43.9114 222.174 40.2769C225.842 37.1961 227.492 30.2729 227.91 28.2343L215.412 37.673Z" fill="#F2F2F2"/>
<path d="M186.1 127.927L185.759 127.475L194.69 120.73C193.124 120.779 188.108 121.107 185.502 123.296C182.389 125.911 182.389 128.394 183.898 130.19C185.406 131.986 187.852 132.415 190.965 129.8C193.604 127.584 194.791 122.603 195.092 121.136L186.1 127.927Z" fill="#F2F2F2"/>
<path d="M115.399 20.5634C117.818 14.0573 123.536 8.4357 130.445 7.76701C126.291 14.07 124.5 21.639 125.39 29.135C125.744 32.0247 126.438 35.2019 124.88 37.6613C123.911 39.1916 122.203 40.1337 120.442 40.5589C118.681 40.984 116.846 40.9511 115.035 40.9157L114.63 41.1159C113.356 34.2923 112.979 27.0694 115.399 20.5634Z" fill="#F0F0F0"/>
<path d="M130.478 7.90877C125.768 11.1993 122.215 15.8902 120.322 21.3152C119.894 22.4758 119.652 23.6967 119.604 24.9329C119.596 26.1385 119.911 27.3243 120.517 28.3669C121.062 29.3504 121.733 30.2933 122.03 31.3922C122.173 31.9569 122.196 32.5456 122.096 33.1196C121.996 33.6936 121.775 34.24 121.449 34.7229C120.668 35.9473 119.494 36.818 118.316 37.6296C117.008 38.5307 115.635 39.446 114.834 40.8615C114.737 41.0331 114.477 40.8726 114.574 40.7013C115.966 38.2384 118.889 37.3438 120.676 35.2518C121.511 34.2756 122.056 33.0421 121.798 31.7422C121.572 30.6056 120.881 29.6327 120.32 28.6416C119.715 27.6332 119.365 26.4918 119.302 25.3171C119.287 24.0825 119.482 22.8543 119.879 21.6852C120.731 19.0387 121.993 16.5426 123.62 14.2883C125.462 11.7052 127.733 9.45629 130.334 7.63889C130.495 7.52647 130.638 7.79708 130.478 7.90877Z" fill="white"/>
<path d="M120.829 19.5325C119.962 19.0914 119.28 18.3565 118.904 17.459C118.529 16.5615 118.485 15.5598 118.78 14.6328C118.841 14.4455 119.134 14.5304 119.074 14.7181C118.798 15.5808 118.839 16.5138 119.19 17.3489C119.541 18.1839 120.179 18.866 120.989 19.2719C121.165 19.3603 121.004 19.6204 120.829 19.5325Z" fill="white"/>
<path d="M120.175 27.9046C122.071 27.3057 123.672 26.014 124.658 24.2872C124.756 24.116 125.016 24.2765 124.919 24.4474C123.889 26.2425 122.221 27.5833 120.246 28.2022C120.058 28.2611 119.988 27.9632 120.175 27.9046Z" fill="white"/>
<path d="M125.672 12.0526C125.972 12.2931 126.327 12.4554 126.705 12.5249C127.083 12.5943 127.472 12.5688 127.838 12.4505C128.026 12.3893 128.095 12.6873 127.909 12.7481C127.504 12.8769 127.074 12.9046 126.656 12.8288C126.238 12.753 125.845 12.5759 125.511 12.3132C125.478 12.2911 125.454 12.257 125.445 12.2179C125.435 12.1788 125.441 12.1376 125.461 12.1028C125.483 12.0684 125.517 12.0438 125.556 12.0344C125.596 12.025 125.637 12.0315 125.672 12.0526Z" fill="white"/>
<path d="M147.098 24.3509C146.982 24.3925 146.866 24.434 146.749 24.4781C145.194 25.0448 143.686 25.737 142.243 26.5479C142.13 26.6088 142.017 26.6722 141.906 26.7362C138.449 28.7268 135.391 31.342 132.888 34.4488C131.893 35.686 130.994 36.9971 130.198 38.3708C129.099 40.2679 128.058 42.4123 126.444 43.7948C126.277 43.9409 126.102 44.0766 125.918 44.201L114.905 41.595C114.883 41.5765 114.86 41.5605 114.838 41.542L114.394 41.4581C114.43 41.3844 114.469 41.3087 114.505 41.235C114.526 41.1921 114.549 41.1499 114.57 41.107C114.584 41.0786 114.599 41.0503 114.611 41.0238C114.616 41.0144 114.62 41.005 114.625 40.998C114.636 40.9715 114.65 40.9482 114.661 40.9243C114.878 40.5007 115.098 40.0779 115.322 39.6558C115.322 39.6533 115.322 39.6533 115.325 39.6514C116.999 36.4193 119.05 33.3972 121.436 30.6484C121.508 30.5673 121.581 30.4837 121.658 30.4039C122.748 29.195 123.934 28.0772 125.206 27.0617C125.904 26.5079 126.63 25.9897 127.38 25.5092C129.322 24.2715 131.446 23.3469 133.675 22.7693C138.118 21.6185 142.88 21.9015 146.8 24.1743C146.9 24.2326 146.998 24.2902 147.098 24.3509Z" fill="#F0F0F0"/>
<path d="M147.04 24.4848C141.298 24.2764 135.637 25.8823 130.86 29.0747C129.819 29.7437 128.891 30.5725 128.108 31.5306C127.376 32.4886 126.914 33.6252 126.769 34.8222C126.613 35.9356 126.581 37.0927 126.156 38.1486C125.931 38.6859 125.594 39.1694 125.169 39.5674C124.743 39.9655 124.238 40.2691 123.687 40.4584C122.326 40.9658 120.864 40.9539 119.435 40.8927C117.848 40.8246 116.201 40.7288 114.71 41.3772C114.529 41.4558 114.418 41.1708 114.598 41.0924C117.193 39.9643 120.065 41.0094 122.752 40.4154C124.005 40.1382 125.183 39.4815 125.76 38.2884C126.264 37.245 126.298 36.0519 126.447 34.9231C126.571 33.7533 126.979 32.6316 127.636 31.6559C128.367 30.661 129.262 29.7978 130.283 29.1032C132.556 27.5028 135.067 26.2698 137.723 25.4494C140.75 24.4962 143.917 24.0677 147.087 24.1825C147.284 24.1897 147.235 24.492 147.04 24.4848Z" fill="white"/>
<path d="M132.337 27.9562C131.911 27.082 131.809 26.0846 132.049 25.142C132.29 24.1995 132.858 23.3731 133.652 22.8107C133.813 22.6974 133.996 22.9423 133.835 23.0557C133.095 23.5781 132.566 24.3478 132.344 25.226C132.121 26.1042 132.22 27.0329 132.622 27.8446C132.71 28.0211 132.424 28.1317 132.337 27.9562Z" fill="white"/>
<path d="M126.775 34.2472C128.649 34.9107 130.705 34.8432 132.532 34.0583C132.713 33.9803 132.825 34.2653 132.644 34.3431C130.741 35.1564 128.602 35.2223 126.652 34.5276C126.466 34.4612 126.59 34.1812 126.775 34.2472Z" fill="white"/>
<path d="M140.708 24.8997C140.802 25.2724 140.988 25.6157 141.248 25.8988C141.508 26.1819 141.835 26.396 142.198 26.5219C142.385 26.5858 142.261 26.8657 142.076 26.8022C141.675 26.6613 141.315 26.4244 141.026 26.1122C140.738 25.8001 140.531 25.4221 140.423 25.0113C140.409 24.9734 140.411 24.9319 140.427 24.8951C140.443 24.8582 140.473 24.8289 140.509 24.8131C140.547 24.7985 140.589 24.7994 140.626 24.8156C140.663 24.8318 140.693 24.8621 140.708 24.8997Z" fill="white"/>
<path d="M81.9474 110.291C84.3672 103.785 90.0844 98.1633 96.9935 97.4946C92.8397 103.798 91.0492 111.367 91.9388 118.863C92.2924 121.752 92.9866 124.929 91.4288 127.389C90.4596 128.919 88.7515 129.861 86.9907 130.286C85.2298 130.712 83.3951 130.679 81.584 130.643L81.1785 130.844C79.9048 124.02 79.5276 116.797 81.9474 110.291Z" fill="#F0F0F0"/>
<path d="M97.027 97.6364C92.317 100.927 88.7635 105.618 86.8713 111.043C86.4432 112.203 86.2008 113.424 86.1529 114.66C86.1451 115.866 86.4604 117.052 87.0658 118.095C87.6109 119.078 88.2823 120.021 88.5788 121.12C88.7222 121.685 88.7446 122.273 88.6445 122.847C88.5445 123.421 88.3242 123.968 87.9982 124.45C87.2171 125.675 86.0427 126.546 84.8646 127.357C83.5566 128.258 82.1837 129.174 81.3834 130.589C81.2864 130.761 81.0259 130.6 81.1227 130.429C82.5152 127.966 85.4375 127.071 87.2253 124.979C88.0595 124.003 88.6045 122.77 88.3466 121.47C88.1211 120.333 87.4296 119.36 86.8691 118.369C86.2635 117.361 85.9141 116.219 85.8513 115.045C85.8361 113.81 86.0311 112.582 86.428 111.413C87.2795 108.766 88.5418 106.27 90.1687 104.016C92.0112 101.433 94.282 99.1839 96.8828 97.3665C97.0438 97.2541 97.1869 97.5247 97.027 97.6364Z" fill="white"/>
<path d="M87.3778 109.26C86.5107 108.819 85.8286 108.084 85.4533 107.187C85.078 106.289 85.034 105.287 85.3291 104.36C85.3894 104.173 85.6834 104.258 85.623 104.446C85.3466 105.308 85.3877 106.241 85.7389 107.077C86.09 107.912 86.7281 108.594 87.538 108.999C87.7139 109.088 87.5526 109.348 87.3778 109.26Z" fill="white"/>
<path d="M86.7238 117.632C88.6201 117.033 90.221 115.742 91.2073 114.015C91.3049 113.844 91.5653 114.004 91.4679 114.175C90.4382 115.97 88.7695 117.311 86.7948 117.93C86.6065 117.989 86.5366 117.691 86.7238 117.632Z" fill="white"/>
<path d="M92.2206 101.78C92.5206 102.021 92.8756 102.183 93.2537 102.252C93.6319 102.322 94.0214 102.296 94.3872 102.178C94.5747 102.117 94.6444 102.415 94.4582 102.476C94.0534 102.604 93.6232 102.632 93.2052 102.556C92.7873 102.481 92.3942 102.304 92.0604 102.041C92.0269 102.019 92.003 101.985 91.9937 101.946C91.9844 101.906 91.9903 101.865 92.0102 101.83C92.0316 101.796 92.0657 101.771 92.1051 101.762C92.1445 101.753 92.186 101.759 92.2206 101.78Z" fill="white"/>
<path d="M113.647 114.079C113.531 114.12 113.415 114.162 113.298 114.206C111.742 114.772 110.235 115.465 108.791 116.275C108.679 116.336 108.566 116.4 108.455 116.464C104.998 118.454 101.94 121.07 99.4368 124.176C98.442 125.414 97.5428 126.725 96.7469 128.098C95.6479 129.995 94.6072 132.14 92.9932 133.522C92.8264 133.669 92.6507 133.804 92.4672 133.929L81.4542 131.323C81.4322 131.304 81.4094 131.288 81.3872 131.27L80.9427 131.186C80.9788 131.112 81.0179 131.036 81.054 130.963C81.0747 130.92 81.0979 130.877 81.1187 130.835C81.1333 130.806 81.1481 130.778 81.1596 130.751C81.1645 130.742 81.1694 130.733 81.1737 130.726C81.1852 130.699 81.1988 130.676 81.2098 130.652C81.4267 130.228 81.6471 129.805 81.8707 129.383C81.8713 129.381 81.8713 129.381 81.8744 129.379C83.548 126.147 85.5991 123.125 87.9847 120.376C88.057 120.295 88.1298 120.211 88.2071 120.131C89.2967 118.923 90.4832 117.805 91.7548 116.789C92.4529 116.235 93.1786 115.717 93.9291 115.237C95.8707 113.999 97.9949 113.075 100.224 112.497C104.667 111.346 109.429 111.629 113.349 113.902C113.449 113.96 113.547 114.018 113.647 114.079Z" fill="#F0F0F0"/>
<path d="M113.589 114.212C107.847 114.004 102.186 115.61 97.4087 118.802C96.3681 119.471 95.4395 120.3 94.657 121.258C93.9249 122.216 93.4627 123.353 93.3184 124.55C93.1615 125.663 93.1299 126.82 92.705 127.876C92.4795 128.413 92.1429 128.897 91.7175 129.295C91.292 129.693 90.7872 129.997 90.2361 130.186C88.8753 130.693 87.4134 130.682 85.9841 130.62C84.3972 130.552 82.75 130.456 81.2586 131.105C81.0779 131.183 80.9666 130.898 81.147 130.82C83.7417 129.692 86.6136 130.737 89.3006 130.143C90.5544 129.866 91.7322 129.209 92.3089 128.016C92.8132 126.973 92.8468 125.779 92.9959 124.651C93.1196 123.481 93.5278 122.359 94.1849 121.383C94.916 120.389 95.8112 119.525 96.832 118.831C99.1052 117.23 101.616 115.997 104.272 115.177C107.299 114.224 110.466 113.795 113.636 113.91C113.833 113.917 113.784 114.22 113.589 114.212Z" fill="white"/>
<path d="M98.8864 117.684C98.4596 116.81 98.3574 115.812 98.5981 114.87C98.8389 113.927 99.4068 113.101 100.201 112.538C100.362 112.425 100.545 112.67 100.384 112.783C99.6438 113.306 99.1148 114.075 98.8925 114.954C98.6701 115.832 98.7689 116.761 99.1712 117.572C99.2584 117.749 98.9731 117.859 98.8864 117.684Z" fill="white"/>
<path d="M93.3236 123.975C95.1983 124.638 97.2542 124.571 99.0814 123.786C99.2623 123.708 99.3737 123.993 99.193 124.071C97.2901 124.884 95.1504 124.95 93.2011 124.255C93.0154 124.189 93.1389 123.909 93.3236 123.975Z" fill="white"/>
<path d="M107.257 114.627C107.351 115 107.537 115.343 107.797 115.626C108.057 115.91 108.384 116.124 108.747 116.249C108.933 116.313 108.81 116.593 108.624 116.53C108.224 116.389 107.864 116.152 107.575 115.84C107.287 115.528 107.08 115.15 106.972 114.739C106.958 114.701 106.96 114.659 106.976 114.623C106.992 114.586 107.021 114.557 107.058 114.541C107.096 114.526 107.138 114.527 107.175 114.543C107.212 114.559 107.242 114.59 107.257 114.627Z" fill="white"/>
<path d="M219.036 159.057C217.801 154.44 218.769 149.006 222.381 145.877C222.562 151.07 224.573 156.033 228.061 159.886C229.411 161.367 231.067 162.874 231.173 164.875C231.179 166.136 230.7 167.352 229.836 168.27C228.977 169.176 228.005 169.967 226.944 170.626L226.796 170.9C223.361 167.577 220.271 163.673 219.036 159.057Z" fill="#F0F0F0"/>
<path d="M222.456 145.943C221.124 149.667 220.999 153.717 222.099 157.516C222.322 158.338 222.672 159.12 223.138 159.833C223.614 160.513 224.264 161.053 225.019 161.397C225.746 161.677 226.436 162.045 227.074 162.492C227.38 162.752 227.627 163.073 227.8 163.435C227.972 163.798 228.066 164.192 228.076 164.593C228.071 165.584 227.867 166.563 227.475 167.474C227.1 168.501 226.695 169.562 226.81 170.675C226.823 170.81 226.613 170.824 226.599 170.689C226.399 168.752 227.683 167.085 227.853 165.198C227.917 164.763 227.882 164.319 227.748 163.9C227.615 163.481 227.388 163.099 227.083 162.781C226.504 162.233 225.728 161.962 225.018 161.63C224.276 161.305 223.625 160.803 223.122 160.169C222.621 159.482 222.241 158.715 221.998 157.901C221.421 156.076 221.135 154.171 221.149 152.258C221.154 150.073 221.532 147.906 222.268 145.849C222.313 145.722 222.502 145.816 222.456 145.943Z" fill="white"/>
<path d="M221.673 156.314C221.01 156.412 220.335 156.271 219.766 155.917C219.198 155.563 218.774 155.018 218.57 154.38C218.529 154.251 218.728 154.181 218.769 154.311C218.958 154.905 219.353 155.412 219.883 155.741C220.413 156.07 221.043 156.198 221.659 156.103C221.793 156.083 221.806 156.293 221.673 156.314Z" fill="white"/>
<path d="M224.643 161.274C225.469 160.182 225.852 158.819 225.718 157.456C225.704 157.321 225.914 157.307 225.928 157.442C226.065 158.86 225.663 160.278 224.801 161.413C224.719 161.521 224.561 161.381 224.643 161.274Z" fill="white"/>
<path d="M221.41 150.185C221.674 150.2 221.938 150.15 222.178 150.038C222.418 149.926 222.627 149.757 222.785 149.544C222.866 149.435 223.024 149.575 222.943 149.683C222.767 149.917 222.537 150.104 222.272 150.228C222.007 150.352 221.716 150.409 221.424 150.395C221.396 150.396 221.369 150.386 221.349 150.368C221.328 150.35 221.315 150.324 221.312 150.297C221.31 150.269 221.32 150.241 221.338 150.221C221.356 150.2 221.382 150.187 221.41 150.185Z" fill="white"/>
<path d="M238.339 148.548C238.29 148.617 238.242 148.687 238.194 148.758C237.547 149.697 236.976 150.686 236.489 151.716C236.45 151.795 236.412 151.876 236.375 151.956C235.228 154.452 234.554 157.138 234.387 159.88C234.322 160.971 234.34 162.065 234.441 163.154C234.58 164.657 234.85 166.275 234.496 167.694C234.46 167.843 234.416 167.989 234.362 168.132L227.142 171.059C227.122 171.057 227.103 171.057 227.083 171.056L226.8 171.186C226.791 171.13 226.783 171.072 226.773 171.016C226.768 170.984 226.764 170.951 226.759 170.919C226.756 170.897 226.753 170.875 226.749 170.856C226.748 170.848 226.747 170.841 226.746 170.836C226.742 170.816 226.74 170.798 226.737 170.78C226.69 170.456 226.645 170.13 226.602 169.804C226.602 169.803 226.602 169.803 226.603 169.8C226.254 167.319 226.201 164.805 226.444 162.311C226.453 162.237 226.46 162.161 226.472 162.085C226.601 160.973 226.822 159.872 227.131 158.795C227.302 158.206 227.503 157.626 227.733 157.057C228.329 155.589 229.153 154.223 230.174 153.01C232.209 150.593 234.995 148.854 238.101 148.568C238.181 148.56 238.259 148.554 238.339 148.548Z" fill="#F0F0F0"/>
<path d="M238.36 148.646C235.054 150.818 232.516 153.976 231.107 157.672C230.789 158.462 230.599 159.297 230.541 160.147C230.512 160.977 230.706 161.799 231.102 162.528C231.513 163.19 231.843 163.899 232.083 164.64C232.171 165.031 232.175 165.437 232.094 165.83C232.014 166.223 231.852 166.595 231.618 166.921C231.018 167.709 230.265 168.368 229.404 168.859C228.487 169.453 227.524 170.056 226.945 171.015C226.875 171.131 226.699 171.015 226.769 170.899C227.776 169.232 229.804 168.674 231.076 167.269C231.389 166.961 231.628 166.585 231.774 166.17C231.919 165.756 231.968 165.313 231.917 164.876C231.784 164.09 231.327 163.406 230.961 162.713C230.564 162.008 230.346 161.215 230.326 160.406C230.34 159.556 230.498 158.714 230.795 157.918C231.433 156.113 232.351 154.42 233.515 152.901C234.833 151.16 236.44 149.657 238.266 148.458C238.379 148.383 238.472 148.572 238.36 148.646Z" fill="white"/>
<path d="M231.491 156.455C230.903 156.134 230.448 155.615 230.207 154.99C229.967 154.365 229.956 153.675 230.177 153.043C230.223 152.915 230.423 152.979 230.378 153.107C230.171 153.695 230.181 154.338 230.406 154.92C230.631 155.502 231.057 155.983 231.606 156.279C231.725 156.343 231.609 156.519 231.491 156.455Z" fill="white"/>
<path d="M230.876 162.203C232.192 161.829 233.319 160.971 234.032 159.802C234.103 159.687 234.279 159.802 234.208 159.918C233.464 161.133 232.29 162.023 230.919 162.41C230.788 162.446 230.746 162.24 230.876 162.203Z" fill="white"/>
<path d="M234.971 151.403C235.172 151.574 235.413 151.693 235.672 151.748C235.931 151.804 236.2 151.794 236.454 151.72C236.584 151.681 236.626 151.888 236.497 151.926C236.216 152.006 235.919 152.017 235.633 151.957C235.347 151.896 235.08 151.767 234.855 151.579C234.833 151.563 234.817 151.539 234.811 151.512C234.806 151.485 234.81 151.457 234.825 151.433C234.84 151.41 234.864 151.394 234.892 151.388C234.919 151.383 234.947 151.388 234.971 151.403Z" fill="white"/>
</g>
<defs>
<clipPath id="clip0_21_554">
<rect width="256" height="274.962" fill="white"/>
</clipPath>
</defs>
</svg>
