<svg width="34" height="35" viewBox="0 0 34 35" fill="none" xmlns="http://www.w3.org/2000/svg">
<path d="M31.62 17.0334H31.45V12.3893C31.45 10.9399 30.3766 9.74006 28.9836 9.53402V8.4892C28.9836 6.89562 27.6872 5.5992 26.0936 5.5992H24.8132L24.139 3.8023C24.0929 3.67959 24.0014 3.5793 23.8834 3.52226C23.7654 3.46522 23.63 3.45581 23.5052 3.49596L16.9769 5.5992H3.6499C2.29364 5.5992 1.19 6.70284 1.19 8.0591V28.6386C1.19 30.2322 2.48642 31.5286 4.08 31.5286H28.56C30.1536 31.5286 31.45 30.2322 31.45 28.6386V23.9946H31.62C32.2762 23.9946 32.81 23.4608 32.81 22.8046V18.2234C32.81 17.5675 32.2762 17.0334 31.62 17.0334ZM25.196 6.61954H26.0936C27.1245 6.61954 27.9636 7.45832 27.9636 8.48954V9.49968H26.2769L26.1752 9.2287L25.196 6.61954ZM23.7238 5.59954L24.5524 7.8075L25.1875 9.49968H8.19706L23.3549 4.6166L23.7238 5.59954ZM3.6499 6.61954H13.8105L7.40486 8.68334L4.87084 9.49968H3.6499C2.856 9.49968 2.21 8.85368 2.21 8.05978C2.21 7.26588 2.856 6.61954 3.6499 6.61954ZM30.43 28.6386C30.43 29.6698 29.5909 30.5086 28.56 30.5086H4.08C3.58421 30.5081 3.10888 30.3109 2.75831 29.9603C2.40773 29.6097 2.21054 29.1344 2.21 28.6386V10.0529C2.21714 10.0583 2.22564 10.0617 2.23312 10.0671C2.3222 10.13 2.41502 10.1875 2.51226 10.2385C2.53028 10.248 2.54932 10.2562 2.56768 10.2654C2.65778 10.3099 2.7506 10.349 2.84648 10.3823C2.8628 10.3881 2.87844 10.3946 2.89476 10.4C3.00084 10.4343 3.10998 10.4602 3.22184 10.4799C3.24666 10.4843 3.27182 10.4877 3.29698 10.4915C3.41258 10.5081 3.52988 10.5197 3.6499 10.5197H28.56C29.5909 10.5197 30.43 11.3585 30.43 12.3897V17.0337H27.0511C25.4575 17.0337 24.1611 18.3302 24.1611 19.9237V21.1049C24.1611 22.6985 25.4575 23.9949 27.0511 23.9949H30.43V28.6386ZM31.79 22.8046C31.79 22.8497 31.7721 22.8929 31.7402 22.9248C31.7083 22.9567 31.6651 22.9746 31.62 22.9746H27.0511C26.5553 22.974 26.08 22.7768 25.7294 22.4263C25.3788 22.0757 25.1816 21.6004 25.1811 21.1046V19.9234C25.1811 18.8922 26.0202 18.0534 27.0511 18.0534H31.62C31.6651 18.0534 31.7083 18.0713 31.7402 18.1032C31.7721 18.1351 31.79 18.1783 31.79 18.2234V22.8046Z" fill="#2E384D"/>
<path d="M28.2456 19.04C27.8585 19.0404 27.4873 19.1963 27.2136 19.4735C26.9399 19.7508 26.7859 20.1267 26.7854 20.5188C26.7854 21.3345 27.4404 21.9976 28.2456 21.9976C29.0508 21.9976 29.7053 21.3341 29.7053 20.5188C29.7049 20.1267 29.551 19.7509 29.2773 19.4737C29.0036 19.1964 28.6326 19.0405 28.2456 19.04ZM28.2456 20.9762C27.9968 20.9762 27.794 20.7712 27.794 20.5191C27.7972 20.4 27.8462 20.2869 27.9305 20.2038C28.0148 20.1207 28.1278 20.0742 28.2454 20.0742C28.363 20.0742 28.476 20.1207 28.5603 20.2038C28.6446 20.2869 28.6935 20.4 28.6967 20.5191C28.6967 20.7708 28.4943 20.9762 28.2456 20.9762Z" fill="#2E384D"/>
</svg>
